<svg xmlns="http://www.w3.org/2000/svg" xmlns:xlink="http://www.w3.org/1999/xlink" width="363" zoomAndPan="magnify" viewBox="0 0 272.25 153.000002" height="204" preserveAspectRatio="xMidYMid meet" version="1.2"><defs><clipPath id="9e72323c9f"><path d="M 0.511719 0 L 270.992188 0 L 270.992188 152.007812 L 0.511719 152.007812 Z M 0.511719 0 "/></clipPath><clipPath id="be3a38df6d"><path d="M 0.511719 0 L 270.742188 0 L 270.742188 152.007812 L 0.511719 152.007812 Z M 0.511719 0 "/></clipPath><linearGradient x1="39.669937" gradientTransform="matrix(0.74513,0,0,0.74513,0.506984,0.00000695455)" y1="-39.664063" x2="323.000988" gradientUnits="userSpaceOnUse" y2="243.666988" id="b7e5cdd7ca"><stop style="stop-color:#201e33;stop-opacity:1;" offset="0"/><stop style="stop-color:#201e33;stop-opacity:1;" offset="0.0078125"/><stop style="stop-color:#201e34;stop-opacity:1;" offset="0.015625"/><stop style="stop-color:#211f34;stop-opacity:1;" offset="0.0234375"/><stop style="stop-color:#211f35;stop-opacity:1;" offset="0.03125"/><stop style="stop-color:#211f35;stop-opacity:1;" offset="0.0390625"/><stop style="stop-color:#211f36;stop-opacity:1;" offset="0.046875"/><stop style="stop-color:#222036;stop-opacity:1;" offset="0.0546875"/><stop style="stop-color:#222037;stop-opacity:1;" offset="0.0625"/><stop style="stop-color:#222037;stop-opacity:1;" offset="0.0703125"/><stop style="stop-color:#232038;stop-opacity:1;" offset="0.078125"/><stop style="stop-color:#232138;stop-opacity:1;" offset="0.0859375"/><stop style="stop-color:#232139;stop-opacity:1;" offset="0.09375"/><stop style="stop-color:#232139;stop-opacity:1;" offset="0.101563"/><stop style="stop-color:#24213a;stop-opacity:1;" offset="0.109375"/><stop style="stop-color:#24213a;stop-opacity:1;" offset="0.117187"/><stop style="stop-color:#24223b;stop-opacity:1;" offset="0.125"/><stop style="stop-color:#25223b;stop-opacity:1;" offset="0.132812"/><stop style="stop-color:#25223c;stop-opacity:1;" offset="0.140625"/><stop style="stop-color:#25223d;stop-opacity:1;" offset="0.148438"/><stop style="stop-color:#25233d;stop-opacity:1;" offset="0.15625"/><stop style="stop-color:#26233e;stop-opacity:1;" offset="0.164062"/><stop style="stop-color:#26233e;stop-opacity:1;" offset="0.171875"/><stop style="stop-color:#26233f;stop-opacity:1;" offset="0.179688"/><stop style="stop-color:#27243f;stop-opacity:1;" offset="0.1875"/><stop style="stop-color:#272440;stop-opacity:1;" offset="0.195312"/><stop style="stop-color:#272440;stop-opacity:1;" offset="0.203125"/><stop style="stop-color:#272441;stop-opacity:1;" offset="0.210938"/><stop style="stop-color:#282541;stop-opacity:1;" offset="0.21875"/><stop style="stop-color:#282542;stop-opacity:1;" offset="0.226562"/><stop style="stop-color:#282542;stop-opacity:1;" offset="0.234375"/><stop style="stop-color:#292543;stop-opacity:1;" offset="0.242188"/><stop style="stop-color:#292543;stop-opacity:1;" offset="0.25"/><stop style="stop-color:#292644;stop-opacity:1;" offset="0.257812"/><stop style="stop-color:#292644;stop-opacity:1;" offset="0.265625"/><stop style="stop-color:#2a2645;stop-opacity:1;" offset="0.273438"/><stop style="stop-color:#2a2645;stop-opacity:1;" offset="0.28125"/><stop style="stop-color:#2a2746;stop-opacity:1;" offset="0.289062"/><stop style="stop-color:#2b2746;stop-opacity:1;" offset="0.296875"/><stop style="stop-color:#2b2747;stop-opacity:1;" offset="0.304687"/><stop style="stop-color:#2b2747;stop-opacity:1;" offset="0.3125"/><stop style="stop-color:#2c2848;stop-opacity:1;" offset="0.320313"/><stop style="stop-color:#2c2848;stop-opacity:1;" offset="0.328125"/><stop style="stop-color:#2c2849;stop-opacity:1;" offset="0.335938"/><stop style="stop-color:#2d294a;stop-opacity:1;" offset="0.339844"/><stop style="stop-color:#2e2a4b;stop-opacity:1;" offset="0.34375"/><stop style="stop-color:#2f2b4c;stop-opacity:1;" offset="0.347656"/><stop style="stop-color:#302c4d;stop-opacity:1;" offset="0.351562"/><stop style="stop-color:#302c4e;stop-opacity:1;" offset="0.355469"/><stop style="stop-color:#312d4f;stop-opacity:1;" offset="0.359375"/><stop style="stop-color:#322e50;stop-opacity:1;" offset="0.363281"/><stop style="stop-color:#332f51;stop-opacity:1;" offset="0.367188"/><stop style="stop-color:#332f51;stop-opacity:1;" offset="0.371094"/><stop style="stop-color:#343052;stop-opacity:1;" offset="0.375"/><stop style="stop-color:#353153;stop-opacity:1;" offset="0.378906"/><stop style="stop-color:#363254;stop-opacity:1;" offset="0.382812"/><stop style="stop-color:#363255;stop-opacity:1;" offset="0.386719"/><stop style="stop-color:#373356;stop-opacity:1;" offset="0.390625"/><stop style="stop-color:#383457;stop-opacity:1;" offset="0.394531"/><stop style="stop-color:#383558;stop-opacity:1;" offset="0.398438"/><stop style="stop-color:#393558;stop-opacity:1;" offset="0.402344"/><stop style="stop-color:#3a3659;stop-opacity:1;" offset="0.40625"/><stop style="stop-color:#3b375a;stop-opacity:1;" offset="0.410156"/><stop style="stop-color:#3b385b;stop-opacity:1;" offset="0.414062"/><stop style="stop-color:#3c385c;stop-opacity:1;" offset="0.417969"/><stop style="stop-color:#3d395d;stop-opacity:1;" offset="0.421875"/><stop style="stop-color:#3e3a5e;stop-opacity:1;" offset="0.425781"/><stop style="stop-color:#3e3b5f;stop-opacity:1;" offset="0.429687"/><stop style="stop-color:#3f3b60;stop-opacity:1;" offset="0.433594"/><stop style="stop-color:#403c60;stop-opacity:1;" offset="0.4375"/><stop style="stop-color:#413d61;stop-opacity:1;" offset="0.441406"/><stop style="stop-color:#413e62;stop-opacity:1;" offset="0.445313"/><stop style="stop-color:#423e63;stop-opacity:1;" offset="0.449219"/><stop style="stop-color:#433f64;stop-opacity:1;" offset="0.453125"/><stop style="stop-color:#444065;stop-opacity:1;" offset="0.457031"/><stop style="stop-color:#444166;stop-opacity:1;" offset="0.460938"/><stop style="stop-color:#454167;stop-opacity:1;" offset="0.464844"/><stop style="stop-color:#464267;stop-opacity:1;" offset="0.46875"/><stop style="stop-color:#464368;stop-opacity:1;" offset="0.472656"/><stop style="stop-color:#474469;stop-opacity:1;" offset="0.476562"/><stop style="stop-color:#48446a;stop-opacity:1;" offset="0.480469"/><stop style="stop-color:#49456b;stop-opacity:1;" offset="0.484375"/><stop style="stop-color:#49466c;stop-opacity:1;" offset="0.488281"/><stop style="stop-color:#4a476d;stop-opacity:1;" offset="0.492188"/><stop style="stop-color:#4b476e;stop-opacity:1;" offset="0.496094"/><stop style="stop-color:#4c486e;stop-opacity:1;" offset="0.5"/><stop style="stop-color:#4c496f;stop-opacity:1;" offset="0.503906"/><stop style="stop-color:#4d4a70;stop-opacity:1;" offset="0.507812"/><stop style="stop-color:#4e4a71;stop-opacity:1;" offset="0.511719"/><stop style="stop-color:#4f4b72;stop-opacity:1;" offset="0.515625"/><stop style="stop-color:#4f4c73;stop-opacity:1;" offset="0.519531"/><stop style="stop-color:#504d74;stop-opacity:1;" offset="0.523438"/><stop style="stop-color:#514d75;stop-opacity:1;" offset="0.527344"/><stop style="stop-color:#524e75;stop-opacity:1;" offset="0.53125"/><stop style="stop-color:#524f76;stop-opacity:1;" offset="0.535156"/><stop style="stop-color:#535077;stop-opacity:1;" offset="0.539062"/><stop style="stop-color:#545078;stop-opacity:1;" offset="0.542969"/><stop style="stop-color:#545179;stop-opacity:1;" offset="0.546875"/><stop style="stop-color:#55527a;stop-opacity:1;" offset="0.550781"/><stop style="stop-color:#56537b;stop-opacity:1;" offset="0.554688"/><stop style="stop-color:#57537c;stop-opacity:1;" offset="0.558594"/><stop style="stop-color:#57547c;stop-opacity:1;" offset="0.5625"/><stop style="stop-color:#58557d;stop-opacity:1;" offset="0.566406"/><stop style="stop-color:#59567e;stop-opacity:1;" offset="0.570312"/><stop style="stop-color:#5a567f;stop-opacity:1;" offset="0.574219"/><stop style="stop-color:#5a5780;stop-opacity:1;" offset="0.578125"/><stop style="stop-color:#5b5881;stop-opacity:1;" offset="0.582031"/><stop style="stop-color:#5c5982;stop-opacity:1;" offset="0.585938"/><stop style="stop-color:#5d5983;stop-opacity:1;" offset="0.589844"/><stop style="stop-color:#5d5a83;stop-opacity:1;" offset="0.59375"/><stop style="stop-color:#5e5b84;stop-opacity:1;" offset="0.597656"/><stop style="stop-color:#5f5c85;stop-opacity:1;" offset="0.601562"/><stop style="stop-color:#5f5c86;stop-opacity:1;" offset="0.605469"/><stop style="stop-color:#605d87;stop-opacity:1;" offset="0.609375"/><stop style="stop-color:#615e88;stop-opacity:1;" offset="0.613281"/><stop style="stop-color:#625e89;stop-opacity:1;" offset="0.617188"/><stop style="stop-color:#625f8a;stop-opacity:1;" offset="0.621094"/><stop style="stop-color:#63608a;stop-opacity:1;" offset="0.625"/><stop style="stop-color:#64618b;stop-opacity:1;" offset="0.628906"/><stop style="stop-color:#65618c;stop-opacity:1;" offset="0.632812"/><stop style="stop-color:#65628d;stop-opacity:1;" offset="0.636719"/><stop style="stop-color:#66638e;stop-opacity:1;" offset="0.640625"/><stop style="stop-color:#67648f;stop-opacity:1;" offset="0.644531"/><stop style="stop-color:#686490;stop-opacity:1;" offset="0.648438"/><stop style="stop-color:#686591;stop-opacity:1;" offset="0.652344"/><stop style="stop-color:#696691;stop-opacity:1;" offset="0.65625"/><stop style="stop-color:#6a6792;stop-opacity:1;" offset="0.660156"/><stop style="stop-color:#6b6793;stop-opacity:1;" offset="0.664062"/><stop style="stop-color:#6b6894;stop-opacity:1;" offset="0.667969"/><stop style="stop-color:#6b6894;stop-opacity:1;" offset="0.671875"/><stop style="stop-color:#6b6895;stop-opacity:1;" offset="0.679688"/><stop style="stop-color:#6b6896;stop-opacity:1;" offset="0.6875"/><stop style="stop-color:#6b6897;stop-opacity:1;" offset="0.695312"/><stop style="stop-color:#6b6898;stop-opacity:1;" offset="0.703125"/><stop style="stop-color:#6b6899;stop-opacity:1;" offset="0.710938"/><stop style="stop-color:#6b689a;stop-opacity:1;" offset="0.71875"/><stop style="stop-color:#6b689b;stop-opacity:1;" offset="0.726562"/><stop style="stop-color:#6b689c;stop-opacity:1;" offset="0.734375"/><stop style="stop-color:#6b689d;stop-opacity:1;" offset="0.742188"/><stop style="stop-color:#6c689e;stop-opacity:1;" offset="0.75"/><stop style="stop-color:#6c689f;stop-opacity:1;" offset="0.757812"/><stop style="stop-color:#6c67a0;stop-opacity:1;" offset="0.765625"/><stop style="stop-color:#6c67a1;stop-opacity:1;" offset="0.773438"/><stop style="stop-color:#6c67a2;stop-opacity:1;" offset="0.78125"/><stop style="stop-color:#6c67a2;stop-opacity:1;" offset="0.789062"/><stop style="stop-color:#6c67a3;stop-opacity:1;" offset="0.796875"/><stop style="stop-color:#6c67a4;stop-opacity:1;" offset="0.804688"/><stop style="stop-color:#6c67a5;stop-opacity:1;" offset="0.8125"/><stop style="stop-color:#6c67a6;stop-opacity:1;" offset="0.820312"/><stop style="stop-color:#6c67a7;stop-opacity:1;" offset="0.828125"/><stop style="stop-color:#6c67a8;stop-opacity:1;" offset="0.835938"/><stop style="stop-color:#6c67a9;stop-opacity:1;" offset="0.84375"/><stop style="stop-color:#6c67aa;stop-opacity:1;" offset="0.851562"/><stop style="stop-color:#6c67ab;stop-opacity:1;" offset="0.859375"/><stop style="stop-color:#6c67ac;stop-opacity:1;" offset="0.867188"/><stop style="stop-color:#6c67ad;stop-opacity:1;" offset="0.875"/><stop style="stop-color:#6c67ae;stop-opacity:1;" offset="0.882812"/><stop style="stop-color:#6c67af;stop-opacity:1;" offset="0.890625"/><stop style="stop-color:#6c67b0;stop-opacity:1;" offset="0.898438"/><stop style="stop-color:#6c67b1;stop-opacity:1;" offset="0.90625"/><stop style="stop-color:#6c67b2;stop-opacity:1;" offset="0.914062"/><stop style="stop-color:#6c67b3;stop-opacity:1;" offset="0.921875"/><stop style="stop-color:#6c66b4;stop-opacity:1;" offset="0.929688"/><stop style="stop-color:#6d66b5;stop-opacity:1;" offset="0.9375"/><stop style="stop-color:#6d66b6;stop-opacity:1;" offset="0.945312"/><stop style="stop-color:#6d66b7;stop-opacity:1;" offset="0.953125"/><stop style="stop-color:#6d66b8;stop-opacity:1;" offset="0.960938"/><stop style="stop-color:#6d66b9;stop-opacity:1;" offset="0.96875"/><stop style="stop-color:#6d66ba;stop-opacity:1;" offset="0.976562"/><stop style="stop-color:#6d66bb;stop-opacity:1;" offset="0.984375"/><stop style="stop-color:#6d66bc;stop-opacity:1;" offset="0.992188"/><stop style="stop-color:#6d66bc;stop-opacity:1;" offset="1"/></linearGradient><clipPath id="87ca5ce362"><path d="M 0.511719 105 L 76 105 L 76 152.007812 L 0.511719 152.007812 Z M 0.511719 105 "/></clipPath><clipPath id="97e1b6c8f9"><path d="M -10.886719 91.316406 L 88.746094 125.882812 L 58.230469 213.832031 L -41.402344 179.265625 Z M -10.886719 91.316406 "/></clipPath><clipPath id="b7e72977d1"><path d="M 38.894531 108.585938 C 11.402344 99.046875 -17.714844 111.003906 -26.144531 135.289062 C -34.570312 159.574219 -19.113281 186.996094 8.378906 196.535156 C 35.875 206.074219 64.992188 194.121094 73.417969 169.832031 C 81.84375 145.546875 66.390625 118.125 38.894531 108.585938 Z M 38.894531 108.585938 "/></clipPath><clipPath id="7bc4f016b1"><path d="M 41 133 L 155 133 L 155 152.007812 L 41 152.007812 Z M 41 133 "/></clipPath><clipPath id="8231713f71"><path d="M 62.050781 115.703125 L 169.257812 165.957031 L 133.816406 241.5625 L 26.609375 191.308594 Z M 62.050781 115.703125 "/></clipPath><clipPath id="a556d1035b"><path d="M 115.554688 140.78125 C 86.003906 126.929688 54.117188 132.628906 44.328125 153.503906 C 34.542969 174.382812 50.5625 202.535156 80.113281 216.386719 C 109.660156 230.238281 141.550781 224.542969 151.335938 203.664062 C 161.121094 182.789062 145.101562 154.632812 115.554688 140.78125 Z M 115.554688 140.78125 "/></clipPath><clipPath id="45786df77b"><path d="M 0.511719 10 L 238 10 L 238 152.007812 L 0.511719 152.007812 Z M 0.511719 10 "/></clipPath><filter x="0%" y="0%" width="100%" filterUnits="objectBoundingBox" id="21a945ff36" height="100%"><feColorMatrix values="0 0 0 0 1 0 0 0 0 1 0 0 0 0 1 0 0 0 1 0" type="matrix" in="SourceGraphic"/></filter><clipPath id="dcb2563404"><path d="M 0.511719 10 L 230 10 L 230 142.007812 L 0.511719 142.007812 Z M 0.511719 10 "/></clipPath><clipPath id="7941174c6d"><path d="M 172.273438 305.285156 L -117.09375 87.550781 L -51.683594 0.621094 L 237.683594 218.355469 Z M 172.273438 305.285156 "/></clipPath><clipPath id="d6082b3a99"><path d="M 237.648438 218.402344 L -51.71875 0.667969 L -117.128906 87.597656 L 172.238281 305.328125 Z M 237.648438 218.402344 "/></clipPath><clipPath id="c86255bf81"><path d="M -46.183594 10.089844 C -41.8125 9.9375 -37.53125 11.304688 -34.367188 14.40625 C -33.332031 15.410156 -32.890625 16.875 -33.839844 18.136719 C -34.621094 19.175781 -36.535156 19.683594 -37.570312 18.664062 C -44.117188 12.257812 -54.382812 16.34375 -59.347656 22.730469 C -65.816406 31.042969 -62.273438 42.382812 -56.585938 50.089844 C -48.320312 61.285156 -35.34375 66.394531 -24.597656 74.667969 C -15.234375 81.871094 -8.242188 91.9375 -4.511719 103.136719 C -3.265625 106.890625 -2.375 110.761719 -1.839844 114.671875 C 19.636719 108.738281 43.460938 113.457031 60.15625 128.59375 C 60.777344 129.15625 61.382812 129.730469 61.984375 130.316406 C 66.714844 128.675781 71.6875 127.757812 76.628906 127.59375 C 89.699219 127.171875 101.871094 132.007812 112.109375 139.976562 C 123.410156 148.789062 132.109375 160.386719 141.089844 171.414062 C 149.949219 182.28125 159.433594 192.25 170.941406 200.359375 C 182.109375 208.230469 194.519531 214.289062 207.589844 218.304688 C 213.972656 220.265625 220.484375 221.683594 227.09375 222.613281 C 230.496094 223.09375 229.875 228.386719 226.472656 227.910156 C 200.589844 224.273438 175.851562 212.929688 156.285156 195.5625 C 146.066406 186.484375 137.789062 175.695312 129.152344 165.167969 C 120.835938 155.027344 111.828125 144.609375 100.050781 138.414062 C 89.878906 133.070312 78.46875 131.476562 67.292969 134.273438 C 66.882812 134.375 66.457031 134.496094 66.046875 134.617188 C 72.050781 141.53125 76.703125 149.636719 79.492188 158.378906 C 83.105469 169.675781 84.609375 183.351562 78.789062 194.207031 C 75.933594 199.527344 71.316406 203.660156 65.246094 204.761719 C 59.425781 205.828125 53.460938 203.792969 48.636719 200.589844 C 39.089844 194.234375 33.835938 182.742188 33.390625 171.492188 C 32.933594 159.847656 37.050781 148.644531 45.378906 140.4375 C 48.636719 137.21875 52.453125 134.59375 56.582031 132.5625 C 51.308594 127.820312 45.226562 124.003906 38.550781 121.4375 C 28.378906 117.53125 17.222656 116.542969 6.480469 118.265625 C 3.820312 118.691406 1.203125 119.285156 -1.371094 120.042969 C -1.09375 125.933594 -1.679688 131.855469 -3.222656 137.578125 C -5.445312 145.832031 -13.066406 155.710938 -22.480469 155.390625 C -26.941406 155.234375 -31.175781 152.0625 -32.707031 147.894531 C -34.3125 143.523438 -33.152344 138.59375 -31.035156 134.609375 C -26.136719 125.367188 -16.585938 119.75 -6.972656 116.28125 C -7.484375 112.066406 -8.464844 107.914062 -9.867188 103.976562 C -13.628906 93.394531 -20.367188 84.28125 -29.46875 77.6875 C -35.390625 73.390625 -41.878906 69.976562 -47.863281 65.765625 C -52.363281 62.59375 -56.515625 58.84375 -59.9375 54.523438 C -66.222656 46.546875 -70.585938 35.328125 -66.882812 25.28125 C -63.792969 16.984375 -55.085938 10.394531 -46.183594 10.089844 Z M 42.691406 152.730469 C 37.9375 161.988281 37.289062 173.332031 41.21875 183 C 44.835938 191.902344 54.195312 201.570312 64.738281 199.445312 C 76.289062 197.101562 78 181.566406 77 172.117188 C 75.808594 160.933594 71.394531 150.21875 64.613281 141.273438 C 63.367188 139.628906 62.042969 138.058594 60.648438 136.558594 C 53.113281 139.851562 46.453125 145.40625 42.691406 152.730469 Z M -8.96875 122.851562 C -13.515625 124.871094 -18.257812 127.414062 -21.824219 130.949219 C -25.964844 135.050781 -32.546875 146.335938 -24.015625 149.699219 C -20.640625 151.023438 -17.097656 148.765625 -14.652344 146.523438 C -11.578125 143.714844 -9.324219 139.820312 -8.234375 135.8125 C -7.003906 131.308594 -6.476562 126.582031 -6.570312 121.867188 C -7.363281 122.191406 -8.171875 122.503906 -8.96875 122.851562 Z M -8.96875 122.851562 "/></clipPath><linearGradient x1="46.651586" gradientTransform="matrix(-0.851856,-0.640979,-0.640979,0.851856,235.862458,217.591653)" y1="50.450001" x2="293.518161" gradientUnits="userSpaceOnUse" y2="50.450001" id="52c9daa6e9"><stop style="stop-color:#5c5b69;stop-opacity:1;" offset="0"/><stop style="stop-color:#5c5b69;stop-opacity:1;" offset="0.5"/><stop style="stop-color:#5b5a68;stop-opacity:1;" offset="0.507812"/><stop style="stop-color:#5b5a68;stop-opacity:1;" offset="0.515625"/><stop style="stop-color:#5a5967;stop-opacity:1;" offset="0.523438"/><stop style="stop-color:#595867;stop-opacity:1;" offset="0.53125"/><stop style="stop-color:#595866;stop-opacity:1;" offset="0.539062"/><stop style="stop-color:#585765;stop-opacity:1;" offset="0.546875"/><stop style="stop-color:#575665;stop-opacity:1;" offset="0.554688"/><stop style="stop-color:#565564;stop-opacity:1;" offset="0.5625"/><stop style="stop-color:#565563;stop-opacity:1;" offset="0.570312"/><stop style="stop-color:#555463;stop-opacity:1;" offset="0.578125"/><stop style="stop-color:#545362;stop-opacity:1;" offset="0.585938"/><stop style="stop-color:#545362;stop-opacity:1;" offset="0.59375"/><stop style="stop-color:#535261;stop-opacity:1;" offset="0.601562"/><stop style="stop-color:#525160;stop-opacity:1;" offset="0.609375"/><stop style="stop-color:#525060;stop-opacity:1;" offset="0.617188"/><stop style="stop-color:#51505f;stop-opacity:1;" offset="0.625"/><stop style="stop-color:#504f5e;stop-opacity:1;" offset="0.632812"/><stop style="stop-color:#4f4e5e;stop-opacity:1;" offset="0.640625"/><stop style="stop-color:#4f4e5d;stop-opacity:1;" offset="0.648438"/><stop style="stop-color:#4e4d5c;stop-opacity:1;" offset="0.65625"/><stop style="stop-color:#4d4c5c;stop-opacity:1;" offset="0.664062"/><stop style="stop-color:#4d4b5b;stop-opacity:1;" offset="0.671875"/><stop style="stop-color:#4c4b5b;stop-opacity:1;" offset="0.679688"/><stop style="stop-color:#4b4a5a;stop-opacity:1;" offset="0.6875"/><stop style="stop-color:#4a4959;stop-opacity:1;" offset="0.695312"/><stop style="stop-color:#4a4959;stop-opacity:1;" offset="0.703125"/><stop style="stop-color:#494858;stop-opacity:1;" offset="0.710938"/><stop style="stop-color:#484757;stop-opacity:1;" offset="0.71875"/><stop style="stop-color:#484657;stop-opacity:1;" offset="0.726562"/><stop style="stop-color:#474656;stop-opacity:1;" offset="0.734375"/><stop style="stop-color:#464555;stop-opacity:1;" offset="0.742188"/><stop style="stop-color:#464455;stop-opacity:1;" offset="0.75"/><stop style="stop-color:#454454;stop-opacity:1;" offset="0.757812"/><stop style="stop-color:#444354;stop-opacity:1;" offset="0.765625"/><stop style="stop-color:#434253;stop-opacity:1;" offset="0.773438"/><stop style="stop-color:#434152;stop-opacity:1;" offset="0.78125"/><stop style="stop-color:#424152;stop-opacity:1;" offset="0.789062"/><stop style="stop-color:#414051;stop-opacity:1;" offset="0.796875"/><stop style="stop-color:#413f50;stop-opacity:1;" offset="0.804688"/><stop style="stop-color:#403f50;stop-opacity:1;" offset="0.8125"/><stop style="stop-color:#3f3e4f;stop-opacity:1;" offset="0.820312"/><stop style="stop-color:#3f3d4f;stop-opacity:1;" offset="0.828125"/><stop style="stop-color:#3e3c4e;stop-opacity:1;" offset="0.835938"/><stop style="stop-color:#3d3c4d;stop-opacity:1;" offset="0.84375"/><stop style="stop-color:#3c3b4d;stop-opacity:1;" offset="0.851562"/><stop style="stop-color:#3c3a4c;stop-opacity:1;" offset="0.859375"/><stop style="stop-color:#3b3a4b;stop-opacity:1;" offset="0.867188"/><stop style="stop-color:#3a394b;stop-opacity:1;" offset="0.875"/><stop style="stop-color:#3a384a;stop-opacity:1;" offset="0.882812"/><stop style="stop-color:#393749;stop-opacity:1;" offset="0.890625"/><stop style="stop-color:#383749;stop-opacity:1;" offset="0.898438"/><stop style="stop-color:#373648;stop-opacity:1;" offset="0.90625"/><stop style="stop-color:#373548;stop-opacity:1;" offset="0.914062"/><stop style="stop-color:#363547;stop-opacity:1;" offset="0.921875"/><stop style="stop-color:#353446;stop-opacity:1;" offset="0.929688"/><stop style="stop-color:#353346;stop-opacity:1;" offset="0.9375"/><stop style="stop-color:#343245;stop-opacity:1;" offset="0.945312"/><stop style="stop-color:#333244;stop-opacity:1;" offset="0.953125"/><stop style="stop-color:#333144;stop-opacity:1;" offset="0.960938"/><stop style="stop-color:#323043;stop-opacity:1;" offset="0.96875"/><stop style="stop-color:#313043;stop-opacity:1;" offset="0.976562"/><stop style="stop-color:#302f42;stop-opacity:1;" offset="0.984375"/><stop style="stop-color:#302e41;stop-opacity:1;" offset="0.992188"/><stop style="stop-color:#2f2d41;stop-opacity:1;" offset="1"/></linearGradient><clipPath id="ce5e14a585"><rect x="0" width="238" y="0" height="143"/></clipPath><clipPath id="8b71f07fc2"><path d="M 202 0 L 270.992188 0 L 270.992188 95 L 202 95 Z M 202 0 "/></clipPath><clipPath id="60c8d1d623"><path d="M 286.664062 119.054688 L 178.195312 40.195312 L 246.394531 -53.617188 L 354.867188 25.242188 Z M 286.664062 119.054688 "/></clipPath><clipPath id="a4d3fccb56"><path d="M 232.554688 79.714844 C 262.441406 101.441406 301.933594 98.050781 320.765625 72.148438 C 339.601562 46.242188 330.640625 7.628906 300.757812 -14.097656 C 270.875 -35.824219 231.378906 -32.433594 212.546875 -6.527344 C 193.714844 19.378906 202.671875 57.992188 232.554688 79.714844 Z M 232.554688 79.714844 "/></clipPath><clipPath id="2ee65fbbbd"><path d="M 132 0 L 255 0 L 255 49 L 132 49 Z M 132 0 "/></clipPath><clipPath id="9498fdbea9"><path d="M 238.820312 63.007812 L 120.277344 25.933594 L 148.109375 -63.0625 L 266.65625 -25.988281 Z M 238.820312 63.007812 "/></clipPath><clipPath id="79ca9e43c7"><path d="M 179.628906 44.496094 C 212.320312 54.71875 245.050781 43.085938 252.738281 18.511719 C 260.421875 -6.0625 240.152344 -34.273438 207.460938 -44.5 C 174.769531 -54.722656 142.039062 -43.089844 134.351562 -18.515625 C 126.664062 6.058594 146.9375 34.269531 179.628906 44.496094 Z M 179.628906 44.496094 "/></clipPath><clipPath id="2d935347db"><path d="M 32 0 L 270.992188 0 L 270.992188 148 L 32 148 Z M 32 0 "/></clipPath><clipPath id="e73c83ca1c"><path d="M 52 0 L 238.992188 0 L 238.992188 100 L 52 100 Z M 52 0 "/></clipPath><clipPath id="705512d72c"><path d="M 176.542969 148.464844 L -0.203125 -209.6875 L 107.375 -262.777344 L 284.121094 95.378906 Z M 176.542969 148.464844 "/></clipPath><clipPath id="77648d6a0f"><path d="M 283.902344 95.484375 L 107.15625 -262.667969 L -0.421875 -209.578125 L 176.324219 148.574219 Z M 283.902344 95.484375 "/></clipPath><clipPath id="dc9f50c8e3"><path d="M 108.0625 -250.371094 C 112.441406 -248.351562 115.972656 -244.878906 117.546875 -240.257812 C 118.066406 -238.757812 117.773438 -237.09375 116.214844 -236.324219 C 114.929688 -235.691406 112.792969 -236.144531 112.28125 -237.660156 C 109.019531 -247.210938 96.894531 -248.289062 88.832031 -244.46875 C 78.339844 -239.5 76.199219 -226.585938 77.96875 -216.179688 C 80.542969 -201.058594 90.773438 -189.589844 97.242188 -176.113281 C 102.875 -164.378906 104.761719 -151 102.871094 -138.132812 C 102.230469 -133.824219 101.1875 -129.570312 99.773438 -125.453125 C 123.847656 -120.632812 144.949219 -104.160156 153.859375 -80.976562 C 154.191406 -80.121094 154.5 -79.25 154.800781 -78.378906 C 160.273438 -77.644531 165.617188 -76.078125 170.5625 -73.785156 C 183.632812 -67.710938 193.210938 -56.914062 199.324219 -43.984375 C 206.070312 -29.707031 208.867188 -13.976562 212.230469 1.332031 C 215.550781 16.421875 219.9375 30.9375 227.230469 44.632812 C 234.3125 57.921875 243.519531 70.042969 254.382812 80.480469 C 259.6875 85.582031 265.390625 90.207031 271.433594 94.40625 C 274.542969 96.566406 271.300781 101.46875 268.191406 99.308594 C 244.535156 82.878906 225.824219 59.4375 215.191406 32.636719 C 209.644531 18.632812 206.859375 3.90625 203.585938 -10.742188 C 200.441406 -24.84375 196.75 -39.570312 188.238281 -51.511719 C 180.882812 -61.820312 170.449219 -69.054688 158.0625 -71.851562 C 157.605469 -71.953125 157.128906 -72.042969 156.664062 -72.128906 C 159.136719 -62.34375 159.691406 -52.058594 158.09375 -42.074219 C 156.042969 -29.164062 150.734375 -14.960938 139.617188 -7.171875 C 134.164062 -3.351562 127.570312 -1.582031 121.050781 -3.511719 C 114.796875 -5.351562 109.9375 -10.316406 106.78125 -15.859375 C 100.542969 -26.851562 101.078125 -40.769531 106.222656 -52.058594 C 111.554688 -63.742188 121.171875 -72.71875 133.4375 -76.664062 C 138.246094 -78.210938 143.300781 -78.898438 148.371094 -78.847656 C 145.535156 -86.132812 141.449219 -92.90625 136.15625 -98.746094 C 128.082031 -107.640625 117.597656 -114.152344 106.171875 -117.792969 C 103.347656 -118.6875 100.476562 -119.410156 97.566406 -119.9375 C 94.914062 -114.003906 91.398438 -108.46875 87.035156 -103.605469 C 80.753906 -96.585938 68.351562 -90.652344 59.246094 -95.644531 C 54.933594 -98.007812 52.34375 -103.230469 52.90625 -108.09375 C 53.496094 -113.191406 57.085938 -117.464844 61.148438 -120.332031 C 70.554688 -126.996094 82.742188 -127.78125 93.921875 -126.421875 C 95.511719 -130.820312 96.609375 -135.398438 97.183594 -139.964844 C 98.734375 -152.246094 96.628906 -164.558594 90.949219 -175.5625 C 87.253906 -182.730469 82.566406 -189.3125 78.769531 -196.425781 C 75.917969 -201.777344 73.691406 -207.53125 72.472656 -213.480469 C 70.246094 -224.449219 71.523438 -237.65625 80.15625 -245.703125 C 87.3125 -252.328125 99.152344 -254.488281 108.0625 -250.371094 Z M 124.691406 -65.902344 C 115.417969 -59.152344 109.148438 -48.3125 108.214844 -36.847656 C 107.355469 -26.296875 111.765625 -12.132812 123.191406 -8.996094 C 135.722656 -5.5625 145.117188 -20 148.824219 -29.796875 C 153.207031 -41.390625 154.179688 -54.121094 151.949219 -66.292969 C 151.539062 -68.527344 151.015625 -70.730469 150.390625 -72.898438 C 141.339844 -73.398438 132.027344 -71.238281 124.691406 -65.902344 Z M 88.699219 -120.945312 C 83.21875 -121.214844 77.292969 -121.070312 72.027344 -119.363281 C 65.917969 -117.382812 53.839844 -109.546875 60.5625 -102.003906 C 63.226562 -99.023438 67.832031 -99.484375 71.351562 -100.476562 C 75.773438 -101.714844 79.921875 -104.429688 82.988281 -107.828125 C 86.433594 -111.652344 89.296875 -116.039062 91.546875 -120.726562 C 90.605469 -120.800781 89.65625 -120.894531 88.699219 -120.945312 Z M 88.699219 -120.945312 "/></clipPath><clipPath id="c9a84696c4"><rect x="0" width="239" y="0" height="148"/></clipPath><clipPath id="3d4febbfd5"><path d="M 140 0 L 270.992188 0 L 270.992188 105 L 140 105 Z M 140 0 "/></clipPath><clipPath id="879f3c9ca7"><path d="M 9 0 L 130.992188 0 L 130.992188 57 L 9 57 Z M 9 0 "/></clipPath><clipPath id="02cc6a27e0"><path d="M 412.691406 -58.9375 L 48.882812 105.855469 L -0.613281 -3.421875 L 363.191406 -168.214844 Z M 412.691406 -58.9375 "/></clipPath><clipPath id="9eb91d0b62"><path d="M 363.292969 -167.992188 L -0.515625 -3.199219 L 48.984375 106.078125 L 412.792969 -58.714844 Z M 363.292969 -167.992188 "/></clipPath><clipPath id="283692225c"><path d="M 11.804688 -3.699219 C 13.96875 -8.007812 17.554688 -11.421875 22.226562 -12.84375 C 23.742188 -13.3125 25.394531 -12.964844 26.113281 -11.378906 C 26.707031 -10.074219 26.183594 -7.953125 24.648438 -7.492188 C 14.992188 -4.550781 13.515625 7.535156 17.066406 15.714844 C 21.683594 26.367188 34.519531 28.9375 44.980469 27.511719 C 60.179688 25.441406 71.980469 15.59375 85.664062 9.574219 C 97.578125 4.332031 111.011719 2.890625 123.808594 5.207031 C 128.097656 5.988281 132.3125 7.175781 136.378906 8.722656 C 141.996094 -15.179688 159.15625 -35.722656 182.621094 -43.863281 C 183.492188 -44.164062 184.367188 -44.445312 185.253906 -44.71875 C 186.164062 -50.160156 187.910156 -55.453125 190.363281 -60.316406 C 196.863281 -73.183594 207.976562 -82.394531 221.097656 -88.078125 C 235.59375 -94.347656 251.40625 -96.625 266.816406 -99.476562 C 282.011719 -102.296875 296.664062 -106.199219 310.589844 -113.035156 C 324.105469 -119.675781 336.527344 -128.472656 347.320312 -138.984375 C 352.59375 -144.121094 357.40625 -149.667969 361.800781 -155.566406 C 364.0625 -158.605469 368.855469 -155.203125 366.59375 -152.164062 C 349.390625 -129.0625 325.339844 -111.140625 298.203125 -101.402344 C 284.023438 -96.320312 269.210938 -94.023438 254.464844 -91.238281 C 240.265625 -88.558594 225.425781 -85.359375 213.210938 -77.246094 C 202.664062 -70.234375 195.089844 -60.046875 191.882812 -47.761719 C 191.765625 -47.308594 191.660156 -46.832031 191.558594 -46.375 C 201.417969 -48.519531 211.71875 -48.734375 221.644531 -46.808594 C 234.480469 -44.328125 248.496094 -38.554688 255.917969 -27.183594 C 259.550781 -21.609375 261.105469 -14.960938 258.960938 -8.507812 C 256.914062 -2.316406 251.792969 2.375 246.144531 5.34375 C 234.953125 11.214844 221.0625 10.21875 209.945312 4.703125 C 198.445312 -1.011719 189.792969 -10.917969 186.253906 -23.308594 C 184.871094 -28.164062 184.347656 -33.242188 184.570312 -38.308594 C 177.191406 -35.714844 170.289062 -31.851562 164.277344 -26.757812 C 155.121094 -18.984375 148.261719 -8.71875 144.25 2.578125 C 143.257812 5.375 142.445312 8.21875 141.820312 11.109375 C 147.660156 13.957031 153.078125 17.65625 157.792969 22.175781 C 164.601562 28.6875 170.125 41.277344 164.832031 50.210938 C 162.324219 54.445312 157.023438 56.859375 152.179688 56.136719 C 147.105469 55.378906 142.953125 51.652344 140.21875 47.496094 C 133.871094 37.871094 133.488281 25.664062 135.21875 14.535156 C 130.875 12.804688 126.335938 11.554688 121.789062 10.828125 C 109.566406 8.871094 97.191406 10.570312 86.003906 15.882812 C 78.722656 19.335938 71.988281 23.804688 64.753906 27.367188 C 59.308594 30.039062 53.484375 32.070312 47.496094 33.09375 C 36.460938 34.957031 23.304688 33.242188 15.546875 24.347656 C 9.164062 16.972656 7.394531 5.070312 11.804688 -3.699219 Z M 196.722656 -14.210938 C 203.164062 -4.722656 213.789062 1.90625 225.214844 3.21875 C 235.734375 4.425781 250.035156 0.488281 253.550781 -10.828125 C 257.394531 -23.238281 243.277344 -33.105469 233.609375 -37.136719 C 222.167969 -41.898438 209.472656 -43.292969 197.238281 -41.464844 C 194.988281 -41.132812 192.769531 -40.679688 190.582031 -40.128906 C 189.78125 -31.097656 191.632812 -21.722656 196.722656 -14.210938 Z M 140.519531 19.941406 C 140.066406 25.40625 140.019531 31.335938 141.550781 36.652344 C 143.328125 42.824219 150.757812 55.15625 158.519531 48.6875 C 161.585938 46.125 161.277344 41.503906 160.402344 37.953125 C 159.3125 33.496094 156.734375 29.257812 153.4375 26.082031 C 149.730469 22.511719 145.441406 19.503906 140.832031 17.101562 C 140.726562 18.039062 140.601562 18.984375 140.519531 19.941406 Z M 140.519531 19.941406 "/></clipPath><linearGradient x1="237.321811" gradientTransform="matrix(-1.070217,0.484773,0.484773,1.070217,361.581614,-166.701563)" y1="50.450001" x2="353.117679" gradientUnits="userSpaceOnUse" y2="50.450001" id="b79c57f179"><stop style="stop-color:#434253;stop-opacity:1;" offset="0"/><stop style="stop-color:#434252;stop-opacity:1;" offset="0.015625"/><stop style="stop-color:#424152;stop-opacity:1;" offset="0.03125"/><stop style="stop-color:#424051;stop-opacity:1;" offset="0.046875"/><stop style="stop-color:#414051;stop-opacity:1;" offset="0.0625"/><stop style="stop-color:#403f50;stop-opacity:1;" offset="0.078125"/><stop style="stop-color:#403e4f;stop-opacity:1;" offset="0.09375"/><stop style="stop-color:#3f3e4f;stop-opacity:1;" offset="0.109375"/><stop style="stop-color:#3e3d4e;stop-opacity:1;" offset="0.125"/><stop style="stop-color:#3e3c4e;stop-opacity:1;" offset="0.140625"/><stop style="stop-color:#3d3c4d;stop-opacity:1;" offset="0.15625"/><stop style="stop-color:#3c3b4d;stop-opacity:1;" offset="0.171875"/><stop style="stop-color:#3c3a4c;stop-opacity:1;" offset="0.1875"/><stop style="stop-color:#3b3a4b;stop-opacity:1;" offset="0.203125"/><stop style="stop-color:#3a394b;stop-opacity:1;" offset="0.21875"/><stop style="stop-color:#3a384a;stop-opacity:1;" offset="0.234375"/><stop style="stop-color:#39384a;stop-opacity:1;" offset="0.25"/><stop style="stop-color:#383749;stop-opacity:1;" offset="0.265625"/><stop style="stop-color:#383648;stop-opacity:1;" offset="0.28125"/><stop style="stop-color:#373648;stop-opacity:1;" offset="0.296875"/><stop style="stop-color:#363547;stop-opacity:1;" offset="0.3125"/><stop style="stop-color:#363447;stop-opacity:1;" offset="0.328125"/><stop style="stop-color:#353346;stop-opacity:1;" offset="0.34375"/><stop style="stop-color:#343345;stop-opacity:1;" offset="0.359375"/><stop style="stop-color:#343245;stop-opacity:1;" offset="0.375"/><stop style="stop-color:#333144;stop-opacity:1;" offset="0.390625"/><stop style="stop-color:#323144;stop-opacity:1;" offset="0.40625"/><stop style="stop-color:#323043;stop-opacity:1;" offset="0.421875"/><stop style="stop-color:#312f42;stop-opacity:1;" offset="0.4375"/><stop style="stop-color:#302f42;stop-opacity:1;" offset="0.453125"/><stop style="stop-color:#302e41;stop-opacity:1;" offset="0.46875"/><stop style="stop-color:#2f2d41;stop-opacity:1;" offset="0.484375"/><stop style="stop-color:#2e2d40;stop-opacity:1;" offset="0.5"/><stop style="stop-color:#2e2c3f;stop-opacity:1;" offset="0.515625"/><stop style="stop-color:#2d2b3f;stop-opacity:1;" offset="0.53125"/><stop style="stop-color:#2c2b3e;stop-opacity:1;" offset="0.546875"/><stop style="stop-color:#2c2a3e;stop-opacity:1;" offset="0.5625"/><stop style="stop-color:#2b293d;stop-opacity:1;" offset="0.578125"/><stop style="stop-color:#2a293d;stop-opacity:1;" offset="0.59375"/><stop style="stop-color:#2a283c;stop-opacity:1;" offset="0.609375"/><stop style="stop-color:#29273b;stop-opacity:1;" offset="0.625"/><stop style="stop-color:#28273b;stop-opacity:1;" offset="0.640625"/><stop style="stop-color:#28263a;stop-opacity:1;" offset="0.65625"/><stop style="stop-color:#27253a;stop-opacity:1;" offset="0.671875"/><stop style="stop-color:#262539;stop-opacity:1;" offset="0.6875"/><stop style="stop-color:#262438;stop-opacity:1;" offset="0.703125"/><stop style="stop-color:#252338;stop-opacity:1;" offset="0.71875"/><stop style="stop-color:#252337;stop-opacity:1;" offset="0.734375"/><stop style="stop-color:#242237;stop-opacity:1;" offset="0.75"/><stop style="stop-color:#232136;stop-opacity:1;" offset="0.765625"/><stop style="stop-color:#232135;stop-opacity:1;" offset="0.78125"/><stop style="stop-color:#222035;stop-opacity:1;" offset="0.796875"/><stop style="stop-color:#211f34;stop-opacity:1;" offset="0.8125"/><stop style="stop-color:#211f34;stop-opacity:1;" offset="0.828125"/><stop style="stop-color:#201e33;stop-opacity:1;" offset="0.84375"/><stop style="stop-color:#201e33;stop-opacity:1;" offset="0.875"/><stop style="stop-color:#201e33;stop-opacity:1;" offset="1"/></linearGradient><clipPath id="fcb2e86af1"><rect x="0" width="131" y="0" height="105"/></clipPath><clipPath id="156990946d"><path d="M 0.511719 0 L 167 0 L 167 125 L 0.511719 125 Z M 0.511719 0 "/></clipPath><clipPath id="582d83f7ae"><path d="M 0.511719 0 L 146 0 L 146 102 L 0.511719 102 Z M 0.511719 0 "/></clipPath><clipPath id="71825afe35"><path d="M 167.621094 47.199219 L -103.957031 124.648438 L -127.253906 42.960938 L 144.324219 -34.488281 Z M 167.621094 47.199219 "/></clipPath><clipPath id="f5e9af4d1a"><path d="M 144.390625 -34.253906 L -127.1875 43.199219 L -103.890625 124.886719 L 167.6875 47.433594 Z M 144.390625 -34.253906 "/></clipPath><clipPath id="69ed34f023"><path d="M -118.667969 44.175781 C -116.707031 41.386719 -113.84375 39.367188 -110.425781 38.859375 C -109.316406 38.6875 -108.195312 39.105469 -107.859375 40.289062 C -107.582031 41.261719 -108.167969 42.691406 -109.289062 42.855469 C -116.351562 43.910156 -118.640625 52.214844 -117.007812 58.308594 C -114.882812 66.242188 -106.167969 69.375 -98.699219 69.464844 C -87.847656 69.59375 -78.566406 63.929688 -68.367188 61.144531 C -59.480469 58.714844 -49.933594 59.101562 -41.214844 62.054688 C -38.296875 63.042969 -35.472656 64.3125 -32.785156 65.820312 C -26.371094 49.675781 -12.222656 37.085938 5.042969 33.828125 C 5.679688 33.707031 6.324219 33.601562 6.972656 33.503906 C 8.175781 29.789062 9.949219 26.269531 12.167969 23.117188 C 18.058594 14.792969 26.792969 9.5 36.566406 6.886719 C 47.359375 4.007812 58.664062 4.058594 69.746094 3.664062 C 80.671875 3.273438 91.328125 2.066406 101.789062 -1.273438 C 111.9375 -4.511719 121.542969 -9.378906 130.1875 -15.613281 C 134.410156 -18.65625 138.355469 -22.039062 142.046875 -25.710938 C 143.945312 -27.601562 146.945312 -24.722656 145.046875 -22.832031 C 130.605469 -8.453125 111.914062 1.589844 91.910156 5.582031 C 81.457031 7.664062 70.851562 7.730469 60.246094 8.148438 C 50.027344 8.542969 39.3125 9.242188 29.917969 13.648438 C 21.808594 17.457031 15.449219 23.800781 11.929688 32.066406 C 11.800781 32.371094 11.675781 32.691406 11.554688 33 C 18.679688 32.523438 25.910156 33.445312 32.65625 35.824219 C 41.378906 38.894531 50.589844 44.394531 54.601562 53.121094 C 56.5625 57.402344 56.960938 62.214844 54.789062 66.507812 C 52.710938 70.625 48.640625 73.378906 44.378906 74.871094 C 35.9375 77.8125 26.320312 75.671875 19.113281 70.65625 C 11.660156 65.460938 6.632812 57.628906 5.449219 48.589844 C 4.984375 45.046875 5.148438 41.441406 5.828125 37.917969 C 0.394531 38.964844 -4.835938 40.953125 -9.574219 43.894531 C -16.789062 48.378906 -22.65625 54.851562 -26.640625 62.339844 C -27.625 64.191406 -28.488281 66.097656 -29.226562 68.054688 C -25.433594 70.65625 -22.027344 73.808594 -19.199219 77.460938 C -15.113281 82.726562 -12.558594 92.109375 -17.1875 97.8125 C -19.382812 100.511719 -23.34375 101.652344 -26.65625 100.644531 C -30.132812 99.585938 -32.652344 96.542969 -34.128906 93.351562 C -37.570312 85.957031 -36.570312 77.375 -34.203125 69.769531 C -37.0625 68.101562 -40.109375 66.757812 -43.214844 65.777344 C -51.5625 63.136719 -60.402344 63.039062 -68.78125 65.59375 C -74.238281 67.253906 -79.414062 69.679688 -84.847656 71.417969 C -88.9375 72.722656 -93.222656 73.539062 -97.519531 73.632812 C -105.433594 73.789062 -114.464844 71.222656 -118.96875 64.191406 C -122.667969 58.367188 -122.667969 49.851562 -118.667969 44.175781 Z M 11.828125 56.042969 C 15.347656 63.355469 22.09375 69.097656 29.953125 71.203125 C 37.1875 73.144531 47.605469 71.875 51.242188 64.320312 C 55.222656 56.039062 46.371094 47.664062 40.023438 43.835938 C 32.511719 39.316406 23.773438 37.019531 15.019531 37.027344 C 13.414062 37.027344 11.8125 37.109375 10.222656 37.269531 C 8.726562 43.503906 9.046875 50.261719 11.828125 56.042969 Z M -31.054688 74.101562 C -31.941406 77.878906 -32.589844 82.023438 -32.070312 85.902344 C -31.46875 90.40625 -27.554688 99.808594 -21.449219 96.089844 C -19.035156 94.613281 -18.773438 91.351562 -19.015625 88.773438 C -19.3125 85.539062 -20.675781 82.308594 -22.652344 79.742188 C -24.875 76.859375 -27.566406 74.304688 -30.542969 72.148438 C -30.710938 72.792969 -30.898438 73.441406 -31.054688 74.101562 Z M -31.054688 74.101562 "/></clipPath><linearGradient x1="6.556602" gradientTransform="matrix(-0.799339,0.227962,0.227962,0.799339,143.050219,-33.524869)" y1="50.450001" x2="209.509327" gradientUnits="userSpaceOnUse" y2="50.450001" id="4e342d8138"><stop style="stop-color:#5c5b69;stop-opacity:1;" offset="0"/><stop style="stop-color:#5c5b69;stop-opacity:1;" offset="0.5"/><stop style="stop-color:#5c5b69;stop-opacity:1;" offset="0.75"/><stop style="stop-color:#5c5b69;stop-opacity:1;" offset="0.8125"/><stop style="stop-color:#5b5a68;stop-opacity:1;" offset="0.820313"/><stop style="stop-color:#5a5968;stop-opacity:1;" offset="0.828125"/><stop style="stop-color:#5a5967;stop-opacity:1;" offset="0.835938"/><stop style="stop-color:#595867;stop-opacity:1;" offset="0.84375"/><stop style="stop-color:#595866;stop-opacity:1;" offset="0.851562"/><stop style="stop-color:#585765;stop-opacity:1;" offset="0.859375"/><stop style="stop-color:#575665;stop-opacity:1;" offset="0.867187"/><stop style="stop-color:#575664;stop-opacity:1;" offset="0.875"/><stop style="stop-color:#565564;stop-opacity:1;" offset="0.882813"/><stop style="stop-color:#565563;stop-opacity:1;" offset="0.890625"/><stop style="stop-color:#555463;stop-opacity:1;" offset="0.898438"/><stop style="stop-color:#555362;stop-opacity:1;" offset="0.90625"/><stop style="stop-color:#545362;stop-opacity:1;" offset="0.914062"/><stop style="stop-color:#535261;stop-opacity:1;" offset="0.921875"/><stop style="stop-color:#535261;stop-opacity:1;" offset="0.929688"/><stop style="stop-color:#525160;stop-opacity:1;" offset="0.9375"/><stop style="stop-color:#525160;stop-opacity:1;" offset="0.945312"/><stop style="stop-color:#51505f;stop-opacity:1;" offset="0.953125"/><stop style="stop-color:#514f5f;stop-opacity:1;" offset="0.960937"/><stop style="stop-color:#504f5e;stop-opacity:1;" offset="0.96875"/><stop style="stop-color:#4f4e5e;stop-opacity:1;" offset="0.976563"/><stop style="stop-color:#4f4e5d;stop-opacity:1;" offset="0.984375"/><stop style="stop-color:#4e4d5d;stop-opacity:1;" offset="0.992188"/><stop style="stop-color:#4e4c5c;stop-opacity:1;" offset="1"/></linearGradient><clipPath id="a0a3ce6e0b"><rect x="0" width="167" y="0" height="125"/></clipPath><clipPath id="e2a6cd56ac"><path d="M 0.511719 0 L 188 0 L 188 152.007812 L 0.511719 152.007812 Z M 0.511719 0 "/></clipPath><clipPath id="8695eb15d9"><path d="M 0.511719 0 L 56 0 L 56 152.007812 L 0.511719 152.007812 Z M 0.511719 0 "/></clipPath><clipPath id="4bb2f25f02"><path d="M 188.902344 76.285156 L -226.078125 576.257812 L -376.296875 451.574219 L 38.679688 -48.398438 Z M 188.902344 76.285156 "/></clipPath><clipPath id="4156b53ba3"><path d="M 38.957031 -48.167969 L -376.019531 451.804688 L -225.800781 576.488281 L 189.179688 76.515625 Z M 38.957031 -48.167969 "/></clipPath><clipPath id="f80e05a50e"><path d="M -358.550781 442.554688 C -358.453125 434.710938 -355.636719 427.15625 -349.808594 421.753906 C -347.921875 419.988281 -345.253906 419.320312 -343.078125 421.128906 C -341.28125 422.617188 -340.539062 426.09375 -342.453125 427.859375 C -354.492188 439.039062 -348.050781 457.78125 -337.03125 467.226562 C -322.6875 479.527344 -302.070312 474.152344 -287.773438 464.621094 C -267.003906 450.769531 -256.738281 427.949219 -240.996094 409.402344 C -227.289062 393.246094 -208.65625 381.574219 -188.273438 375.851562 C -181.441406 373.941406 -174.429688 372.679688 -167.371094 372.050781 C -176.167969 333.0625 -165.675781 290.777344 -137.125 262.160156 C -136.070312 261.097656 -134.984375 260.058594 -133.886719 259.035156 C -136.425781 250.414062 -137.640625 241.429688 -137.511719 232.5625 C -137.152344 209.105469 -127.445312 187.710938 -112.289062 170.046875 C -95.535156 150.550781 -74.007812 135.960938 -53.484375 120.816406 C -33.25 105.871094 -14.585938 89.730469 0.933594 69.804688 C 15.988281 50.464844 27.90625 28.746094 36.21875 5.675781 C 40.277344 -5.59375 43.375 -17.140625 45.609375 -28.90625 C 46.757812 -34.960938 56.191406 -33.390625 55.042969 -27.335938 C 46.3125 18.722656 23.871094 62.078125 -8.914062 95.652344 C -26.054688 113.1875 -46.097656 127.09375 -65.695312 141.667969 C -84.574219 155.699219 -104.015625 170.949219 -116.121094 191.519531 C -126.570312 209.289062 -130.398438 229.59375 -126.34375 249.859375 C -126.195312 250.605469 -126.015625 251.378906 -125.835938 252.121094 C -112.929688 241.960938 -98.007812 234.3125 -82.105469 230.066406 C -61.554688 224.558594 -36.925781 223.03125 -17.972656 234.386719 C -8.683594 239.960938 -1.675781 248.585938 -0.21875 259.558594 C 1.191406 270.074219 -2.964844 280.59375 -9.113281 288.957031 C -21.320312 305.519531 -42.359375 313.953125 -62.554688 313.789062 C -83.457031 313.613281 -103.175781 305.273438 -117.175781 289.652344 C -122.660156 283.535156 -127.035156 276.472656 -130.320312 268.902344 C -139.269531 277.949219 -146.628906 288.519531 -151.796875 300.257812 C -159.667969 318.152344 -162.394531 338.058594 -160.226562 357.453125 C -159.6875 362.25 -158.851562 366.992188 -157.710938 371.667969 C -147.132812 371.675781 -136.570312 373.234375 -126.449219 376.492188 C -111.851562 381.179688 -94.804688 395.675781 -96.1875 412.519531 C -96.84375 420.496094 -102.886719 427.808594 -110.488281 430.199219 C -118.457031 432.703125 -127.191406 430.203125 -134.148438 426.066406 C -150.289062 416.5 -159.542969 398.902344 -164.929688 381.382812 C -172.523438 381.9375 -180.054688 383.34375 -187.226562 385.519531 C -206.511719 391.355469 -223.414062 402.652344 -236.007812 418.390625 C -244.207031 428.632812 -250.882812 439.96875 -258.9375 450.332031 C -265.003906 458.117188 -272.082031 465.242188 -280.117188 471 C -294.941406 481.582031 -315.421875 488.441406 -333.105469 480.945312 C -347.703125 474.695312 -358.765625 458.53125 -358.550781 442.554688 Z M -95.378906 295.519531 C -79.195312 304.824219 -58.925781 306.960938 -41.265625 300.746094 C -25.011719 295.023438 -6.882812 279.082031 -9.792969 260.015625 C -12.996094 239.113281 -40.6875 234.71875 -57.707031 235.703125 C -77.847656 236.878906 -97.417969 243.871094 -114.027344 255.261719 C -117.078125 257.351562 -120.007812 259.59375 -122.816406 261.957031 C -117.558594 275.742188 -108.175781 288.152344 -95.378906 295.519531 Z M -153.328125 385.519531 C -150.097656 393.84375 -145.949219 402.558594 -139.921875 409.25 C -132.925781 417.019531 -113.269531 429.777344 -106.515625 414.78125 C -103.847656 408.84375 -107.59375 402.308594 -111.398438 397.730469 C -116.171875 391.980469 -122.960938 387.617188 -130.042969 385.3125 C -138.011719 382.726562 -146.433594 381.375 -154.890625 381.144531 C -154.375 382.589844 -153.886719 384.066406 -153.328125 385.519531 Z M -153.328125 385.519531 "/></clipPath><clipPath id="42180d01b5"><rect x="0" width="188" y="0" height="153"/></clipPath><clipPath id="f82ebcc501"><path d="M 0.511719 35 L 270.992188 35 L 270.992188 152.007812 L 0.511719 152.007812 Z M 0.511719 35 "/></clipPath><clipPath id="6f6b548dcd"><path d="M 0.511719 87 L 270.992188 87 L 270.992188 117.007812 L 0.511719 117.007812 Z M 0.511719 87 "/></clipPath><clipPath id="9deec14554"><path d="M -222.703125 511.804688 L 175.511719 -1.621094 L 329.773438 118.027344 L -68.441406 631.453125 Z M -222.703125 511.804688 "/></clipPath><clipPath id="7d511cf541"><path d="M -68.726562 631.230469 L 329.488281 117.804688 L 175.226562 -1.839844 L -222.988281 511.585938 Z M -68.726562 631.230469 "/></clipPath><clipPath id="32ca899577"><path d="M 312.335938 127.628906 C 312.492188 135.472656 309.929688 143.117188 304.285156 148.710938 C 302.457031 150.535156 299.8125 151.292969 297.578125 149.558594 C 295.734375 148.128906 294.875 144.679688 296.730469 142.847656 C 308.394531 131.277344 301.335938 112.757812 290.007812 103.683594 C 275.265625 91.863281 254.839844 97.917969 240.863281 107.917969 C 220.566406 122.449219 211.0625 145.59375 195.941406 164.652344 C 182.773438 181.253906 164.535156 193.535156 144.355469 199.929688 C 137.59375 202.066406 130.625 203.558594 123.59375 204.417969 C 133.671875 243.09375 124.582031 285.703125 96.996094 315.25 C 95.976562 316.347656 94.925781 317.417969 93.863281 318.480469 C 96.683594 327.011719 98.195312 335.953125 98.363281 344.816406 C 98.777344 368.277344 89.785156 389.980469 75.21875 408.132812 C 59.121094 428.171875 38.089844 443.464844 18.074219 459.285156 C -1.648438 474.890625 -19.773438 491.640625 -34.625 512.066406 C -49.03125 531.890625 -60.222656 553.996094 -67.769531 577.328125 C -71.453125 588.726562 -74.167969 600.367188 -76.011719 612.199219 C -76.957031 618.289062 -86.4375 617.035156 -85.492188 610.945312 C -78.289062 564.621094 -57.292969 520.546875 -25.636719 485.90625 C -9.085938 467.8125 10.484375 453.25 29.59375 438.039062 C 47.996094 423.390625 66.921875 407.507812 78.339844 386.546875 C 88.195312 368.441406 91.351562 348.019531 86.628906 327.898438 C 86.453125 327.160156 86.246094 326.394531 86.046875 325.65625 C 73.480469 336.238281 58.820312 344.375 43.070312 349.148438 C 22.710938 355.332031 -1.851562 357.671875 -21.171875 346.949219 C -30.640625 341.683594 -37.929688 333.296875 -39.746094 322.378906 C -41.503906 311.914062 -37.699219 301.265625 -31.832031 292.699219 C -20.179688 275.746094 0.570312 266.621094 20.757812 266.113281 C 41.65625 265.597656 61.640625 273.28125 76.148438 288.429688 C 81.832031 294.363281 86.441406 301.277344 89.972656 308.738281 C 98.617188 299.398438 105.621094 288.589844 110.402344 276.6875 C 117.675781 258.539062 119.742188 238.558594 116.933594 219.246094 C 116.234375 214.46875 115.246094 209.753906 113.949219 205.121094 C 103.375 205.460938 92.769531 204.253906 82.546875 201.335938 C 67.800781 197.132812 50.285156 183.207031 51.109375 166.328125 C 51.5 158.332031 57.300781 150.824219 64.816406 148.183594 C 72.699219 145.417969 81.511719 147.628906 88.601562 151.53125 C 105.046875 160.558594 114.878906 177.839844 120.84375 195.171875 C 128.414062 194.363281 135.890625 192.710938 142.988281 190.300781 C 162.070312 183.828125 178.589844 171.980469 190.65625 155.832031 C 198.515625 145.324219 204.8125 133.777344 212.519531 123.152344 C 218.324219 115.167969 225.164062 107.816406 233.003906 101.796875 C 247.46875 90.726562 267.710938 83.195312 285.632812 90.101562 C 300.429688 95.863281 312.019531 111.65625 312.335938 127.628906 Z M 54.167969 283.289062 C 37.6875 274.523438 17.355469 273.058594 -0.0898438 279.855469 C -16.144531 286.109375 -33.734375 302.644531 -30.195312 321.605469 C -26.300781 342.390625 1.519531 345.867188 18.5 344.320312 C 38.585938 342.476562 57.917969 334.839844 74.140625 322.910156 C 77.121094 320.71875 79.972656 318.382812 82.703125 315.925781 C 76.992188 302.324219 67.203125 290.230469 54.167969 283.289062 Z M 109.109375 191.421875 C 105.605469 183.210938 101.171875 174.636719 94.925781 168.148438 C 87.675781 160.613281 67.609375 148.511719 61.355469 163.722656 C 58.886719 169.746094 62.84375 176.15625 66.800781 180.605469 C 71.757812 186.191406 78.6875 190.332031 85.847656 192.398438 C 93.894531 194.71875 102.359375 195.789062 110.816406 195.746094 C 110.253906 194.316406 109.714844 192.859375 109.109375 191.421875 Z M 109.109375 191.421875 "/></clipPath><linearGradient x1="232.884173" gradientTransform="matrix(1.171986,-1.511069,-1.511069,-1.171986,-67.231965,628.05887)" y1="50.450001" x2="333.542088" gradientUnits="userSpaceOnUse" y2="50.450001" id="4b524ecfdf"><stop style="stop-color:#454454;stop-opacity:1;" offset="0"/><stop style="stop-color:#454354;stop-opacity:1;" offset="0.015625"/><stop style="stop-color:#444353;stop-opacity:1;" offset="0.03125"/><stop style="stop-color:#434253;stop-opacity:1;" offset="0.046875"/><stop style="stop-color:#434152;stop-opacity:1;" offset="0.0625"/><stop style="stop-color:#424152;stop-opacity:1;" offset="0.078125"/><stop style="stop-color:#424051;stop-opacity:1;" offset="0.09375"/><stop style="stop-color:#414051;stop-opacity:1;" offset="0.109375"/><stop style="stop-color:#413f50;stop-opacity:1;" offset="0.125"/><stop style="stop-color:#403f50;stop-opacity:1;" offset="0.140625"/><stop style="stop-color:#3f3e4f;stop-opacity:1;" offset="0.15625"/><stop style="stop-color:#3f3d4f;stop-opacity:1;" offset="0.171875"/><stop style="stop-color:#3e3d4e;stop-opacity:1;" offset="0.1875"/><stop style="stop-color:#3e3c4e;stop-opacity:1;" offset="0.203125"/><stop style="stop-color:#3d3c4d;stop-opacity:1;" offset="0.21875"/><stop style="stop-color:#3d3b4d;stop-opacity:1;" offset="0.234375"/><stop style="stop-color:#3c3b4c;stop-opacity:1;" offset="0.25"/><stop style="stop-color:#3b3a4c;stop-opacity:1;" offset="0.265625"/><stop style="stop-color:#3b394b;stop-opacity:1;" offset="0.28125"/><stop style="stop-color:#3a394b;stop-opacity:1;" offset="0.296875"/><stop style="stop-color:#3a384a;stop-opacity:1;" offset="0.3125"/><stop style="stop-color:#39384a;stop-opacity:1;" offset="0.328125"/><stop style="stop-color:#383749;stop-opacity:1;" offset="0.34375"/><stop style="stop-color:#383649;stop-opacity:1;" offset="0.359375"/><stop style="stop-color:#373648;stop-opacity:1;" offset="0.375"/><stop style="stop-color:#373548;stop-opacity:1;" offset="0.390625"/><stop style="stop-color:#363547;stop-opacity:1;" offset="0.40625"/><stop style="stop-color:#363447;stop-opacity:1;" offset="0.421875"/><stop style="stop-color:#353446;stop-opacity:1;" offset="0.4375"/><stop style="stop-color:#343346;stop-opacity:1;" offset="0.453125"/><stop style="stop-color:#343245;stop-opacity:1;" offset="0.46875"/><stop style="stop-color:#333244;stop-opacity:1;" offset="0.484375"/><stop style="stop-color:#333144;stop-opacity:1;" offset="0.5"/><stop style="stop-color:#323143;stop-opacity:1;" offset="0.515625"/><stop style="stop-color:#323043;stop-opacity:1;" offset="0.53125"/><stop style="stop-color:#312f42;stop-opacity:1;" offset="0.546875"/><stop style="stop-color:#302f42;stop-opacity:1;" offset="0.5625"/><stop style="stop-color:#302e41;stop-opacity:1;" offset="0.578125"/><stop style="stop-color:#2f2e41;stop-opacity:1;" offset="0.59375"/><stop style="stop-color:#2f2d40;stop-opacity:1;" offset="0.609375"/><stop style="stop-color:#2e2d40;stop-opacity:1;" offset="0.625"/><stop style="stop-color:#2e2c3f;stop-opacity:1;" offset="0.640625"/><stop style="stop-color:#2d2b3f;stop-opacity:1;" offset="0.65625"/><stop style="stop-color:#2c2b3e;stop-opacity:1;" offset="0.671875"/><stop style="stop-color:#2c2a3e;stop-opacity:1;" offset="0.6875"/><stop style="stop-color:#2b2a3d;stop-opacity:1;" offset="0.703125"/><stop style="stop-color:#2b293d;stop-opacity:1;" offset="0.71875"/><stop style="stop-color:#2a283c;stop-opacity:1;" offset="0.734375"/><stop style="stop-color:#2a283c;stop-opacity:1;" offset="0.75"/><stop style="stop-color:#29273b;stop-opacity:1;" offset="0.765625"/><stop style="stop-color:#28273b;stop-opacity:1;" offset="0.78125"/><stop style="stop-color:#28263a;stop-opacity:1;" offset="0.796875"/><stop style="stop-color:#27263a;stop-opacity:1;" offset="0.8125"/><stop style="stop-color:#272539;stop-opacity:1;" offset="0.828125"/><stop style="stop-color:#262439;stop-opacity:1;" offset="0.84375"/><stop style="stop-color:#262438;stop-opacity:1;" offset="0.859375"/><stop style="stop-color:#252338;stop-opacity:1;" offset="0.875"/><stop style="stop-color:#242337;stop-opacity:1;" offset="0.890625"/><stop style="stop-color:#242237;stop-opacity:1;" offset="0.90625"/><stop style="stop-color:#232236;stop-opacity:1;" offset="0.921875"/><stop style="stop-color:#232136;stop-opacity:1;" offset="0.9375"/><stop style="stop-color:#222035;stop-opacity:1;" offset="0.953125"/><stop style="stop-color:#222034;stop-opacity:1;" offset="0.96875"/><stop style="stop-color:#211f34;stop-opacity:1;" offset="0.984375"/><stop style="stop-color:#201f33;stop-opacity:1;" offset="1"/></linearGradient><clipPath id="d0f76dcc26"><rect x="0" width="271" y="0" height="118"/></clipPath><clipPath id="4940c9f023"><path d="M 66 67 L 270.992188 67 L 270.992188 152.007812 L 66 152.007812 Z M 66 67 "/></clipPath><clipPath id="02a940ee5a"><path d="M 61 30 L 204.992188 30 L 204.992188 85.007812 L 61 85.007812 Z M 61 30 "/></clipPath><clipPath id="3d17e9a8cc"><path d="M -0.648438 304.945312 L 125.511719 -0.0898438 L 217.089844 37.789062 L 90.929688 342.820312 Z M -0.648438 304.945312 "/></clipPath><clipPath id="0bcffbfd49"><path d="M 90.8125 342.773438 L 216.972656 37.738281 L 125.394531 -0.136719 L -0.765625 304.894531 Z M 90.8125 342.773438 "/></clipPath><clipPath id="c416d7b505"><path d="M 209.859375 44.917969 C 210.992188 48.742188 210.761719 52.828125 208.75 56.324219 C 208.097656 57.464844 206.90625 58.191406 205.578125 57.640625 C 204.480469 57.1875 203.597656 55.613281 204.261719 54.46875 C 208.421875 47.234375 202.476562 39.113281 195.710938 36.1875 C 186.902344 32.375 177.707031 38.085938 172.203125 44.859375 C 164.214844 54.703125 162.664062 67.316406 157.816406 78.679688 C 153.597656 88.582031 146.3125 97.046875 137.285156 102.886719 C 134.257812 104.84375 131.046875 106.507812 127.714844 107.875 C 137.847656 125.464844 139.113281 147.558594 129.566406 165.738281 C 129.214844 166.410156 128.84375 167.078125 128.464844 167.738281 C 130.992188 171.539062 132.933594 175.714844 134.207031 180.035156 C 137.558594 191.472656 136.070312 203.3125 131.371094 214.160156 C 126.175781 226.136719 117.925781 236.453125 110.246094 246.886719 C 102.679688 257.179688 96.050781 267.820312 91.519531 279.820312 C 87.121094 291.464844 84.609375 303.792969 84.042969 316.238281 C 83.769531 322.316406 84.003906 328.382812 84.6875 334.425781 C 85.042969 337.535156 80.230469 338.195312 79.875 335.082031 C 77.183594 311.425781 81.550781 287.015625 92.410156 265.796875 C 98.085938 254.714844 105.71875 244.953125 113.035156 234.933594 C 120.082031 225.289062 127.222656 214.964844 130 203.164062 C 132.398438 192.972656 131.203125 182.546875 126.1875 173.324219 C 126.003906 172.984375 125.796875 172.640625 125.601562 172.304688 C 120.867188 179.175781 114.777344 185.128906 107.703125 189.582031 C 98.558594 195.34375 86.84375 199.789062 75.9375 197.128906 C 70.59375 195.824219 65.898438 192.691406 63.539062 187.585938 C 61.273438 182.699219 61.710938 176.96875 63.433594 171.988281 C 66.863281 162.117188 75.804688 154.863281 85.625 151.902344 C 95.792969 148.84375 106.613281 149.925781 115.753906 155.398438 C 119.335938 157.542969 122.519531 160.308594 125.253906 163.488281 C 128.234375 157.753906 130.214844 151.519531 130.957031 145.046875 C 132.082031 135.179688 130.414062 125.113281 126.445312 116.03125 C 125.460938 113.785156 124.34375 111.609375 123.085938 109.511719 C 117.953125 111.101562 112.59375 111.933594 107.195312 111.875 C 99.40625 111.796875 88.957031 107.328125 87.09375 98.949219 C 86.214844 94.976562 88.046875 90.523438 91.375 88.21875 C 94.863281 85.804688 99.476562 85.707031 103.472656 86.664062 C 112.742188 88.878906 119.878906 96.023438 125.128906 103.714844 C 128.726562 102.304688 132.167969 100.488281 135.320312 98.355469 C 143.800781 92.621094 150.300781 84.601562 154.042969 75.070312 C 156.484375 68.871094 158.015625 62.367188 160.363281 56.128906 C 162.136719 51.4375 164.5 46.917969 167.53125 42.914062 C 173.132812 35.550781 182.035156 29.144531 191.742188 30.121094 C 199.765625 30.957031 207.5625 37.136719 209.859375 44.917969 Z M 104.296875 155.832031 C 95.046875 153.75 84.890625 155.761719 77.257812 161.433594 C 70.234375 166.652344 63.835938 177.113281 68.117188 185.925781 C 72.816406 195.585938 86.910156 193.550781 95.019531 190.515625 C 104.609375 186.914062 113.054688 180.578125 119.398438 172.558594 C 120.566406 171.085938 121.648438 169.554688 122.65625 167.984375 C 118.03125 162.089844 111.613281 157.480469 104.296875 155.832031 Z M 118.875 103.453125 C 116.058594 99.898438 112.734375 96.296875 108.804688 93.957031 C 104.242188 91.238281 92.785156 88.003906 91.765625 96.296875 C 91.363281 99.578125 94.164062 102.1875 96.699219 103.832031 C 99.878906 105.90625 103.828125 107.003906 107.613281 107.054688 C 111.867188 107.113281 116.15625 106.5 120.292969 105.339844 C 119.824219 104.71875 119.367188 104.074219 118.875 103.453125 Z M 118.875 103.453125 "/></clipPath><linearGradient x1="231.823216" gradientTransform="matrix(0.371222,-0.897549,-0.897549,-0.371222,91.117966,341.015386)" y1="50.450001" x2="341.523457" gradientUnits="userSpaceOnUse" y2="50.450001" id="9395b030aa"><stop style="stop-color:#454455;stop-opacity:1;" offset="0"/><stop style="stop-color:#454454;stop-opacity:1;" offset="0.015625"/><stop style="stop-color:#444354;stop-opacity:1;" offset="0.03125"/><stop style="stop-color:#444253;stop-opacity:1;" offset="0.046875"/><stop style="stop-color:#434253;stop-opacity:1;" offset="0.0625"/><stop style="stop-color:#424152;stop-opacity:1;" offset="0.078125"/><stop style="stop-color:#424051;stop-opacity:1;" offset="0.09375"/><stop style="stop-color:#414051;stop-opacity:1;" offset="0.109375"/><stop style="stop-color:#413f50;stop-opacity:1;" offset="0.125"/><stop style="stop-color:#403f50;stop-opacity:1;" offset="0.140625"/><stop style="stop-color:#3f3e4f;stop-opacity:1;" offset="0.15625"/><stop style="stop-color:#3f3d4f;stop-opacity:1;" offset="0.171875"/><stop style="stop-color:#3e3d4e;stop-opacity:1;" offset="0.1875"/><stop style="stop-color:#3d3c4e;stop-opacity:1;" offset="0.203125"/><stop style="stop-color:#3d3b4d;stop-opacity:1;" offset="0.21875"/><stop style="stop-color:#3c3b4c;stop-opacity:1;" offset="0.234375"/><stop style="stop-color:#3c3a4c;stop-opacity:1;" offset="0.25"/><stop style="stop-color:#3b394b;stop-opacity:1;" offset="0.265625"/><stop style="stop-color:#3a394b;stop-opacity:1;" offset="0.28125"/><stop style="stop-color:#3a384a;stop-opacity:1;" offset="0.296875"/><stop style="stop-color:#39384a;stop-opacity:1;" offset="0.3125"/><stop style="stop-color:#383749;stop-opacity:1;" offset="0.328125"/><stop style="stop-color:#383648;stop-opacity:1;" offset="0.34375"/><stop style="stop-color:#373648;stop-opacity:1;" offset="0.359375"/><stop style="stop-color:#373547;stop-opacity:1;" offset="0.375"/><stop style="stop-color:#363447;stop-opacity:1;" offset="0.390625"/><stop style="stop-color:#353446;stop-opacity:1;" offset="0.40625"/><stop style="stop-color:#353346;stop-opacity:1;" offset="0.421875"/><stop style="stop-color:#343245;stop-opacity:1;" offset="0.4375"/><stop style="stop-color:#333245;stop-opacity:1;" offset="0.453125"/><stop style="stop-color:#333144;stop-opacity:1;" offset="0.46875"/><stop style="stop-color:#323143;stop-opacity:1;" offset="0.484375"/><stop style="stop-color:#323043;stop-opacity:1;" offset="0.5"/><stop style="stop-color:#312f42;stop-opacity:1;" offset="0.515625"/><stop style="stop-color:#302f42;stop-opacity:1;" offset="0.53125"/><stop style="stop-color:#302e41;stop-opacity:1;" offset="0.546875"/><stop style="stop-color:#2f2d41;stop-opacity:1;" offset="0.5625"/><stop style="stop-color:#2e2d40;stop-opacity:1;" offset="0.578125"/><stop style="stop-color:#2e2c3f;stop-opacity:1;" offset="0.59375"/><stop style="stop-color:#2d2c3f;stop-opacity:1;" offset="0.609375"/><stop style="stop-color:#2d2b3e;stop-opacity:1;" offset="0.625"/><stop style="stop-color:#2c2a3e;stop-opacity:1;" offset="0.640625"/><stop style="stop-color:#2b2a3d;stop-opacity:1;" offset="0.65625"/><stop style="stop-color:#2b293d;stop-opacity:1;" offset="0.671875"/><stop style="stop-color:#2a283c;stop-opacity:1;" offset="0.6875"/><stop style="stop-color:#29283c;stop-opacity:1;" offset="0.703125"/><stop style="stop-color:#29273b;stop-opacity:1;" offset="0.71875"/><stop style="stop-color:#28263a;stop-opacity:1;" offset="0.734375"/><stop style="stop-color:#28263a;stop-opacity:1;" offset="0.75"/><stop style="stop-color:#272539;stop-opacity:1;" offset="0.765625"/><stop style="stop-color:#262539;stop-opacity:1;" offset="0.78125"/><stop style="stop-color:#262438;stop-opacity:1;" offset="0.796875"/><stop style="stop-color:#252338;stop-opacity:1;" offset="0.8125"/><stop style="stop-color:#242337;stop-opacity:1;" offset="0.828125"/><stop style="stop-color:#242236;stop-opacity:1;" offset="0.84375"/><stop style="stop-color:#232136;stop-opacity:1;" offset="0.859375"/><stop style="stop-color:#232135;stop-opacity:1;" offset="0.875"/><stop style="stop-color:#222035;stop-opacity:1;" offset="0.890625"/><stop style="stop-color:#211f34;stop-opacity:1;" offset="0.90625"/><stop style="stop-color:#211f34;stop-opacity:1;" offset="0.921875"/><stop style="stop-color:#201e33;stop-opacity:1;" offset="0.9375"/><stop style="stop-color:#201e33;stop-opacity:1;" offset="1"/></linearGradient><clipPath id="a7411a5e35"><rect x="0" width="205" y="0" height="86"/></clipPath><clipPath id="7ab8d36a8a"><path d="M 0.511719 0 L 127 0 L 127 61 L 0.511719 61 Z M 0.511719 0 "/></clipPath><clipPath id="f6ab05de82"><path d="M 132.066406 43.226562 L -61.433594 62.734375 L -68.234375 -4.730469 L 125.261719 -24.238281 Z M 132.066406 43.226562 "/></clipPath><clipPath id="86fbcd5722"><path d="M 132.066406 43.226562 L -61.433594 62.734375 L -68.234375 -4.730469 L 125.261719 -24.238281 Z M 132.066406 43.226562 "/></clipPath><clipPath id="b380a3d3db"><path d="M 0.511719 42 L 45 42 L 45 152.007812 L 0.511719 152.007812 Z M 0.511719 42 "/></clipPath><clipPath id="49117d88e2"><path d="M -2.714844 212.957031 L -99.46875 44.253906 L -40.648438 10.519531 L 56.101562 179.226562 Z M -2.714844 212.957031 "/></clipPath><clipPath id="dcc9917835"><path d="M -2.714844 212.957031 L -99.46875 44.253906 L -40.648438 10.519531 L 56.101562 179.226562 Z M -2.714844 212.957031 "/></clipPath><clipPath id="d59f7abd68"><path d="M 153 0 L 270.992188 0 L 270.992188 80 L 153 80 Z M 153 0 "/></clipPath><clipPath id="8d47c6074f"><path d="M 193.617188 -66.675781 L 324.835938 76.867188 L 274.789062 122.617188 L 143.574219 -20.925781 Z M 193.617188 -66.675781 "/></clipPath><clipPath id="ba9bb3cab0"><path d="M 193.617188 -66.675781 L 324.835938 76.867188 L 274.789062 122.617188 L 143.574219 -20.925781 Z M 193.617188 -66.675781 "/></clipPath><clipPath id="a6a6cd917e"><path d="M 107 151 L 270.992188 151 L 270.992188 152.007812 L 107 152.007812 Z M 107 151 "/></clipPath><clipPath id="db3aafbd94"><path d="M 300.957031 216.414062 L 107.457031 235.921875 L 100.65625 168.457031 L 294.15625 148.949219 Z M 300.957031 216.414062 "/></clipPath><clipPath id="20a464b313"><path d="M 300.957031 216.414062 L 107.457031 235.921875 L 100.65625 168.457031 L 294.15625 148.949219 Z M 300.957031 216.414062 "/></clipPath><clipPath id="adb919ebe1"><path d="M 150 85 L 270.992188 85 L 270.992188 152.007812 L 150 152.007812 Z M 150 85 "/></clipPath><clipPath id="2fdf045374"><path d="M 139.785156 119.265625 L 330.679688 82.101562 L 343.636719 148.660156 L 152.742188 185.824219 Z M 139.785156 119.265625 "/></clipPath><clipPath id="c2fd36f168"><path d="M 139.785156 119.265625 L 330.679688 82.101562 L 343.636719 148.660156 L 152.742188 185.824219 Z M 139.785156 119.265625 "/></clipPath></defs><g id="f8e144f1b7"><g clip-rule="nonzero" clip-path="url(#9e72323c9f)"><path style=" stroke:none;fill-rule:nonzero;fill:#ffffff;fill-opacity:1;" d="M 0.511719 0 L 270.992188 0 L 270.992188 152.007812 L 0.511719 152.007812 Z M 0.511719 0 "/></g><g clip-rule="nonzero" clip-path="url(#be3a38df6d)"><path style=" stroke:none;fill-rule:nonzero;fill:url(#b7e5cdd7ca);" d="M 0.511719 0 L 0.511719 152.007812 L 270.742188 152.007812 L 270.742188 0 Z M 0.511719 0 "/></g><g clip-rule="nonzero" clip-path="url(#87ca5ce362)"><g clip-rule="nonzero" clip-path="url(#97e1b6c8f9)"><g clip-rule="nonzero" clip-path="url(#b7e72977d1)"><path style=" stroke:none;fill-rule:nonzero;fill:#876ee0;fill-opacity:1;" d="M -10.886719 91.316406 L 88.746094 125.882812 L 58.230469 213.832031 L -41.402344 179.265625 Z M -10.886719 91.316406 "/></g></g></g><g clip-rule="nonzero" clip-path="url(#7bc4f016b1)"><g clip-rule="nonzero" clip-path="url(#8231713f71)"><g clip-rule="nonzero" clip-path="url(#a556d1035b)"><path style=" stroke:none;fill-rule:nonzero;fill:#876ee0;fill-opacity:1;" d="M 62.050781 115.703125 L 168.960938 165.816406 L 133.519531 241.421875 L 26.609375 191.308594 Z M 62.050781 115.703125 "/></g></g></g><g clip-rule="nonzero" clip-path="url(#45786df77b)"><g mask="url(#c484810a13)" transform="matrix(1,0,0,1,0.000000000000000111,10)"><g clip-path="url(#ce5e14a585)"><g clip-rule="nonzero" clip-path="url(#dcb2563404)"><g clip-rule="nonzero" clip-path="url(#7941174c6d)"><g clip-rule="nonzero" clip-path="url(#d6082b3a99)"><g clip-rule="nonzero" clip-path="url(#c86255bf81)"><path style=" stroke:none;fill-rule:nonzero;fill:url(#52c9daa6e9);" d="M 293.945312 57.679688 L 147.355469 252.5 L -62.9375 94.261719 L 83.652344 -100.554688 Z M 293.945312 57.679688 "/></g></g></g></g></g><mask id="c484810a13"><g filter="url(#21a945ff36)"><rect x="0" width="272.25" y="0" height="153.000002" style="fill:#000000;fill-opacity:0.76;stroke:none;"/></g></mask></g></g><g clip-rule="nonzero" clip-path="url(#8b71f07fc2)"><g clip-rule="nonzero" clip-path="url(#60c8d1d623)"><g clip-rule="nonzero" clip-path="url(#a4d3fccb56)"><path style=" stroke:none;fill-rule:nonzero;fill:#876ee0;fill-opacity:1;" d="M 286.664062 119.054688 L 178.5625 40.460938 L 246.761719 -53.351562 L 354.867188 25.242188 Z M 286.664062 119.054688 "/></g></g></g><g clip-rule="nonzero" clip-path="url(#2ee65fbbbd)"><g clip-rule="nonzero" clip-path="url(#9498fdbea9)"><g clip-rule="nonzero" clip-path="url(#79ca9e43c7)"><path style=" stroke:none;fill-rule:nonzero;fill:#876ee0;fill-opacity:1;" d="M 238.820312 63.007812 L 120.277344 25.933594 L 148.109375 -63.0625 L 266.65625 -25.988281 Z M 238.820312 63.007812 "/></g></g></g><g clip-rule="nonzero" clip-path="url(#2d935347db)"><g mask="url(#642d456c88)" transform="matrix(1,0,0,1,32,0.000000000000009523)"><g clip-path="url(#c9a84696c4)"><g clip-rule="nonzero" clip-path="url(#e73c83ca1c)"><g clip-rule="nonzero" clip-path="url(#705512d72c)"><g clip-rule="nonzero" clip-path="url(#77648d6a0f)"><g clip-rule="nonzero" clip-path="url(#dc9f50c8e3)"><path style=" stroke:none;fill-rule:nonzero;fill:#5c5b69;fill-opacity:1;" d="M 279.261719 81.597656 L 88.898438 175.539062 L 12.078125 19.871094 L 202.441406 -74.070312 Z M 279.261719 81.597656 "/></g></g></g></g></g><mask id="642d456c88"><g filter="url(#21a945ff36)"><rect x="0" width="272.25" y="0" height="153.000002" style="fill:#000000;fill-opacity:0.76;stroke:none;"/></g></mask></g></g><g clip-rule="nonzero" clip-path="url(#3d4febbfd5)"><g mask="url(#79d0adb969)" transform="matrix(1,0,0,1,140,0.000000000000009523)"><g clip-path="url(#fcb2e86af1)"><g clip-rule="nonzero" clip-path="url(#879f3c9ca7)"><g clip-rule="nonzero" clip-path="url(#02cc6a27e0)"><g clip-rule="nonzero" clip-path="url(#9eb91d0b62)"><g clip-rule="nonzero" clip-path="url(#283692225c)"><path style=" stroke:none;fill-rule:nonzero;fill:url(#b79c57f179);" d="M 109.949219 -46.453125 L 152.363281 47.179688 L 28.4375 103.3125 L -13.976562 9.679688 Z M 109.949219 -46.453125 "/></g></g></g></g></g><mask id="79d0adb969"><g filter="url(#21a945ff36)"><rect x="0" width="272.25" y="0" height="153.000002" style="fill:#000000;fill-opacity:0.76;stroke:none;"/></g></mask></g></g><g clip-rule="nonzero" clip-path="url(#156990946d)"><g mask="url(#fc497eb16f)" transform="matrix(1,0,0,1,0.000000000000000111,0.000000000000009523)"><g clip-path="url(#a0a3ce6e0b)"><g clip-rule="nonzero" clip-path="url(#582d83f7ae)"><g clip-rule="nonzero" clip-path="url(#71825afe35)"><g clip-rule="nonzero" clip-path="url(#f5e9af4d1a)"><g clip-rule="nonzero" clip-path="url(#69ed34f023)"><path style=" stroke:none;fill-rule:nonzero;fill:url(#4e342d8138);" d="M 135.929688 -38.621094 L 173.753906 94.007812 L 11.523438 140.273438 L -26.296875 7.644531 Z M 135.929688 -38.621094 "/></g></g></g></g></g><mask id="fc497eb16f"><g filter="url(#21a945ff36)"><rect x="0" width="272.25" y="0" height="153.000002" style="fill:#000000;fill-opacity:0.76;stroke:none;"/></g></mask></g></g><g clip-rule="nonzero" clip-path="url(#e2a6cd56ac)"><g mask="url(#0e492c111e)" transform="matrix(1,0,0,1,0.000000000000000111,0.000000000000009523)"><g clip-path="url(#42180d01b5)"><g clip-rule="nonzero" clip-path="url(#8695eb15d9)"><g clip-rule="nonzero" clip-path="url(#4bb2f25f02)"><g clip-rule="nonzero" clip-path="url(#4156b53ba3)"><g clip-rule="nonzero" clip-path="url(#f80e05a50e)"><path style=" stroke:none;fill-rule:nonzero;fill:#5c5b69;fill-opacity:1;" d="M 23.222656 -27.363281 L 130.894531 62.003906 L 33.480469 179.371094 L -74.191406 90.003906 Z M 23.222656 -27.363281 "/></g></g></g></g></g><mask id="0e492c111e"><g filter="url(#21a945ff36)"><rect x="0" width="272.25" y="0" height="153.000002" style="fill:#000000;fill-opacity:0.76;stroke:none;"/></g></mask></g></g><g clip-rule="nonzero" clip-path="url(#f82ebcc501)"><g mask="url(#fb5baa5749)" transform="matrix(1,0,0,1,0.000000000000000111,35)"><g clip-path="url(#d0f76dcc26)"><g clip-rule="nonzero" clip-path="url(#6f6b548dcd)"><g clip-rule="nonzero" clip-path="url(#9deec14554)"><g clip-rule="nonzero" clip-path="url(#7d511cf541)"><g clip-rule="nonzero" clip-path="url(#32ca899577)"><path style=" stroke:none;fill-rule:nonzero;fill:url(#4b524ecfdf);" d="M 169.398438 247.996094 L -15.863281 104.304688 L 102.105469 -47.792969 L 287.367188 95.894531 Z M 169.398438 247.996094 "/></g></g></g></g></g><mask id="fb5baa5749"><g filter="url(#21a945ff36)"><rect x="0" width="272.25" y="0" height="153.000002" style="fill:#000000;fill-opacity:0.76;stroke:none;"/></g></mask></g></g><g clip-rule="nonzero" clip-path="url(#4940c9f023)"><g mask="url(#9c85e138d1)" transform="matrix(1,0,0,1,66,67)"><g clip-path="url(#a7411a5e35)"><g clip-rule="nonzero" clip-path="url(#02a940ee5a)"><g clip-rule="nonzero" clip-path="url(#3d17e9a8cc)"><g clip-rule="nonzero" clip-path="url(#0bcffbfd49)"><g clip-rule="nonzero" clip-path="url(#c416d7b505)"><path style=" stroke:none;fill-rule:nonzero;fill:url(#9395b030aa);" d="M 184 135.765625 L 41.546875 76.847656 L 82.269531 -21.613281 L 224.722656 37.304688 Z M 184 135.765625 "/></g></g></g></g></g><mask id="9c85e138d1"><g filter="url(#21a945ff36)"><rect x="0" width="272.25" y="0" height="153.000002" style="fill:#000000;fill-opacity:0.76;stroke:none;"/></g></mask></g></g><g clip-rule="nonzero" clip-path="url(#7ab8d36a8a)"><g clip-rule="nonzero" clip-path="url(#f6ab05de82)"><g clip-rule="nonzero" clip-path="url(#86fbcd5722)"><path style=" stroke:none;fill-rule:nonzero;fill:#ebba0b;fill-opacity:1;" d="M 94.550781 -21.0625 C 102.828125 -21.898438 110.136719 -18.503906 117.785156 -14.992188 C 120.628906 -13.6875 123.554688 -12.316406 126.582031 -11.175781 L 125.691406 -8.871094 C 122.585938 -10.050781 119.613281 -11.417969 116.742188 -12.746094 C 106.613281 -17.425781 97.84375 -21.46875 86.71875 -16.316406 C 80.964844 -13.644531 79.824219 -8.429688 78.632812 -2.933594 C 76.988281 4.675781 75.140625 13.273438 60.238281 14.773438 C 59.917969 14.804688 59.597656 14.839844 59.277344 14.871094 C 47.152344 15.820312 38.09375 12.851562 30.089844 10.222656 C 21.285156 7.328125 14.3125 5.070312 6.875 9.777344 C 1.050781 13.476562 0.09375 19.023438 -1.027344 25.457031 C -2.582031 34.445312 -4.339844 44.652344 -19.695312 52.296875 C -27.1875 56.015625 -38.5625 60.421875 -50.15625 60.199219 C -57.214844 60.0625 -61.027344 58.28125 -61.183594 58.199219 L -60.113281 55.976562 C -60.085938 55.996094 -56.511719 57.628906 -49.933594 57.738281 C -43.828125 57.792969 -33.824219 56.558594 -20.792969 50.070312 C -6.550781 42.984375 -4.984375 33.84375 -3.460938 25.003906 C -2.296875 18.292969 -1.195312 11.933594 5.566406 7.644531 C 13.988281 2.316406 21.808594 4.863281 30.867188 7.832031 C 38.640625 10.382812 47.441406 13.253906 59.070312 12.351562 C 65.371094 11.867188 69.695312 10.089844 72.285156 6.890625 C 74.582031 4.019531 75.386719 0.382812 76.214844 -3.484375 C 77.464844 -9.335938 78.792969 -15.417969 85.664062 -18.597656 C 88.472656 -19.902344 91.472656 -20.726562 94.550781 -21.0625 Z M 94.550781 -21.0625 "/></g></g></g><g clip-rule="nonzero" clip-path="url(#b380a3d3db)"><g clip-rule="nonzero" clip-path="url(#49117d88e2)"><g clip-rule="nonzero" clip-path="url(#dcc9917835)"><path style=" stroke:none;fill-rule:nonzero;fill:#ebba0b;fill-opacity:1;" d="M 40.671875 152.480469 C 44.8125 159.699219 44.695312 167.757812 44.609375 176.167969 C 44.578125 179.296875 44.519531 182.527344 44.714844 185.757812 L 42.25 185.886719 C 42.058594 182.570312 42.09375 179.296875 42.136719 176.132812 C 42.273438 164.976562 42.386719 155.320312 33.144531 147.265625 C 28.359375 143.101562 23.128906 144.1875 17.628906 145.34375 C 10.011719 146.945312 1.40625 148.769531 -6.042969 135.773438 C -6.203125 135.492188 -6.363281 135.214844 -6.523438 134.933594 C -12.335938 124.253906 -13.324219 114.769531 -14.191406 106.390625 C -15.136719 97.171875 -15.917969 89.886719 -23.253906 85.015625 C -29.003906 81.207031 -34.460938 82.59375 -40.789062 84.199219 C -49.632812 86.445312 -59.671875 89.003906 -72.914062 78.101562 C -79.363281 72.78125 -88.027344 64.191406 -92.554688 53.515625 C -95.308594 47.015625 -95.238281 42.808594 -95.226562 42.632812 L -92.761719 42.703125 C -92.769531 42.734375 -92.800781 46.664062 -90.214844 52.714844 C -87.777344 58.3125 -82.570312 66.941406 -71.328125 76.191406 C -59.046875 86.304688 -50.0625 84.007812 -41.371094 81.789062 C -34.769531 80.117188 -28.515625 78.527344 -21.839844 82.949219 C -13.539062 88.464844 -12.671875 96.644531 -11.6875 106.125 C -10.84375 114.265625 -9.875 123.46875 -4.308594 133.722656 C -1.296875 139.273438 2.09375 142.496094 6.066406 143.554688 C 9.625 144.484375 13.277344 143.730469 17.144531 142.910156 C 22.996094 141.667969 29.089844 140.398438 34.796875 145.375 C 37.132812 147.402344 39.113281 149.808594 40.671875 152.480469 Z M 40.671875 152.480469 "/></g></g></g><g clip-rule="nonzero" clip-path="url(#d59f7abd68)"><g clip-rule="nonzero" clip-path="url(#8d47c6074f)"><g clip-rule="nonzero" clip-path="url(#ba9bb3cab0)"><path style=" stroke:none;fill-rule:nonzero;fill:#ebba0b;fill-opacity:1;" d="M 164.464844 1.8125 C 158.851562 -4.328125 157.207031 -12.21875 155.457031 -20.449219 C 154.804688 -23.507812 154.15625 -26.675781 153.261719 -29.78125 L 155.640625 -30.449219 C 156.550781 -27.25 157.230469 -24.050781 157.878906 -20.953125 C 160.175781 -10.035156 162.171875 -0.589844 172.949219 5.257812 C 178.527344 8.277344 183.394531 6.078125 188.511719 3.746094 C 195.597656 0.527344 203.59375 -3.128906 213.703125 7.925781 C 213.917969 8.164062 214.136719 8.402344 214.351562 8.640625 C 222.355469 17.796875 225.382812 26.835938 228.058594 34.824219 C 230.992188 43.613281 233.347656 50.554688 241.566406 53.710938 C 248.007812 56.171875 253.03125 53.628906 258.859375 50.683594 C 267 46.5625 276.234375 41.875 291.539062 49.625 C 298.992188 53.410156 309.324219 59.902344 316.066406 69.335938 C 320.175781 75.078125 321.023438 79.199219 321.050781 79.375 L 318.628906 79.84375 C 318.628906 79.8125 317.804688 75.96875 313.960938 70.628906 C 310.359375 65.699219 303.394531 58.410156 290.40625 51.835938 C 276.21875 44.644531 267.949219 48.847656 259.949219 52.90625 C 253.871094 55.980469 248.113281 58.894531 240.636719 56.035156 C 231.332031 52.464844 228.703125 44.667969 225.671875 35.628906 C 223.078125 27.871094 220.121094 19.097656 212.457031 10.308594 C 208.304688 5.546875 204.292969 3.140625 200.183594 2.972656 C 196.507812 2.84375 193.109375 4.375 189.511719 6.019531 C 184.074219 8.507812 178.402344 11.078125 171.746094 7.464844 C 169.027344 5.992188 166.570312 4.078125 164.464844 1.8125 Z M 164.464844 1.8125 "/></g></g></g><g clip-rule="nonzero" clip-path="url(#a6a6cd917e)"><g clip-rule="nonzero" clip-path="url(#db3aafbd94)"><g clip-rule="nonzero" clip-path="url(#20a464b313)"><path style=" stroke:none;fill-rule:nonzero;fill:#ebba0b;fill-opacity:1;" d="M 263.441406 152.125 C 271.71875 151.292969 279.03125 154.683594 286.675781 158.195312 C 289.519531 159.5 292.445312 160.875 295.472656 162.011719 L 294.585938 164.316406 C 291.480469 163.136719 288.503906 161.769531 285.632812 160.441406 C 275.503906 155.761719 266.734375 151.71875 255.609375 156.871094 C 249.855469 159.542969 248.714844 164.761719 247.527344 170.253906 C 245.878906 177.863281 244.035156 186.460938 229.128906 187.960938 C 228.808594 187.996094 228.488281 188.027344 228.167969 188.058594 C 216.042969 189.007812 206.984375 186.039062 198.980469 183.410156 C 190.175781 180.515625 183.207031 178.257812 175.765625 182.964844 C 169.941406 186.664062 168.984375 192.210938 167.867188 198.644531 C 166.308594 207.636719 164.550781 217.839844 149.195312 225.488281 C 141.707031 229.203125 130.328125 233.609375 118.734375 233.386719 C 111.679688 233.25 107.863281 231.46875 107.707031 231.386719 L 108.777344 229.164062 C 108.804688 229.1875 112.378906 230.816406 118.957031 230.925781 C 125.0625 230.980469 135.066406 229.75 148.097656 223.257812 C 162.339844 216.171875 163.910156 207.03125 165.429688 198.191406 C 166.597656 191.480469 167.695312 185.121094 174.457031 180.832031 C 182.878906 175.503906 190.699219 178.050781 199.757812 181.019531 C 207.53125 183.570312 216.332031 186.441406 227.964844 185.542969 C 234.261719 185.054688 238.585938 183.277344 241.175781 180.078125 C 243.472656 177.207031 244.277344 173.570312 245.105469 169.703125 C 246.359375 163.851562 247.6875 157.769531 254.558594 154.589844 C 257.363281 153.285156 260.363281 152.460938 263.441406 152.125 Z M 263.441406 152.125 "/></g></g></g><g clip-rule="nonzero" clip-path="url(#adb919ebe1)"><g clip-rule="nonzero" clip-path="url(#2fdf045374)"><g clip-rule="nonzero" clip-path="url(#c2fd36f168)"><path style=" stroke:none;fill-rule:nonzero;fill:#ebba0b;fill-opacity:1;" d="M 183.03125 179.84375 C 174.867188 181.433594 167.277344 178.722656 159.339844 175.929688 C 156.390625 174.890625 153.351562 173.792969 150.230469 172.9375 L 150.90625 170.558594 C 154.105469 171.449219 157.191406 172.539062 160.171875 173.597656 C 170.6875 177.328125 179.789062 180.550781 190.398438 174.398438 C 195.882812 171.210938 196.539062 165.914062 197.21875 160.332031 C 198.164062 152.605469 199.214844 143.875 213.917969 141.011719 C 214.234375 140.953125 214.550781 140.890625 214.863281 140.828125 C 226.851562 138.773438 236.144531 140.898438 244.355469 142.78125 C 253.386719 144.855469 260.535156 146.46875 267.511719 141.097656 C 272.972656 136.882812 273.417969 131.269531 273.941406 124.761719 C 274.667969 115.664062 275.484375 105.339844 290.074219 96.320312 C 297.191406 91.933594 308.117188 86.5 319.683594 85.660156 C 326.722656 85.148438 330.683594 86.574219 330.847656 86.640625 L 329.984375 88.953125 C 329.957031 88.933594 326.25 87.636719 319.683594 88.132812 C 313.601562 88.636719 303.753906 90.78125 291.371094 98.4375 C 277.835938 106.800781 277.113281 116.046875 276.410156 124.988281 C 275.863281 131.777344 275.351562 138.210938 269.011719 143.101562 C 261.113281 149.179688 253.09375 147.363281 243.800781 145.234375 C 235.824219 143.40625 226.796875 141.355469 215.300781 143.316406 C 209.074219 144.378906 204.929688 146.546875 202.644531 149.96875 C 200.617188 153.035156 200.152344 156.734375 199.679688 160.660156 C 198.96875 166.601562 198.207031 172.777344 191.65625 176.578125 C 188.980469 178.132812 186.066406 179.226562 183.03125 179.84375 Z M 183.03125 179.84375 "/></g></g></g></g></svg>