<svg xmlns="http://www.w3.org/2000/svg" xmlns:xlink="http://www.w3.org/1999/xlink" width="363" zoomAndPan="magnify" viewBox="0 0 272.25 153.000002" height="204" preserveAspectRatio="xMidYMid meet" version="1.2"><defs><clipPath id="29fffd7540"><path d="M 0.511719 0 L 270.992188 0 L 270.992188 152.007812 L 0.511719 152.007812 Z M 0.511719 0 "/></clipPath><clipPath id="383898eaec"><path d="M 0.511719 0 L 270.742188 0 L 270.742188 152.007812 L 0.511719 152.007812 Z M 0.511719 0 "/></clipPath><linearGradient x1="39.669937" gradientTransform="matrix(0.74513,0,0,0.74513,0.506984,0.00000695455)" y1="-39.664063" x2="323.000988" gradientUnits="userSpaceOnUse" y2="243.666988" id="32760e7f0e"><stop style="stop-color:#201e33;stop-opacity:1;" offset="0"/><stop style="stop-color:#201e33;stop-opacity:1;" offset="0.0078125"/><stop style="stop-color:#201e34;stop-opacity:1;" offset="0.015625"/><stop style="stop-color:#211f34;stop-opacity:1;" offset="0.0234375"/><stop style="stop-color:#211f35;stop-opacity:1;" offset="0.03125"/><stop style="stop-color:#211f35;stop-opacity:1;" offset="0.0390625"/><stop style="stop-color:#211f36;stop-opacity:1;" offset="0.046875"/><stop style="stop-color:#222036;stop-opacity:1;" offset="0.0546875"/><stop style="stop-color:#222037;stop-opacity:1;" offset="0.0625"/><stop style="stop-color:#222037;stop-opacity:1;" offset="0.0703125"/><stop style="stop-color:#232038;stop-opacity:1;" offset="0.078125"/><stop style="stop-color:#232138;stop-opacity:1;" offset="0.0859375"/><stop style="stop-color:#232139;stop-opacity:1;" offset="0.09375"/><stop style="stop-color:#232139;stop-opacity:1;" offset="0.101563"/><stop style="stop-color:#24213a;stop-opacity:1;" offset="0.109375"/><stop style="stop-color:#24213a;stop-opacity:1;" offset="0.117187"/><stop style="stop-color:#24223b;stop-opacity:1;" offset="0.125"/><stop style="stop-color:#25223b;stop-opacity:1;" offset="0.132812"/><stop style="stop-color:#25223c;stop-opacity:1;" offset="0.140625"/><stop style="stop-color:#25223d;stop-opacity:1;" offset="0.148438"/><stop style="stop-color:#25233d;stop-opacity:1;" offset="0.15625"/><stop style="stop-color:#26233e;stop-opacity:1;" offset="0.164062"/><stop style="stop-color:#26233e;stop-opacity:1;" offset="0.171875"/><stop style="stop-color:#26233f;stop-opacity:1;" offset="0.179688"/><stop style="stop-color:#27243f;stop-opacity:1;" offset="0.1875"/><stop style="stop-color:#272440;stop-opacity:1;" offset="0.195312"/><stop style="stop-color:#272440;stop-opacity:1;" offset="0.203125"/><stop style="stop-color:#272441;stop-opacity:1;" offset="0.210938"/><stop style="stop-color:#282541;stop-opacity:1;" offset="0.21875"/><stop style="stop-color:#282542;stop-opacity:1;" offset="0.226562"/><stop style="stop-color:#282542;stop-opacity:1;" offset="0.234375"/><stop style="stop-color:#292543;stop-opacity:1;" offset="0.242188"/><stop style="stop-color:#292543;stop-opacity:1;" offset="0.25"/><stop style="stop-color:#292644;stop-opacity:1;" offset="0.257812"/><stop style="stop-color:#292644;stop-opacity:1;" offset="0.265625"/><stop style="stop-color:#2a2645;stop-opacity:1;" offset="0.273438"/><stop style="stop-color:#2a2645;stop-opacity:1;" offset="0.28125"/><stop style="stop-color:#2a2746;stop-opacity:1;" offset="0.289062"/><stop style="stop-color:#2b2746;stop-opacity:1;" offset="0.296875"/><stop style="stop-color:#2b2747;stop-opacity:1;" offset="0.304687"/><stop style="stop-color:#2b2747;stop-opacity:1;" offset="0.3125"/><stop style="stop-color:#2c2848;stop-opacity:1;" offset="0.320313"/><stop style="stop-color:#2c2848;stop-opacity:1;" offset="0.328125"/><stop style="stop-color:#2c2849;stop-opacity:1;" offset="0.335938"/><stop style="stop-color:#2d294a;stop-opacity:1;" offset="0.339844"/><stop style="stop-color:#2e2a4b;stop-opacity:1;" offset="0.34375"/><stop style="stop-color:#2f2b4c;stop-opacity:1;" offset="0.347656"/><stop style="stop-color:#302c4d;stop-opacity:1;" offset="0.351562"/><stop style="stop-color:#302c4e;stop-opacity:1;" offset="0.355469"/><stop style="stop-color:#312d4f;stop-opacity:1;" offset="0.359375"/><stop style="stop-color:#322e50;stop-opacity:1;" offset="0.363281"/><stop style="stop-color:#332f51;stop-opacity:1;" offset="0.367188"/><stop style="stop-color:#332f51;stop-opacity:1;" offset="0.371094"/><stop style="stop-color:#343052;stop-opacity:1;" offset="0.375"/><stop style="stop-color:#353153;stop-opacity:1;" offset="0.378906"/><stop style="stop-color:#363254;stop-opacity:1;" offset="0.382812"/><stop style="stop-color:#363255;stop-opacity:1;" offset="0.386719"/><stop style="stop-color:#373356;stop-opacity:1;" offset="0.390625"/><stop style="stop-color:#383457;stop-opacity:1;" offset="0.394531"/><stop style="stop-color:#383558;stop-opacity:1;" offset="0.398438"/><stop style="stop-color:#393558;stop-opacity:1;" offset="0.402344"/><stop style="stop-color:#3a3659;stop-opacity:1;" offset="0.40625"/><stop style="stop-color:#3b375a;stop-opacity:1;" offset="0.410156"/><stop style="stop-color:#3b385b;stop-opacity:1;" offset="0.414062"/><stop style="stop-color:#3c385c;stop-opacity:1;" offset="0.417969"/><stop style="stop-color:#3d395d;stop-opacity:1;" offset="0.421875"/><stop style="stop-color:#3e3a5e;stop-opacity:1;" offset="0.425781"/><stop style="stop-color:#3e3b5f;stop-opacity:1;" offset="0.429687"/><stop style="stop-color:#3f3b60;stop-opacity:1;" offset="0.433594"/><stop style="stop-color:#403c60;stop-opacity:1;" offset="0.4375"/><stop style="stop-color:#413d61;stop-opacity:1;" offset="0.441406"/><stop style="stop-color:#413e62;stop-opacity:1;" offset="0.445313"/><stop style="stop-color:#423e63;stop-opacity:1;" offset="0.449219"/><stop style="stop-color:#433f64;stop-opacity:1;" offset="0.453125"/><stop style="stop-color:#444065;stop-opacity:1;" offset="0.457031"/><stop style="stop-color:#444166;stop-opacity:1;" offset="0.460938"/><stop style="stop-color:#454167;stop-opacity:1;" offset="0.464844"/><stop style="stop-color:#464267;stop-opacity:1;" offset="0.46875"/><stop style="stop-color:#464368;stop-opacity:1;" offset="0.472656"/><stop style="stop-color:#474469;stop-opacity:1;" offset="0.476562"/><stop style="stop-color:#48446a;stop-opacity:1;" offset="0.480469"/><stop style="stop-color:#49456b;stop-opacity:1;" offset="0.484375"/><stop style="stop-color:#49466c;stop-opacity:1;" offset="0.488281"/><stop style="stop-color:#4a476d;stop-opacity:1;" offset="0.492188"/><stop style="stop-color:#4b476e;stop-opacity:1;" offset="0.496094"/><stop style="stop-color:#4c486e;stop-opacity:1;" offset="0.5"/><stop style="stop-color:#4c496f;stop-opacity:1;" offset="0.503906"/><stop style="stop-color:#4d4a70;stop-opacity:1;" offset="0.507812"/><stop style="stop-color:#4e4a71;stop-opacity:1;" offset="0.511719"/><stop style="stop-color:#4f4b72;stop-opacity:1;" offset="0.515625"/><stop style="stop-color:#4f4c73;stop-opacity:1;" offset="0.519531"/><stop style="stop-color:#504d74;stop-opacity:1;" offset="0.523438"/><stop style="stop-color:#514d75;stop-opacity:1;" offset="0.527344"/><stop style="stop-color:#524e75;stop-opacity:1;" offset="0.53125"/><stop style="stop-color:#524f76;stop-opacity:1;" offset="0.535156"/><stop style="stop-color:#535077;stop-opacity:1;" offset="0.539062"/><stop style="stop-color:#545078;stop-opacity:1;" offset="0.542969"/><stop style="stop-color:#545179;stop-opacity:1;" offset="0.546875"/><stop style="stop-color:#55527a;stop-opacity:1;" offset="0.550781"/><stop style="stop-color:#56537b;stop-opacity:1;" offset="0.554688"/><stop style="stop-color:#57537c;stop-opacity:1;" offset="0.558594"/><stop style="stop-color:#57547c;stop-opacity:1;" offset="0.5625"/><stop style="stop-color:#58557d;stop-opacity:1;" offset="0.566406"/><stop style="stop-color:#59567e;stop-opacity:1;" offset="0.570312"/><stop style="stop-color:#5a567f;stop-opacity:1;" offset="0.574219"/><stop style="stop-color:#5a5780;stop-opacity:1;" offset="0.578125"/><stop style="stop-color:#5b5881;stop-opacity:1;" offset="0.582031"/><stop style="stop-color:#5c5982;stop-opacity:1;" offset="0.585938"/><stop style="stop-color:#5d5983;stop-opacity:1;" offset="0.589844"/><stop style="stop-color:#5d5a83;stop-opacity:1;" offset="0.59375"/><stop style="stop-color:#5e5b84;stop-opacity:1;" offset="0.597656"/><stop style="stop-color:#5f5c85;stop-opacity:1;" offset="0.601562"/><stop style="stop-color:#5f5c86;stop-opacity:1;" offset="0.605469"/><stop style="stop-color:#605d87;stop-opacity:1;" offset="0.609375"/><stop style="stop-color:#615e88;stop-opacity:1;" offset="0.613281"/><stop style="stop-color:#625e89;stop-opacity:1;" offset="0.617188"/><stop style="stop-color:#625f8a;stop-opacity:1;" offset="0.621094"/><stop style="stop-color:#63608a;stop-opacity:1;" offset="0.625"/><stop style="stop-color:#64618b;stop-opacity:1;" offset="0.628906"/><stop style="stop-color:#65618c;stop-opacity:1;" offset="0.632812"/><stop style="stop-color:#65628d;stop-opacity:1;" offset="0.636719"/><stop style="stop-color:#66638e;stop-opacity:1;" offset="0.640625"/><stop style="stop-color:#67648f;stop-opacity:1;" offset="0.644531"/><stop style="stop-color:#686490;stop-opacity:1;" offset="0.648438"/><stop style="stop-color:#686591;stop-opacity:1;" offset="0.652344"/><stop style="stop-color:#696691;stop-opacity:1;" offset="0.65625"/><stop style="stop-color:#6a6792;stop-opacity:1;" offset="0.660156"/><stop style="stop-color:#6b6793;stop-opacity:1;" offset="0.664062"/><stop style="stop-color:#6b6894;stop-opacity:1;" offset="0.667969"/><stop style="stop-color:#6b6894;stop-opacity:1;" offset="0.671875"/><stop style="stop-color:#6b6895;stop-opacity:1;" offset="0.679688"/><stop style="stop-color:#6b6896;stop-opacity:1;" offset="0.6875"/><stop style="stop-color:#6b6897;stop-opacity:1;" offset="0.695312"/><stop style="stop-color:#6b6898;stop-opacity:1;" offset="0.703125"/><stop style="stop-color:#6b6899;stop-opacity:1;" offset="0.710938"/><stop style="stop-color:#6b689a;stop-opacity:1;" offset="0.71875"/><stop style="stop-color:#6b689b;stop-opacity:1;" offset="0.726562"/><stop style="stop-color:#6b689c;stop-opacity:1;" offset="0.734375"/><stop style="stop-color:#6b689d;stop-opacity:1;" offset="0.742188"/><stop style="stop-color:#6c689e;stop-opacity:1;" offset="0.75"/><stop style="stop-color:#6c689f;stop-opacity:1;" offset="0.757812"/><stop style="stop-color:#6c67a0;stop-opacity:1;" offset="0.765625"/><stop style="stop-color:#6c67a1;stop-opacity:1;" offset="0.773438"/><stop style="stop-color:#6c67a2;stop-opacity:1;" offset="0.78125"/><stop style="stop-color:#6c67a2;stop-opacity:1;" offset="0.789062"/><stop style="stop-color:#6c67a3;stop-opacity:1;" offset="0.796875"/><stop style="stop-color:#6c67a4;stop-opacity:1;" offset="0.804688"/><stop style="stop-color:#6c67a5;stop-opacity:1;" offset="0.8125"/><stop style="stop-color:#6c67a6;stop-opacity:1;" offset="0.820312"/><stop style="stop-color:#6c67a7;stop-opacity:1;" offset="0.828125"/><stop style="stop-color:#6c67a8;stop-opacity:1;" offset="0.835938"/><stop style="stop-color:#6c67a9;stop-opacity:1;" offset="0.84375"/><stop style="stop-color:#6c67aa;stop-opacity:1;" offset="0.851562"/><stop style="stop-color:#6c67ab;stop-opacity:1;" offset="0.859375"/><stop style="stop-color:#6c67ac;stop-opacity:1;" offset="0.867188"/><stop style="stop-color:#6c67ad;stop-opacity:1;" offset="0.875"/><stop style="stop-color:#6c67ae;stop-opacity:1;" offset="0.882812"/><stop style="stop-color:#6c67af;stop-opacity:1;" offset="0.890625"/><stop style="stop-color:#6c67b0;stop-opacity:1;" offset="0.898438"/><stop style="stop-color:#6c67b1;stop-opacity:1;" offset="0.90625"/><stop style="stop-color:#6c67b2;stop-opacity:1;" offset="0.914062"/><stop style="stop-color:#6c67b3;stop-opacity:1;" offset="0.921875"/><stop style="stop-color:#6c66b4;stop-opacity:1;" offset="0.929688"/><stop style="stop-color:#6d66b5;stop-opacity:1;" offset="0.9375"/><stop style="stop-color:#6d66b6;stop-opacity:1;" offset="0.945312"/><stop style="stop-color:#6d66b7;stop-opacity:1;" offset="0.953125"/><stop style="stop-color:#6d66b8;stop-opacity:1;" offset="0.960938"/><stop style="stop-color:#6d66b9;stop-opacity:1;" offset="0.96875"/><stop style="stop-color:#6d66ba;stop-opacity:1;" offset="0.976562"/><stop style="stop-color:#6d66bb;stop-opacity:1;" offset="0.984375"/><stop style="stop-color:#6d66bc;stop-opacity:1;" offset="0.992188"/><stop style="stop-color:#6d66bc;stop-opacity:1;" offset="1"/></linearGradient><clipPath id="bd485a56d0"><path d="M 0.511719 0 L 125 0 L 125 54 L 0.511719 54 Z M 0.511719 0 "/></clipPath><clipPath id="2af6913ad9"><path d="M -63.089844 -2.160156 L 123.039062 -72.417969 L 147.511719 -7.585938 L -38.617188 62.671875 Z M -63.089844 -2.160156 "/></clipPath><clipPath id="4d7629a54d"><path d="M -63.089844 -2.160156 L 123.039062 -72.417969 L 147.511719 -7.585938 L -38.617188 62.671875 Z M -63.089844 -2.160156 "/></clipPath><clipPath id="4795361a12"><path d="M 0.511719 0 L 90 0 L 90 95 L 0.511719 95 Z M 0.511719 0 "/></clipPath><clipPath id="61397b460d"><path d="M 96.75 74.667969 L -152.851562 109.175781 L -167.652344 2.144531 L 81.953125 -32.363281 Z M 96.75 74.667969 "/></clipPath><clipPath id="b02e9be56e"><path d="M -27.875 91.898438 C 40.953125 82.382812 93.4375 50.707031 89.351562 21.152344 C 85.265625 -8.402344 26.15625 -24.648438 -42.671875 -15.132812 C -111.5 -5.617188 -163.984375 26.054688 -159.898438 55.613281 C -155.808594 85.167969 -96.703125 101.414062 -27.875 91.898438 Z M -27.875 91.898438 "/></clipPath><clipPath id="a400906891"><path d="M 31 0 L 163 0 L 163 34 L 31 34 Z M 31 0 "/></clipPath><clipPath id="8ab3fef7d7"><path d="M 175.3125 14.570312 L 47.085938 47.71875 L 17.925781 -65.085938 L 146.152344 -98.234375 Z M 175.3125 14.570312 "/></clipPath><clipPath id="8eb6ce135f"><path d="M 111.328125 31.113281 C 146.667969 21.976562 168.785156 -10.679688 160.734375 -41.832031 C 152.679688 -72.980469 117.503906 -90.828125 82.167969 -81.691406 C 46.828125 -72.558594 24.710938 -39.898438 32.761719 -8.75 C 40.8125 22.398438 75.988281 40.246094 111.328125 31.113281 Z M 111.328125 31.113281 "/></clipPath><clipPath id="eb795d3c73"><path d="M 154 128 L 239 128 L 239 152.007812 L 154 152.007812 Z M 154 128 "/></clipPath><clipPath id="d868d376f1"><path d="M 142.035156 152.941406 L 220.746094 114.53125 L 251.570312 177.695312 L 172.859375 216.105469 Z M 142.035156 152.941406 "/></clipPath><clipPath id="7340eea861"><path d="M 181.28125 133.785156 C 159.605469 144.363281 148.933594 167.078125 157.445312 184.523438 C 165.957031 201.964844 190.429688 207.53125 212.105469 196.953125 C 233.78125 186.375 244.453125 163.660156 235.941406 146.21875 C 227.429688 128.773438 202.957031 123.210938 181.28125 133.785156 Z M 181.28125 133.785156 "/></clipPath><clipPath id="b697bc3e95"><path d="M 200 103 L 270.992188 103 L 270.992188 152.007812 L 200 152.007812 Z M 200 103 "/></clipPath><clipPath id="37b7f79610"><path d="M 197.980469 106.820312 L 303.578125 101.328125 L 307.710938 180.839844 L 202.113281 186.328125 Z M 197.980469 106.820312 "/></clipPath><clipPath id="bdd171c60a"><path d="M 250.773438 104.074219 C 221.617188 105.59375 198.90625 124.621094 200.046875 146.574219 C 201.1875 168.53125 225.753906 185.101562 254.910156 183.585938 C 284.066406 182.066406 306.777344 163.039062 305.636719 141.085938 C 304.496094 119.128906 279.933594 102.558594 250.773438 104.074219 Z M 250.773438 104.074219 "/></clipPath><clipPath id="d1f8e03be2"><path d="M 0.511719 0 L 241 0 L 241 152.007812 L 0.511719 152.007812 Z M 0.511719 0 "/></clipPath><filter x="0%" y="0%" width="100%" filterUnits="objectBoundingBox" id="0590ddf8c9" height="100%"><feColorMatrix values="0 0 0 0 1 0 0 0 0 1 0 0 0 0 1 0 0 0 1 0" type="matrix" in="SourceGraphic"/></filter><clipPath id="375a671269"><path d="M 0.511719 0 L 109 0 L 109 152.007812 L 0.511719 152.007812 Z M 0.511719 0 "/></clipPath><clipPath id="ff0cadc019"><path d="M 242.507812 -158.515625 L -172.46875 341.457031 L -322.691406 216.773438 L 92.289062 -283.199219 Z M 242.507812 -158.515625 "/></clipPath><clipPath id="c791570d82"><path d="M 92.566406 -282.96875 L -322.414062 217.003906 L -172.191406 341.6875 L 242.785156 -158.285156 Z M 92.566406 -282.96875 "/></clipPath><clipPath id="d5aec580c1"><path d="M -304.941406 207.753906 C -304.84375 199.910156 -302.027344 192.355469 -296.199219 186.953125 C -294.3125 185.1875 -291.648438 184.519531 -289.46875 186.328125 C -287.671875 187.816406 -286.929688 191.292969 -288.84375 193.058594 C -300.882812 204.238281 -294.441406 222.980469 -283.421875 232.425781 C -269.078125 244.726562 -248.460938 239.351562 -234.164062 229.820312 C -213.394531 215.96875 -203.128906 193.148438 -187.390625 174.601562 C -173.679688 158.445312 -155.046875 146.773438 -134.664062 141.050781 C -127.835938 139.140625 -120.820312 137.878906 -113.765625 137.25 C -122.558594 98.261719 -112.066406 55.976562 -83.515625 27.359375 C -82.460938 26.296875 -81.375 25.257812 -80.277344 24.234375 C -82.816406 15.613281 -84.03125 6.628906 -83.902344 -2.238281 C -83.542969 -25.695312 -73.839844 -47.089844 -58.679688 -64.753906 C -41.925781 -84.25 -20.398438 -98.839844 0.125 -113.984375 C 20.355469 -128.929688 39.023438 -145.070312 54.542969 -164.996094 C 69.597656 -184.335938 81.515625 -206.054688 89.828125 -229.128906 C 93.886719 -240.394531 96.984375 -251.941406 99.21875 -263.707031 C 100.367188 -269.761719 109.800781 -268.191406 108.652344 -262.136719 C 99.921875 -216.078125 77.480469 -172.722656 44.695312 -139.148438 C 27.554688 -121.613281 7.511719 -107.707031 -12.089844 -93.132812 C -30.964844 -79.101562 -50.40625 -63.851562 -62.511719 -43.28125 C -72.960938 -25.511719 -76.792969 -5.207031 -72.738281 15.058594 C -72.585938 15.804688 -72.40625 16.578125 -72.226562 17.320312 C -59.320312 7.160156 -44.398438 -0.488281 -28.496094 -4.734375 C -7.945312 -10.242188 16.683594 -11.769531 35.636719 -0.414062 C 44.925781 5.160156 51.933594 13.785156 53.386719 24.757812 C 54.800781 35.273438 50.644531 45.792969 44.492188 54.15625 C 32.289062 70.71875 11.25 79.152344 -8.945312 78.988281 C -29.847656 78.8125 -49.566406 70.472656 -63.566406 54.851562 C -69.050781 48.734375 -73.429688 41.671875 -76.710938 34.101562 C -85.664062 43.148438 -93.019531 53.71875 -98.1875 65.457031 C -106.058594 83.351562 -108.789062 103.257812 -106.621094 122.652344 C -106.078125 127.449219 -105.242188 132.191406 -104.105469 136.867188 C -93.523438 136.875 -82.964844 138.433594 -72.84375 141.691406 C -58.242188 146.378906 -41.195312 160.871094 -42.578125 177.71875 C -43.238281 185.695312 -49.28125 193.007812 -56.878906 195.398438 C -64.851562 197.902344 -73.582031 195.402344 -80.539062 191.265625 C -96.679688 181.699219 -105.933594 164.101562 -111.320312 146.582031 C -118.914062 147.136719 -126.445312 148.542969 -133.617188 150.71875 C -152.902344 156.554688 -169.804688 167.851562 -182.398438 183.589844 C -190.601562 193.832031 -197.273438 205.167969 -205.328125 215.53125 C -211.394531 223.316406 -218.476562 230.441406 -226.507812 236.199219 C -241.332031 246.78125 -261.8125 253.640625 -279.5 246.144531 C -294.09375 239.894531 -305.15625 223.730469 -304.941406 207.753906 Z M -41.769531 60.71875 C -25.585938 70.023438 -5.316406 72.160156 12.34375 65.945312 C 28.597656 60.222656 46.726562 44.28125 43.816406 25.214844 C 40.609375 4.3125 12.917969 -0.0820312 -4.101562 0.902344 C -24.238281 2.078125 -43.808594 9.070312 -60.417969 20.460938 C -63.472656 22.550781 -66.398438 24.792969 -69.207031 27.15625 C -63.949219 40.941406 -54.566406 53.351562 -41.769531 60.71875 Z M -99.71875 150.71875 C -96.488281 159.042969 -92.339844 167.757812 -86.3125 174.449219 C -79.316406 182.21875 -59.664062 194.976562 -52.90625 179.980469 C -50.242188 174.042969 -53.984375 167.507812 -57.792969 162.929688 C -62.5625 157.179688 -69.351562 152.8125 -76.4375 150.511719 C -84.402344 147.925781 -92.828125 146.574219 -101.28125 146.34375 C -100.765625 147.789062 -100.277344 149.265625 -99.71875 150.71875 Z M -99.71875 150.71875 "/></clipPath><linearGradient x1="106.316622" gradientTransform="matrix(-1.221327,1.471476,1.471476,1.221327,90.968902,-279.846431)" y1="50.450001" x2="203.982388" gradientUnits="userSpaceOnUse" y2="50.450001" id="c4c0bf7939"><stop style="stop-color:#5c5b69;stop-opacity:1;" offset="0"/><stop style="stop-color:#5c5b69;stop-opacity:1;" offset="0.5"/><stop style="stop-color:#5c5b69;stop-opacity:1;" offset="0.625"/><stop style="stop-color:#5c5b69;stop-opacity:1;" offset="0.65625"/><stop style="stop-color:#5b5a68;stop-opacity:1;" offset="0.671875"/><stop style="stop-color:#5b5a68;stop-opacity:1;" offset="0.6875"/><stop style="stop-color:#5a5967;stop-opacity:1;" offset="0.703125"/><stop style="stop-color:#5a5967;stop-opacity:1;" offset="0.71875"/><stop style="stop-color:#595866;stop-opacity:1;" offset="0.734375"/><stop style="stop-color:#595766;stop-opacity:1;" offset="0.75"/><stop style="stop-color:#585765;stop-opacity:1;" offset="0.765625"/><stop style="stop-color:#575665;stop-opacity:1;" offset="0.78125"/><stop style="stop-color:#575664;stop-opacity:1;" offset="0.796875"/><stop style="stop-color:#565564;stop-opacity:1;" offset="0.8125"/><stop style="stop-color:#565563;stop-opacity:1;" offset="0.828125"/><stop style="stop-color:#555463;stop-opacity:1;" offset="0.84375"/><stop style="stop-color:#555462;stop-opacity:1;" offset="0.859375"/><stop style="stop-color:#545362;stop-opacity:1;" offset="0.875"/><stop style="stop-color:#545261;stop-opacity:1;" offset="0.890625"/><stop style="stop-color:#535261;stop-opacity:1;" offset="0.90625"/><stop style="stop-color:#525160;stop-opacity:1;" offset="0.921875"/><stop style="stop-color:#525160;stop-opacity:1;" offset="0.9375"/><stop style="stop-color:#51505f;stop-opacity:1;" offset="0.953125"/><stop style="stop-color:#51505f;stop-opacity:1;" offset="0.96875"/><stop style="stop-color:#504f5e;stop-opacity:1;" offset="0.984375"/><stop style="stop-color:#504e5e;stop-opacity:1;" offset="1"/></linearGradient><clipPath id="12f96a38bb"><rect x="0" width="241" y="0" height="153"/></clipPath><clipPath id="10d8bac576"><path d="M 0.511719 0 L 217 0 L 217 152.007812 L 0.511719 152.007812 Z M 0.511719 0 "/></clipPath><clipPath id="053f1c8424"><path d="M 0.511719 0 L 165 0 L 165 152.007812 L 0.511719 152.007812 Z M 0.511719 0 "/></clipPath><clipPath id="9aa32ee1a5"><path d="M 218.203125 127.046875 L -402.578125 318.898438 L -460.222656 132.378906 L 160.5625 -59.472656 Z M 218.203125 127.046875 "/></clipPath><clipPath id="3cdb07f8ee"><path d="M 160.667969 -59.128906 L -460.117188 132.722656 L -402.472656 319.242188 L 218.3125 127.390625 Z M 160.667969 -59.128906 "/></clipPath><clipPath id="c4b525fbdc"><path d="M -440.429688 134.527344 C -436.058594 128.011719 -429.574219 123.222656 -421.742188 121.882812 C -419.195312 121.4375 -416.597656 122.335938 -415.761719 125.039062 C -415.074219 127.269531 -416.347656 130.585938 -418.917969 131.019531 C -435.109375 133.800781 -439.960938 153.015625 -435.894531 166.949219 C -430.609375 185.089844 -410.402344 191.859375 -393.222656 191.691406 C -368.257812 191.441406 -347.191406 177.945312 -323.871094 171.019531 C -303.5625 164.984375 -281.578125 165.394531 -261.378906 171.742188 C -254.617188 173.875 -248.054688 176.652344 -241.800781 179.980469 C -227.855469 142.527344 -195.957031 112.851562 -156.40625 104.492188 C -154.941406 104.179688 -153.464844 103.90625 -151.984375 103.648438 C -149.398438 95.042969 -145.507812 86.855469 -140.554688 79.5 C -127.429688 60.050781 -107.609375 47.441406 -85.261719 40.933594 C -60.574219 33.765625 -34.574219 33.316406 -9.105469 31.851562 C 16.003906 30.394531 40.457031 27.082031 64.34375 18.878906 C 87.523438 10.914062 109.371094 -0.761719 128.945312 -15.539062 C 138.503906 -22.753906 147.40625 -30.730469 155.707031 -39.359375 C 159.980469 -43.804688 167.023438 -37.332031 162.753906 -32.890625 C 130.265625 0.90625 87.777344 24.945312 41.96875 35.140625 C 18.03125 40.457031 -6.355469 41.148438 -30.734375 42.636719 C -54.207031 44.066406 -78.824219 46.210938 -100.207031 56.820312 C -118.667969 65.992188 -132.976562 80.898438 -140.65625 100.085938 C -140.9375 100.792969 -141.207031 101.539062 -141.464844 102.257812 C -125.101562 100.804688 -108.429688 102.554688 -92.792969 107.691406 C -72.570312 114.3125 -51.113281 126.496094 -41.449219 146.367188 C -36.714844 156.113281 -35.5625 167.164062 -40.34375 177.148438 C -44.90625 186.726562 -54.136719 193.261719 -63.859375 196.90625 C -83.132812 204.101562 -105.359375 199.664062 -122.183594 188.488281 C -139.589844 176.917969 -151.542969 159.152344 -154.730469 138.421875 C -155.976562 130.300781 -155.78125 121.996094 -154.394531 113.859375 C -166.835938 116.542969 -178.773438 121.375 -189.515625 128.378906 C -205.890625 139.0625 -219.054688 154.238281 -227.839844 171.664062 C -230.007812 175.976562 -231.902344 180.40625 -233.503906 184.945312 C -224.648438 190.734375 -216.65625 197.8125 -209.960938 206.070312 C -200.296875 217.976562 -193.945312 239.429688 -204.3125 252.78125 C -209.222656 259.101562 -218.28125 261.921875 -225.949219 259.769531 C -233.992188 257.511719 -239.9375 250.640625 -243.503906 243.378906 C -251.789062 226.542969 -249.921875 206.75 -244.859375 189.132812 C -251.519531 185.449219 -258.59375 182.511719 -265.789062 180.410156 C -285.128906 174.757812 -305.457031 174.976562 -324.605469 181.273438 C -337.070312 185.367188 -348.855469 191.210938 -361.265625 195.484375 C -370.601562 198.691406 -380.421875 200.785156 -390.296875 201.214844 C -408.496094 201.976562 -429.394531 196.527344 -440.109375 180.582031 C -448.914062 167.371094 -449.34375 147.789062 -440.429688 134.527344 Z M -139.679688 155.246094 C -131.214844 171.886719 -115.410156 184.753906 -97.222656 189.203125 C -80.484375 193.296875 -56.589844 189.855469 -48.605469 172.296875 C -39.867188 153.042969 -60.652344 134.226562 -75.441406 125.746094 C -92.949219 115.726562 -113.160156 110.882812 -133.292969 111.34375 C -136.992188 111.421875 -140.667969 111.699219 -144.316406 112.144531 C -147.445312 126.5625 -146.371094 142.082031 -139.679688 155.246094 Z M -237.402344 198.9375 C -239.246094 207.675781 -240.535156 217.238281 -239.144531 226.136719 C -237.535156 236.46875 -228.050781 257.894531 -214.195312 249.03125 C -208.71875 245.515625 -208.28125 237.996094 -208.96875 232.082031 C -209.820312 224.660156 -213.117188 217.292969 -217.792969 211.492188 C -223.050781 204.972656 -229.367188 199.238281 -236.320312 194.421875 C -236.679688 195.914062 -237.074219 197.414062 -237.402344 198.9375 Z M -237.402344 198.9375 "/></clipPath><clipPath id="678f4ee1c2"><rect x="0" width="217" y="0" height="153"/></clipPath><clipPath id="d5c924df87"><path d="M 173 71 L 270.992188 71 L 270.992188 152.007812 L 173 152.007812 Z M 173 71 "/></clipPath><clipPath id="4603d0be49"><path d="M 5 19 L 97.992188 19 L 97.992188 81.007812 L 5 81.007812 Z M 5 19 "/></clipPath><clipPath id="9af5d6f184"><path d="M 664.242188 195.917969 L 17.632812 259.765625 L -1.550781 65.484375 L 645.058594 1.640625 Z M 664.242188 195.917969 "/></clipPath><clipPath id="49f305441b"><path d="M 645.09375 2 L -1.515625 65.84375 L 17.667969 260.125 L 664.277344 196.277344 Z M 645.09375 2 "/></clipPath><clipPath id="d6220384ce"><path d="M 17.410156 71.546875 C 22.996094 66.035156 30.3125 62.644531 38.253906 62.898438 C 40.835938 62.96875 43.203125 64.367188 43.480469 67.183594 C 43.710938 69.507812 41.796875 72.5 39.191406 72.414062 C 22.769531 71.902344 14.175781 89.753906 15.375 104.222656 C 16.925781 123.054688 35.367188 133.722656 52.238281 136.996094 C 76.746094 141.746094 100.085938 132.734375 124.320312 130.609375 C 145.429688 128.757812 166.886719 133.554688 185.402344 143.8125 C 191.605469 147.253906 197.480469 151.289062 202.941406 155.800781 C 224.09375 121.890625 261.28125 99.195312 301.703125 98.914062 C 303.203125 98.898438 304.703125 98.925781 306.207031 98.96875 C 310.460938 91.054688 315.914062 83.808594 322.234375 77.59375 C 338.984375 61.164062 360.925781 52.769531 384.125 50.863281 C 409.746094 48.777344 435.308594 53.535156 460.554688 57.191406 C 485.449219 60.785156 510.074219 62.429688 535.117188 59.167969 C 559.417969 56 583.164062 48.929688 605.296875 38.363281 C 616.105469 33.203125 626.421875 27.171875 636.28125 20.375 C 641.355469 16.875 646.964844 24.625 641.890625 28.121094 C 603.300781 54.742188 556.863281 69.800781 509.941406 70.628906 C 485.425781 71.050781 461.394531 66.851562 437.210938 63.433594 C 413.921875 60.144531 389.375 57.320312 366.304688 63.441406 C 346.378906 68.734375 329.382812 80.480469 318.019531 97.746094 C 317.601562 98.382812 317.1875 99.054688 316.792969 99.710938 C 333.113281 101.558594 349.101562 106.609375 363.398438 114.765625 C 381.886719 125.296875 400.472656 141.523438 405.96875 162.925781 C 408.65625 173.421875 407.578125 184.480469 400.898438 193.308594 C 394.507812 201.777344 384.160156 206.335938 373.90625 207.964844 C 353.582031 211.160156 332.691406 202.367188 318.441406 188.054688 C 303.703125 173.234375 295.539062 153.441406 296.566406 132.492188 C 296.964844 124.285156 298.816406 116.183594 301.804688 108.492188 C 289.078125 108.632812 276.417969 110.980469 264.488281 115.695312 C 246.308594 122.886719 230.375 135.125 218.285156 150.445312 C 215.296875 154.234375 212.554688 158.195312 210.078125 162.324219 C 217.597656 169.765625 224.011719 178.296875 228.921875 187.730469 C 236.011719 201.324219 237.941406 223.617188 225.117188 234.625 C 219.039062 239.839844 209.601562 240.789062 202.519531 237.148438 C 195.089844 233.324219 190.636719 225.40625 188.59375 217.574219 C 183.84375 199.425781 189.632812 180.40625 198.117188 164.15625 C 192.324219 159.214844 185.980469 154.921875 179.351562 151.425781 C 161.535156 142.019531 141.574219 138.167969 121.550781 140.511719 C 108.519531 142.027344 95.804688 145.398438 82.789062 147.105469 C 73 148.378906 62.957031 148.46875 53.195312 146.914062 C 35.214844 144.019531 15.828125 134.5 8.519531 116.734375 C 2.53125 102.03125 6.027344 82.757812 17.410156 71.546875 Z M 307.945312 151.988281 C 312.910156 169.980469 325.824219 185.75 342.753906 193.746094 C 358.335938 201.105469 382.4375 202.511719 393.769531 186.902344 C 406.183594 169.785156 389.582031 147.191406 376.785156 135.925781 C 361.632812 122.609375 342.800781 113.820312 322.980469 110.246094 C 319.34375 109.585938 315.683594 109.121094 312.023438 108.828125 C 306.074219 122.328125 304.023438 137.75 307.945312 151.988281 Z M 203.457031 175.253906 C 199.90625 183.445312 196.730469 192.558594 196.3125 201.554688 C 195.828125 212 200.835938 234.890625 216.179688 228.976562 C 222.25 226.628906 224.183594 219.347656 224.695312 213.414062 C 225.34375 205.972656 223.585938 198.09375 220.164062 191.476562 C 216.316406 184.035156 211.273438 177.15625 205.425781 171.042969 C 204.773438 172.433594 204.085938 173.828125 203.457031 175.253906 Z M 203.457031 175.253906 "/></clipPath><linearGradient x1="283.686088" gradientTransform="matrix(-1.903043,0.187904,0.187904,1.903043,641.763127,3.095988)" y1="50.450001" x2="336.659654" gradientUnits="userSpaceOnUse" y2="50.450001" id="bb674a7984"><stop style="stop-color:#323144;stop-opacity:1;" offset="0"/><stop style="stop-color:#323043;stop-opacity:1;" offset="0.03125"/><stop style="stop-color:#313043;stop-opacity:1;" offset="0.0625"/><stop style="stop-color:#312f42;stop-opacity:1;" offset="0.09375"/><stop style="stop-color:#302f42;stop-opacity:1;" offset="0.125"/><stop style="stop-color:#302e41;stop-opacity:1;" offset="0.15625"/><stop style="stop-color:#2f2d41;stop-opacity:1;" offset="0.1875"/><stop style="stop-color:#2e2d40;stop-opacity:1;" offset="0.21875"/><stop style="stop-color:#2e2c3f;stop-opacity:1;" offset="0.25"/><stop style="stop-color:#2d2c3f;stop-opacity:1;" offset="0.28125"/><stop style="stop-color:#2d2b3e;stop-opacity:1;" offset="0.3125"/><stop style="stop-color:#2c2a3e;stop-opacity:1;" offset="0.34375"/><stop style="stop-color:#2b2a3d;stop-opacity:1;" offset="0.375"/><stop style="stop-color:#2b293d;stop-opacity:1;" offset="0.40625"/><stop style="stop-color:#2a283c;stop-opacity:1;" offset="0.4375"/><stop style="stop-color:#2a283c;stop-opacity:1;" offset="0.46875"/><stop style="stop-color:#29273b;stop-opacity:1;" offset="0.5"/><stop style="stop-color:#28273b;stop-opacity:1;" offset="0.53125"/><stop style="stop-color:#28263a;stop-opacity:1;" offset="0.5625"/><stop style="stop-color:#27253a;stop-opacity:1;" offset="0.59375"/><stop style="stop-color:#272539;stop-opacity:1;" offset="0.625"/><stop style="stop-color:#262438;stop-opacity:1;" offset="0.65625"/><stop style="stop-color:#252438;stop-opacity:1;" offset="0.6875"/><stop style="stop-color:#252337;stop-opacity:1;" offset="0.71875"/><stop style="stop-color:#242237;stop-opacity:1;" offset="0.75"/><stop style="stop-color:#232236;stop-opacity:1;" offset="0.78125"/><stop style="stop-color:#232136;stop-opacity:1;" offset="0.8125"/><stop style="stop-color:#222135;stop-opacity:1;" offset="0.84375"/><stop style="stop-color:#222035;stop-opacity:1;" offset="0.875"/><stop style="stop-color:#211f34;stop-opacity:1;" offset="0.90625"/><stop style="stop-color:#201f34;stop-opacity:1;" offset="0.9375"/><stop style="stop-color:#201e33;stop-opacity:1;" offset="1"/></linearGradient><clipPath id="01cafccc96"><rect x="0" width="98" y="0" height="82"/></clipPath><clipPath id="c6d7c8452f"><path d="M 209 0 L 270.992188 0 L 270.992188 152.007812 L 209 152.007812 Z M 209 0 "/></clipPath><clipPath id="fccb3be06b"><path d="M 17 0 L 61.992188 0 L 61.992188 152.007812 L 17 152.007812 Z M 17 0 "/></clipPath><clipPath id="1afbd76e19"><path d="M 579.285156 -203.921875 L 144.777344 279.171875 L -0.371094 148.621094 L 434.132812 -334.476562 Z M 579.285156 -203.921875 "/></clipPath><clipPath id="7d8c8688fa"><path d="M 434.402344 -334.234375 L -0.105469 148.863281 L 145.046875 279.414062 L 579.554688 -203.683594 Z M 434.402344 -334.234375 "/></clipPath><clipPath id="3b0a3aa23b"><path d="M 17.71875 140.3125 C 18.128906 132.480469 21.242188 125.042969 27.28125 119.875 C 29.234375 118.1875 31.925781 117.625 34.03125 119.519531 C 35.765625 121.078125 36.371094 124.578125 34.390625 126.269531 C 21.914062 136.964844 27.605469 155.945312 38.242188 165.820312 C 52.085938 178.683594 72.902344 174.128906 87.566406 165.171875 C 108.867188 152.15625 120.03125 129.765625 136.496094 111.859375 C 150.835938 96.257812 169.917969 85.335938 190.511719 80.425781 C 197.414062 78.789062 204.46875 77.804688 211.546875 77.457031 C 204.304688 38.152344 216.472656 -3.683594 246.132812 -31.144531 C 247.230469 -32.164062 248.355469 -33.15625 249.496094 -34.140625 C 247.300781 -42.851562 246.445312 -51.878906 246.921875 -60.734375 C 248.214844 -84.160156 258.761719 -105.152344 274.609375 -122.199219 C 292.125 -141.011719 314.214844 -154.734375 335.324219 -169.054688 C 356.132812 -183.183594 375.425781 -198.574219 391.722656 -217.863281 C 407.535156 -236.589844 420.304688 -257.820312 429.527344 -280.542969 C 434.03125 -291.640625 437.585938 -303.054688 440.285156 -314.722656 C 441.671875 -320.726562 451.039062 -318.785156 449.648438 -312.78125 C 439.097656 -267.101562 414.953125 -224.671875 380.855469 -192.429688 C 363.035156 -175.585938 342.457031 -162.488281 322.292969 -148.703125 C 302.871094 -135.433594 282.839844 -120.96875 269.929688 -100.894531 C 258.78125 -83.554688 254.148438 -63.417969 257.394531 -43.007812 C 257.515625 -42.253906 257.664062 -41.476562 257.8125 -40.726562 C 271.113281 -50.367188 286.328125 -57.417969 302.386719 -61.027344 C 323.140625 -65.714844 347.808594 -66.265625 366.296875 -54.164062 C 375.359375 -48.222656 382.015625 -39.328125 383.035156 -28.304688 C 384.027344 -17.742188 379.457031 -7.398438 372.980469 0.714844 C 360.128906 16.78125 338.769531 24.371094 318.597656 23.40625 C 297.714844 22.398438 278.34375 13.285156 264.976562 -2.878906 C 259.738281 -9.210938 255.648438 -16.441406 252.667969 -24.136719 C 243.363281 -15.453125 235.59375 -5.183594 229.960938 6.339844 C 221.386719 23.910156 217.871094 43.691406 219.265625 63.15625 C 219.617188 67.972656 220.261719 72.742188 221.214844 77.460938 C 231.785156 77.886719 242.277344 79.863281 252.261719 83.519531 C 266.660156 88.785156 283.117188 103.945312 281.066406 120.722656 C 280.09375 128.667969 273.765625 135.734375 266.078125 137.820312 C 258.011719 140.007812 249.386719 137.160156 242.597656 132.753906 C 226.851562 122.550781 218.304688 104.601562 213.617188 86.878906 C 206.007812 87.132812 198.425781 88.238281 191.175781 90.125 C 171.671875 95.195312 154.335938 105.808594 141.125 121.035156 C 132.523438 130.945312 125.40625 142.003906 116.945312 152.039062 C 110.574219 159.582031 103.21875 166.414062 94.960938 171.851562 C 79.726562 181.835938 58.992188 187.878906 41.617188 179.683594 C 27.28125 172.859375 16.871094 156.269531 17.71875 140.3125 Z M 286.523438 3.847656 C 302.324219 13.789062 322.492188 16.726562 340.386719 11.21875 C 356.855469 6.148438 375.605469 -9.0625 373.449219 -28.230469 C 371.078125 -49.242188 343.585938 -54.734375 326.539062 -54.425781 C 306.371094 -54.050781 286.535156 -47.839844 269.488281 -37.121094 C 266.355469 -35.152344 263.339844 -33.03125 260.4375 -30.777344 C 265.148438 -16.796875 274.027344 -4.023438 286.523438 3.847656 Z M 225.042969 91.476562 C 227.941406 99.921875 231.742188 108.792969 237.5 115.71875 C 244.179688 123.757812 263.3125 137.289062 270.65625 122.574219 C 273.558594 116.746094 270.078125 110.066406 266.457031 105.339844 C 261.917969 99.40625 255.308594 94.773438 248.316406 92.191406 C 240.460938 89.292969 232.097656 87.609375 223.660156 87.039062 C 224.113281 88.503906 224.546875 90 225.042969 91.476562 Z M 225.042969 91.476562 "/></clipPath><linearGradient x1="258.392759" gradientTransform="matrix(-1.278805,1.421808,1.421808,1.278805,432.683555,-331.177699)" y1="50.450001" x2="333.272667" gradientUnits="userSpaceOnUse" y2="50.450001" id="6342434f59"><stop style="stop-color:#3c3a4c;stop-opacity:1;" offset="0"/><stop style="stop-color:#3b3a4b;stop-opacity:1;" offset="0.03125"/><stop style="stop-color:#3a394b;stop-opacity:1;" offset="0.0625"/><stop style="stop-color:#39384a;stop-opacity:1;" offset="0.09375"/><stop style="stop-color:#393749;stop-opacity:1;" offset="0.125"/><stop style="stop-color:#383648;stop-opacity:1;" offset="0.15625"/><stop style="stop-color:#373548;stop-opacity:1;" offset="0.1875"/><stop style="stop-color:#363447;stop-opacity:1;" offset="0.21875"/><stop style="stop-color:#353446;stop-opacity:1;" offset="0.25"/><stop style="stop-color:#343345;stop-opacity:1;" offset="0.28125"/><stop style="stop-color:#333245;stop-opacity:1;" offset="0.3125"/><stop style="stop-color:#333144;stop-opacity:1;" offset="0.34375"/><stop style="stop-color:#323043;stop-opacity:1;" offset="0.375"/><stop style="stop-color:#312f42;stop-opacity:1;" offset="0.40625"/><stop style="stop-color:#302e41;stop-opacity:1;" offset="0.4375"/><stop style="stop-color:#2f2e41;stop-opacity:1;" offset="0.46875"/><stop style="stop-color:#2e2d40;stop-opacity:1;" offset="0.5"/><stop style="stop-color:#2d2c3f;stop-opacity:1;" offset="0.53125"/><stop style="stop-color:#2d2b3e;stop-opacity:1;" offset="0.5625"/><stop style="stop-color:#2c2a3e;stop-opacity:1;" offset="0.59375"/><stop style="stop-color:#2b293d;stop-opacity:1;" offset="0.625"/><stop style="stop-color:#2a283c;stop-opacity:1;" offset="0.65625"/><stop style="stop-color:#29283b;stop-opacity:1;" offset="0.6875"/><stop style="stop-color:#28273b;stop-opacity:1;" offset="0.71875"/><stop style="stop-color:#27263a;stop-opacity:1;" offset="0.75"/><stop style="stop-color:#272539;stop-opacity:1;" offset="0.78125"/><stop style="stop-color:#262438;stop-opacity:1;" offset="0.8125"/><stop style="stop-color:#252338;stop-opacity:1;" offset="0.84375"/><stop style="stop-color:#242237;stop-opacity:1;" offset="0.875"/><stop style="stop-color:#232136;stop-opacity:1;" offset="0.90625"/><stop style="stop-color:#222135;stop-opacity:1;" offset="0.9375"/><stop style="stop-color:#212034;stop-opacity:1;" offset="0.96875"/><stop style="stop-color:#211f34;stop-opacity:1;" offset="1"/></linearGradient><clipPath id="eb77124b3b"><rect x="0" width="62" y="0" height="153"/></clipPath><clipPath id="b5aa2da422"><path d="M 232 0 L 270.992188 0 L 270.992188 152.007812 L 232 152.007812 Z M 232 0 "/></clipPath><clipPath id="ab76cdb3cc"><path d="M 17 0 L 38.992188 0 L 38.992188 152.007812 L 17 152.007812 Z M 17 0 "/></clipPath><clipPath id="4e1c9ab785"><path d="M 639.859375 -82.382812 L 113.574219 298.675781 L -0.917969 140.546875 L 525.367188 -240.511719 Z M 639.859375 -82.382812 "/></clipPath><clipPath id="bb47975ce7"><path d="M 525.578125 -240.21875 L -0.707031 140.839844 L 113.785156 298.964844 L 640.070312 -82.09375 Z M 525.578125 -240.21875 "/></clipPath><clipPath id="d0eac521ae"><path d="M 18.515625 136.226562 C 20.5625 128.652344 25.167969 122.035156 32.15625 118.25 C 34.421875 117.011719 37.171875 117.027344 38.832031 119.320312 C 40.199219 121.207031 40.054688 124.761719 37.761719 125.996094 C 23.320312 133.832031 24.898438 153.582031 33.226562 165.472656 C 44.058594 180.957031 65.363281 180.875 81.582031 175.199219 C 105.144531 166.949219 120.761719 147.398438 140.621094 133.351562 C 157.917969 121.109375 178.867188 114.441406 200.03125 113.964844 C 207.125 113.8125 214.230469 114.335938 221.222656 115.480469 C 222.398438 75.53125 243.078125 37.183594 277.847656 16.566406 C 279.132812 15.800781 280.445312 15.066406 281.765625 14.34375 C 281.449219 5.367188 282.507812 -3.640625 284.835938 -12.195312 C 291.019531 -34.828125 305.738281 -53.136719 324.8125 -66.476562 C 345.886719 -81.191406 370.367188 -89.96875 394.015625 -99.535156 C 417.328125 -108.976562 439.421875 -119.972656 459.40625 -135.410156 C 478.800781 -150.394531 495.746094 -168.472656 509.535156 -188.75 C 516.269531 -198.65625 522.140625 -209.066406 527.230469 -219.90625 C 529.847656 -225.484375 538.597656 -221.621094 535.976562 -216.042969 C 516.066406 -173.601562 483.546875 -137.1875 443.441406 -112.824219 C 422.480469 -100.101562 399.609375 -91.617188 377 -82.375 C 355.226562 -73.480469 332.601562 -63.542969 315.761719 -46.628906 C 301.222656 -32.015625 292.460938 -13.304688 291.347656 7.332031 C 291.308594 8.09375 291.292969 8.886719 291.28125 9.652344 C 306.308594 3.019531 322.664062 -0.675781 339.121094 -0.835938 C 360.394531 -1.058594 384.628906 3.585938 400.164062 19.300781 C 407.777344 27.007812 412.417969 37.105469 411.097656 48.097656 C 409.851562 58.632812 403.207031 67.785156 395.171875 74.359375 C 379.234375 87.363281 356.757812 90.300781 337.234375 85.121094 C 317.035156 79.75 300.007812 66.769531 290.332031 48.15625 C 286.542969 40.867188 284.058594 32.9375 282.761719 24.789062 C 271.84375 31.328125 262.089844 39.734375 254.164062 49.816406 C 242.089844 65.195312 234.496094 83.796875 231.773438 103.121094 C 231.101562 107.902344 230.730469 112.703125 230.675781 117.515625 C 240.917969 120.152344 250.761719 124.289062 259.753906 129.960938 C 272.730469 138.132812 285.632812 156.410156 280.105469 172.382812 C 277.484375 179.945312 269.8125 185.523438 261.855469 185.949219 C 253.515625 186.394531 245.675781 181.800781 239.96875 176.066406 C 226.714844 162.785156 222.128906 143.4375 221.265625 125.128906 C 213.773438 123.777344 206.128906 123.269531 198.644531 123.589844 C 178.511719 124.449219 159.332031 131.183594 143.21875 143.296875 C 132.726562 151.175781 123.445312 160.496094 113.066406 168.53125 C 105.253906 174.566406 96.625 179.703125 87.410156 183.28125 C 70.421875 189.847656 48.878906 191.398438 33.613281 179.738281 C 21.03125 170.054688 14.335938 151.644531 18.515625 136.226562 Z M 309.988281 59.261719 C 323.347656 72.296875 342.449219 79.410156 361.101562 77.78125 C 378.265625 76.28125 399.792969 65.347656 401.714844 46.15625 C 403.808594 25.113281 378.078125 13.972656 361.351562 10.691406 C 341.550781 6.824219 320.855469 8.730469 301.933594 15.628906 C 298.460938 16.894531 295.066406 18.335938 291.757812 19.929688 C 293.421875 34.589844 299.425781 48.941406 309.988281 59.261719 Z M 231.472656 132.019531 C 232.535156 140.886719 234.386719 150.359375 238.558594 158.339844 C 243.402344 167.605469 259.265625 184.851562 269.539062 172.007812 C 273.597656 166.917969 271.597656 159.65625 269.050781 154.277344 C 265.859375 147.519531 260.367188 141.601562 254.078125 137.609375 C 247.003906 133.125 239.183594 129.722656 231.050781 127.394531 C 231.191406 128.921875 231.296875 130.472656 231.472656 132.019531 Z M 231.472656 132.019531 "/></clipPath><linearGradient x1="277.978639" gradientTransform="matrix(-1.54891,1.121499,1.121499,1.54891,523.253863,-237.592125)" y1="50.450001" x2="335.040402" gradientUnits="userSpaceOnUse" y2="50.450001" id="1b1aa7b09d"><stop style="stop-color:#343345;stop-opacity:1;" offset="0"/><stop style="stop-color:#343345;stop-opacity:1;" offset="0.03125"/><stop style="stop-color:#333245;stop-opacity:1;" offset="0.0625"/><stop style="stop-color:#333144;stop-opacity:1;" offset="0.09375"/><stop style="stop-color:#323143;stop-opacity:1;" offset="0.125"/><stop style="stop-color:#313043;stop-opacity:1;" offset="0.15625"/><stop style="stop-color:#312f42;stop-opacity:1;" offset="0.1875"/><stop style="stop-color:#302f42;stop-opacity:1;" offset="0.21875"/><stop style="stop-color:#2f2e41;stop-opacity:1;" offset="0.25"/><stop style="stop-color:#2f2d40;stop-opacity:1;" offset="0.28125"/><stop style="stop-color:#2e2d40;stop-opacity:1;" offset="0.3125"/><stop style="stop-color:#2e2c3f;stop-opacity:1;" offset="0.34375"/><stop style="stop-color:#2d2b3f;stop-opacity:1;" offset="0.375"/><stop style="stop-color:#2c2b3e;stop-opacity:1;" offset="0.40625"/><stop style="stop-color:#2c2a3e;stop-opacity:1;" offset="0.4375"/><stop style="stop-color:#2b293d;stop-opacity:1;" offset="0.46875"/><stop style="stop-color:#2a293c;stop-opacity:1;" offset="0.5"/><stop style="stop-color:#2a283c;stop-opacity:1;" offset="0.53125"/><stop style="stop-color:#29273b;stop-opacity:1;" offset="0.5625"/><stop style="stop-color:#28273b;stop-opacity:1;" offset="0.59375"/><stop style="stop-color:#28263a;stop-opacity:1;" offset="0.625"/><stop style="stop-color:#272539;stop-opacity:1;" offset="0.65625"/><stop style="stop-color:#262539;stop-opacity:1;" offset="0.6875"/><stop style="stop-color:#262438;stop-opacity:1;" offset="0.71875"/><stop style="stop-color:#252338;stop-opacity:1;" offset="0.75"/><stop style="stop-color:#242337;stop-opacity:1;" offset="0.78125"/><stop style="stop-color:#242237;stop-opacity:1;" offset="0.8125"/><stop style="stop-color:#232136;stop-opacity:1;" offset="0.84375"/><stop style="stop-color:#222135;stop-opacity:1;" offset="0.875"/><stop style="stop-color:#222035;stop-opacity:1;" offset="0.90625"/><stop style="stop-color:#211f34;stop-opacity:1;" offset="0.9375"/><stop style="stop-color:#211f34;stop-opacity:1;" offset="0.96875"/><stop style="stop-color:#201e33;stop-opacity:1;" offset="1"/></linearGradient><clipPath id="0a109bb68e"><rect x="0" width="39" y="0" height="153"/></clipPath><clipPath id="4571a872eb"><path d="M 166 0 L 270.992188 0 L 270.992188 152.007812 L 166 152.007812 Z M 166 0 "/></clipPath><clipPath id="fa43ff2edd"><path d="M 50 0 L 104.992188 0 L 104.992188 152.007812 L 50 152.007812 Z M 50 0 "/></clipPath><clipPath id="3bbcbfd386"><path d="M 233.460938 252.964844 L 0.0507812 19.554688 L 70.125 -50.519531 L 303.535156 182.890625 Z M 233.460938 252.964844 "/></clipPath><clipPath id="90d9c21abb"><path d="M 303.445312 182.980469 L 70.035156 -50.429688 L -0.0429688 19.648438 L 233.371094 253.058594 Z M 303.445312 182.980469 "/></clipPath><clipPath id="565d927d05"><path d="M 73.941406 -41.109375 C 77.90625 -40.691406 81.59375 -38.914062 84.050781 -35.710938 C 84.855469 -34.675781 85.066406 -33.292969 84.050781 -32.277344 C 83.214844 -31.441406 81.421875 -31.226562 80.617188 -32.277344 C 75.527344 -38.890625 65.75 -36.515625 60.453125 -31.386719 C 53.558594 -24.710938 55.308594 -14.03125 59.457031 -6.351562 C 65.488281 4.804688 76.542969 11.066406 85.183594 19.898438 C 92.710938 27.589844 97.738281 37.5625 99.675781 48.140625 C 100.320312 51.683594 100.632812 55.289062 100.617188 58.886719 C 120.746094 56.273438 141.640625 63.566406 154.773438 79.347656 C 155.257812 79.933594 155.734375 80.53125 156.199219 81.132812 C 160.679688 80.253906 165.28125 80.0625 169.757812 80.542969 C 181.605469 81.828125 191.96875 87.742188 200.191406 96.238281 C 209.261719 105.625 215.628906 117.199219 222.324219 128.289062 C 228.933594 139.222656 236.21875 149.421875 245.566406 158.207031 C 254.640625 166.730469 265.066406 173.777344 276.34375 179.066406 C 281.851562 181.648438 287.542969 183.757812 293.390625 185.4375 C 296.398438 186.304688 295.160156 191.003906 292.152344 190.136719 C 269.269531 183.558594 248.398438 170.171875 232.957031 152.011719 C 224.894531 142.519531 218.800781 131.730469 212.351562 121.132812 C 206.144531 110.929688 199.34375 100.378906 189.511719 93.289062 C 181.015625 87.171875 170.925781 84.28125 160.484375 85.378906 C 160.101562 85.417969 159.703125 85.476562 159.320312 85.53125 C 163.851562 92.535156 167.015625 100.441406 168.417969 108.683594 C 170.238281 119.335938 169.855469 131.863281 163.21875 140.914062 C 159.964844 145.351562 155.273438 148.488281 149.65625 148.707031 C 144.269531 148.929688 139.148438 146.332031 135.203125 142.828125 C 127.402344 135.878906 124.125 124.84375 125.15625 114.636719 C 126.226562 104.074219 131.371094 94.492188 139.929688 88.148438 C 143.28125 85.660156 147.058594 83.777344 151.042969 82.472656 C 146.886719 77.523438 141.886719 73.304688 136.195312 70.136719 C 127.511719 65.316406 117.574219 63.003906 107.664062 63.1875 C 105.210938 63.234375 102.773438 63.433594 100.355469 63.792969 C 99.855469 69.144531 98.570312 74.410156 96.449219 79.375 C 93.390625 86.539062 85.261719 94.480469 76.804688 92.988281 C 72.800781 92.28125 69.386719 88.882812 68.535156 84.925781 C 67.644531 80.777344 69.320312 76.476562 71.738281 73.152344 C 77.335938 65.441406 86.667969 61.585938 95.78125 59.683594 C 95.859375 55.820312 95.5 51.945312 94.738281 48.214844 C 92.691406 38.1875 87.773438 29.109375 80.40625 22 C 75.609375 17.371094 70.191406 13.464844 65.328125 8.902344 C 61.675781 5.46875 58.40625 1.554688 55.871094 -2.78125 C 51.214844 -10.773438 48.707031 -21.453125 53.332031 -30.046875 C 57.175781 -37.132812 65.871094 -41.96875 73.941406 -41.109375 Z M 135.941406 98.894531 C 130.472656 106.640625 128.441406 116.792969 130.753906 126.015625 C 132.882812 134.503906 140.09375 144.421875 149.875 143.847656 C 160.597656 143.207031 164.117188 129.410156 164.421875 120.757812 C 164.773438 110.515625 162.15625 100.289062 157.175781 91.355469 C 156.261719 89.710938 155.265625 88.125 154.203125 86.59375 C 146.984375 88.605469 140.265625 92.769531 135.941406 98.894531 Z M 93.144531 65.359375 C 88.785156 66.601562 84.183594 68.289062 80.515625 71.023438 C 76.257812 74.199219 68.878906 83.539062 76.144531 87.660156 C 79.023438 89.285156 82.507812 87.699219 85 85.988281 C 88.132812 83.847656 90.660156 80.617188 92.15625 77.144531 C 93.839844 73.234375 94.917969 69.039062 95.433594 64.773438 C 94.675781 64.96875 93.90625 65.144531 93.144531 65.359375 Z M 93.144531 65.359375 "/></clipPath><linearGradient x1="165.233326" gradientTransform="matrix(-0.686804,-0.686804,-0.686804,0.686804,301.940076,182.025741)" y1="50.450001" x2="316.871501" gradientUnits="userSpaceOnUse" y2="50.450001" id="1153b7ab9f"><stop style="stop-color:#5c5b69;stop-opacity:1;" offset="0"/><stop style="stop-color:#5c5b69;stop-opacity:1;" offset="0.03125"/><stop style="stop-color:#5b5a68;stop-opacity:1;" offset="0.046875"/><stop style="stop-color:#5a5968;stop-opacity:1;" offset="0.0625"/><stop style="stop-color:#5a5967;stop-opacity:1;" offset="0.078125"/><stop style="stop-color:#595866;stop-opacity:1;" offset="0.09375"/><stop style="stop-color:#585765;stop-opacity:1;" offset="0.109375"/><stop style="stop-color:#575665;stop-opacity:1;" offset="0.125"/><stop style="stop-color:#565564;stop-opacity:1;" offset="0.140625"/><stop style="stop-color:#555463;stop-opacity:1;" offset="0.15625"/><stop style="stop-color:#545362;stop-opacity:1;" offset="0.171875"/><stop style="stop-color:#545261;stop-opacity:1;" offset="0.1875"/><stop style="stop-color:#535261;stop-opacity:1;" offset="0.203125"/><stop style="stop-color:#525160;stop-opacity:1;" offset="0.21875"/><stop style="stop-color:#51505f;stop-opacity:1;" offset="0.234375"/><stop style="stop-color:#504f5e;stop-opacity:1;" offset="0.25"/><stop style="stop-color:#4f4e5e;stop-opacity:1;" offset="0.265625"/><stop style="stop-color:#4e4d5d;stop-opacity:1;" offset="0.28125"/><stop style="stop-color:#4e4c5c;stop-opacity:1;" offset="0.296875"/><stop style="stop-color:#4d4b5b;stop-opacity:1;" offset="0.3125"/><stop style="stop-color:#4c4b5a;stop-opacity:1;" offset="0.328125"/><stop style="stop-color:#4b4a5a;stop-opacity:1;" offset="0.34375"/><stop style="stop-color:#4a4959;stop-opacity:1;" offset="0.359375"/><stop style="stop-color:#494858;stop-opacity:1;" offset="0.375"/><stop style="stop-color:#484757;stop-opacity:1;" offset="0.390625"/><stop style="stop-color:#474657;stop-opacity:1;" offset="0.40625"/><stop style="stop-color:#474556;stop-opacity:1;" offset="0.421875"/><stop style="stop-color:#464455;stop-opacity:1;" offset="0.4375"/><stop style="stop-color:#454454;stop-opacity:1;" offset="0.453125"/><stop style="stop-color:#444353;stop-opacity:1;" offset="0.46875"/><stop style="stop-color:#434253;stop-opacity:1;" offset="0.484375"/><stop style="stop-color:#424152;stop-opacity:1;" offset="0.5"/><stop style="stop-color:#414051;stop-opacity:1;" offset="0.515625"/><stop style="stop-color:#413f50;stop-opacity:1;" offset="0.53125"/><stop style="stop-color:#403e50;stop-opacity:1;" offset="0.546875"/><stop style="stop-color:#3f3d4f;stop-opacity:1;" offset="0.5625"/><stop style="stop-color:#3e3d4e;stop-opacity:1;" offset="0.578125"/><stop style="stop-color:#3d3c4d;stop-opacity:1;" offset="0.59375"/><stop style="stop-color:#3c3b4c;stop-opacity:1;" offset="0.609375"/><stop style="stop-color:#3b3a4c;stop-opacity:1;" offset="0.625"/><stop style="stop-color:#3a394b;stop-opacity:1;" offset="0.640625"/><stop style="stop-color:#3a384a;stop-opacity:1;" offset="0.65625"/><stop style="stop-color:#393749;stop-opacity:1;" offset="0.671875"/><stop style="stop-color:#383649;stop-opacity:1;" offset="0.6875"/><stop style="stop-color:#373648;stop-opacity:1;" offset="0.703125"/><stop style="stop-color:#363547;stop-opacity:1;" offset="0.71875"/><stop style="stop-color:#353446;stop-opacity:1;" offset="0.734375"/><stop style="stop-color:#343345;stop-opacity:1;" offset="0.75"/><stop style="stop-color:#343245;stop-opacity:1;" offset="0.765625"/><stop style="stop-color:#333144;stop-opacity:1;" offset="0.78125"/><stop style="stop-color:#323043;stop-opacity:1;" offset="0.796875"/><stop style="stop-color:#312f42;stop-opacity:1;" offset="0.8125"/><stop style="stop-color:#302f42;stop-opacity:1;" offset="0.828125"/><stop style="stop-color:#2f2e41;stop-opacity:1;" offset="0.84375"/><stop style="stop-color:#2e2d40;stop-opacity:1;" offset="0.859375"/><stop style="stop-color:#2e2c3f;stop-opacity:1;" offset="0.875"/><stop style="stop-color:#2d2b3e;stop-opacity:1;" offset="0.890625"/><stop style="stop-color:#2c2a3e;stop-opacity:1;" offset="0.90625"/><stop style="stop-color:#2b293d;stop-opacity:1;" offset="0.921875"/><stop style="stop-color:#2a283c;stop-opacity:1;" offset="0.9375"/><stop style="stop-color:#29283b;stop-opacity:1;" offset="0.953125"/><stop style="stop-color:#28273b;stop-opacity:1;" offset="0.96875"/><stop style="stop-color:#27263a;stop-opacity:1;" offset="0.984375"/><stop style="stop-color:#272539;stop-opacity:1;" offset="1"/></linearGradient><clipPath id="eeeb790093"><rect x="0" width="105" y="0" height="153"/></clipPath><clipPath id="4d8002625b"><path d="M 0.511719 63 L 145 63 L 145 152.007812 L 0.511719 152.007812 Z M 0.511719 63 "/></clipPath><clipPath id="561ea9e5a2"><path d="M 0.511719 5 L 141 5 L 141 89.007812 L 0.511719 89.007812 Z M 0.511719 5 "/></clipPath><clipPath id="d0dac10def"><path d="M 120.703125 177.179688 L -199.449219 96.777344 L -175.308594 0.660156 L 144.84375 81.0625 Z M 120.703125 177.179688 "/></clipPath><clipPath id="7cfeb8b8e3"><path d="M 144.8125 81.1875 L -175.339844 0.785156 L -199.480469 96.902344 L 120.671875 177.304688 Z M 144.8125 81.1875 "/></clipPath><clipPath id="6651162ede"><path d="M -167.203125 6.773438 C -163.585938 5.097656 -159.507812 4.730469 -155.753906 6.214844 C -154.53125 6.691406 -153.640625 7.765625 -153.992188 9.160156 C -154.277344 10.308594 -155.707031 11.414062 -156.9375 10.925781 C -164.699219 7.863281 -171.871094 14.925781 -173.78125 22.046875 C -176.269531 31.316406 -169.28125 39.582031 -161.777344 44.039062 C -150.875 50.511719 -138.171875 50.207031 -126.222656 53.347656 C -115.8125 56.082031 -106.378906 62.058594 -99.28125 70.136719 C -96.910156 72.847656 -94.792969 75.78125 -92.957031 78.878906 C -77.027344 66.292969 -55.355469 61.824219 -35.980469 68.621094 C -35.261719 68.871094 -34.550781 69.140625 -33.839844 69.417969 C -30.449219 66.367188 -26.597656 63.835938 -22.507812 61.949219 C -11.683594 56.96875 0.246094 56.71875 11.664062 59.785156 C 24.269531 63.183594 35.675781 69.84375 47.117188 75.921875 C 58.402344 81.910156 69.894531 86.917969 82.425781 89.65625 C 94.585938 92.308594 107.152344 93 119.542969 91.746094 C 125.597656 91.132812 131.566406 90.019531 137.445312 88.460938 C 140.46875 87.660156 141.820312 92.324219 138.796875 93.125 C 115.78125 99.234375 90.996094 98.46875 68.425781 90.816406 C 56.632812 86.8125 45.863281 80.683594 34.886719 74.902344 C 24.316406 69.332031 13.066406 63.773438 0.988281 62.742188 C -9.445312 61.855469 -19.589844 64.554688 -27.980469 70.859375 C -28.289062 71.09375 -28.601562 71.34375 -28.90625 71.589844 C -21.417969 75.273438 -14.640625 80.429688 -9.207031 86.78125 C -2.175781 94.988281 3.929688 105.933594 2.886719 117.109375 C 2.371094 122.585938 -0.0429688 127.6875 -4.75 130.761719 C -9.257812 133.71875 -14.988281 134.121094 -20.167969 133.140625 C -30.433594 131.183594 -38.910156 123.394531 -43.269531 114.109375 C -47.773438 104.496094 -48.28125 93.632812 -44.199219 83.792969 C -42.597656 79.9375 -40.324219 76.382812 -37.574219 73.21875 C -43.683594 71.101562 -50.140625 70.050781 -56.652344 70.257812 C -66.578125 70.582031 -76.292969 73.699219 -84.703125 78.949219 C -86.78125 80.25 -88.769531 81.671875 -90.660156 83.21875 C -88.34375 88.066406 -86.738281 93.246094 -86.011719 98.597656 C -84.953125 106.3125 -87.855469 117.304688 -95.875 120.367188 C -99.671875 121.816406 -104.347656 120.652344 -107.109375 117.695312 C -110.007812 114.59375 -110.777344 110.042969 -110.410156 105.949219 C -109.566406 96.457031 -103.539062 88.359375 -96.695312 82.042969 C -98.617188 78.6875 -100.910156 75.546875 -103.480469 72.738281 C -110.386719 65.1875 -119.269531 59.921875 -129.242188 57.605469 C -135.734375 56.097656 -142.390625 55.527344 -148.90625 54.109375 C -153.804688 53.042969 -158.621094 51.359375 -163.019531 48.945312 C -171.121094 44.476562 -178.757812 36.601562 -179.203125 26.855469 C -179.542969 18.796875 -174.566406 10.183594 -167.203125 6.773438 Z M -42.101562 95.066406 C -42.8125 104.519531 -39.34375 114.273438 -32.621094 121 C -26.433594 127.191406 -15.152344 131.996094 -7.058594 126.476562 C 1.8125 120.425781 -2.25 106.773438 -6.433594 99.195312 C -11.394531 90.226562 -18.890625 82.796875 -27.753906 77.6875 C -29.378906 76.75 -31.050781 75.898438 -32.75 75.132812 C -37.910156 80.566406 -41.535156 87.585938 -42.101562 95.066406 Z M -96.042969 88.265625 C -99.148438 91.574219 -102.230469 95.386719 -103.972656 99.617188 C -105.996094 104.523438 -107.527344 116.328125 -99.175781 116.132812 C -95.871094 116.050781 -93.699219 112.902344 -92.4375 110.152344 C -90.851562 106.707031 -90.339844 102.636719 -90.839844 98.886719 C -91.402344 94.671875 -92.632812 90.515625 -94.382812 86.589844 C -94.929688 87.144531 -95.5 87.691406 -96.042969 88.265625 Z M -96.042969 88.265625 "/></clipPath><clipPath id="5493cb6e34"><rect x="0" width="145" y="0" height="90"/></clipPath><clipPath id="79392a0541"><path d="M 0.511719 0 L 265 0 L 265 152.007812 L 0.511719 152.007812 Z M 0.511719 0 "/></clipPath><clipPath id="5d4d1a862b"><path d="M 0.511719 5 L 157 5 L 157 152.007812 L 0.511719 152.007812 Z M 0.511719 5 "/></clipPath><clipPath id="cb7314f472"><path d="M -105.210938 -95.175781 L 266.214844 437.945312 L 106.035156 549.542969 L -265.394531 16.421875 Z M -105.210938 -95.175781 "/></clipPath><clipPath id="2fa4442ea1"><path d="M -265.097656 16.214844 L 106.332031 549.335938 L 266.511719 437.738281 L -104.917969 -95.382812 Z M -265.097656 16.214844 "/></clipPath><clipPath id="40e5585582"><path d="M 102.066406 530.035156 C 94.53125 527.851562 88 523.125 84.34375 516.070312 C 83.144531 513.78125 83.210938 511.035156 85.53125 509.414062 C 87.445312 508.082031 90.996094 508.289062 92.1875 510.605469 C 99.761719 525.1875 119.539062 523.96875 131.578125 515.859375 C 147.253906 505.3125 147.5625 484.003906 142.179688 467.6875 C 134.359375 443.980469 115.097656 428.011719 101.414062 407.898438 C 89.488281 390.382812 83.199219 369.3125 83.109375 348.144531 C 83.085938 341.050781 83.738281 333.957031 85.011719 326.984375 C 45.089844 325.082031 7.125 303.710938 -12.859375 268.570312 C -13.601562 267.269531 -14.3125 265.949219 -15.007812 264.617188 C -23.992188 264.769531 -32.976562 263.546875 -41.488281 261.0625 C -64.003906 254.46875 -82.042969 239.417969 -95.03125 220.105469 C -109.363281 198.765625 -117.695312 174.128906 -126.828125 150.3125 C -135.847656 126.832031 -146.4375 104.542969 -161.507812 84.277344 C -176.140625 64.617188 -193.90625 47.347656 -213.929688 33.191406 C -223.710938 26.277344 -234.015625 20.21875 -244.757812 14.933594 C -250.289062 12.214844 -246.265625 3.535156 -240.734375 6.257812 C -198.664062 26.9375 -162.847656 60.109375 -139.214844 100.652344 C -126.878906 121.84375 -118.808594 144.863281 -109.980469 167.636719 C -101.484375 189.570312 -91.960938 212.371094 -75.355469 229.515625 C -61.007812 244.316406 -42.457031 253.417969 -21.84375 254.90625 C -21.085938 254.957031 -20.292969 254.988281 -19.527344 255.015625 C -25.886719 239.867188 -29.285156 223.449219 -29.144531 206.992188 C -28.980469 185.714844 -23.894531 161.570312 -7.902344 146.324219 C -0.0546875 138.855469 10.125 134.394531 21.089844 135.914062 C 31.601562 137.355469 40.628906 144.164062 47.058594 152.316406 C 59.769531 168.492188 62.296875 191.015625 56.765625 210.4375 C 51.027344 230.539062 37.738281 247.328125 18.953125 256.660156 C 11.597656 260.320312 3.625 262.65625 -4.546875 263.804688 C 1.789062 274.84375 10.019531 284.75 19.957031 292.855469 C 35.113281 305.210938 53.570312 313.136719 72.84375 316.210938 C 77.613281 316.96875 82.40625 317.425781 87.214844 317.574219 C 90.039062 307.375 94.355469 297.613281 100.1875 288.722656 C 108.59375 275.898438 127.105469 263.328125 142.972656 269.144531 C 150.488281 271.90625 155.925781 279.675781 156.207031 287.636719 C 156.5 295.988281 151.761719 303.738281 145.925781 309.34375 C 132.40625 322.355469 112.980469 326.585938 94.65625 327.117188 C 93.171875 334.585938 92.523438 342.214844 92.707031 349.707031 C 93.199219 369.851562 99.585938 389.152344 111.40625 405.480469 C 119.09375 416.113281 128.242188 425.566406 136.085938 436.089844 C 141.976562 444.011719 146.957031 452.730469 150.367188 462.007812 C 156.621094 479.113281 157.78125 500.683594 145.847656 515.730469 C 135.9375 528.136719 117.410156 534.496094 102.066406 530.035156 Z M 30.414062 237.210938 C 43.691406 224.089844 51.148438 205.121094 49.859375 186.445312 C 48.671875 169.253906 38.132812 147.535156 18.976562 145.265625 C -2.023438 142.789062 -13.632812 168.308594 -17.214844 184.976562 C -21.441406 204.703125 -19.914062 225.429688 -13.359375 244.46875 C -12.15625 247.96875 -10.777344 251.386719 -9.242188 254.726562 C 5.445312 253.324219 19.902344 247.585938 30.414062 237.210938 Z M 101.734375 317.035156 C 110.617188 316.136719 120.121094 314.457031 128.175781 310.429688 C 137.527344 305.753906 155.058594 290.207031 142.40625 279.703125 C 137.390625 275.550781 130.09375 277.421875 124.667969 279.871094 C 117.855469 282.941406 111.839844 288.320312 107.734375 294.535156 C 103.117188 301.527344 99.574219 309.289062 97.097656 317.375 C 98.628906 317.265625 100.183594 317.183594 101.734375 317.035156 Z M 101.734375 317.035156 "/></clipPath><linearGradient x1="72.16969" gradientTransform="matrix(1.093158,1.56904,1.56904,-1.093158,-262.514119,18.58581)" y1="50.450001" x2="182.885658" gradientUnits="userSpaceOnUse" y2="50.450001" id="accded305b"><stop style="stop-color:#5c5b69;stop-opacity:1;" offset="0"/><stop style="stop-color:#5c5b69;stop-opacity:1;" offset="0.5"/><stop style="stop-color:#5c5b69;stop-opacity:1;" offset="0.75"/><stop style="stop-color:#5c5b69;stop-opacity:1;" offset="0.875"/><stop style="stop-color:#5c5b69;stop-opacity:1;" offset="0.890625"/><stop style="stop-color:#5b5a68;stop-opacity:1;" offset="0.90625"/><stop style="stop-color:#5b5968;stop-opacity:1;" offset="0.921875"/><stop style="stop-color:#5a5967;stop-opacity:1;" offset="0.9375"/><stop style="stop-color:#595867;stop-opacity:1;" offset="0.953125"/><stop style="stop-color:#595866;stop-opacity:1;" offset="0.96875"/><stop style="stop-color:#585765;stop-opacity:1;" offset="0.984375"/><stop style="stop-color:#575665;stop-opacity:1;" offset="1"/></linearGradient><clipPath id="70f795894b"><rect x="0" width="265" y="0" height="153"/></clipPath><clipPath id="0fc51f9146"><path d="M 187 0 L 270.992188 0 L 270.992188 135 L 187 135 Z M 187 0 "/></clipPath><clipPath id="273b3f1e84"><path d="M 17 0 L 83.992188 0 L 83.992188 45 L 17 45 Z M 17 0 "/></clipPath><clipPath id="fc5a0d90d1"><path d="M 564.851562 -363.035156 L 149.875 136.9375 L -0.347656 12.253906 L 414.628906 -487.71875 Z M 564.851562 -363.035156 "/></clipPath><clipPath id="252a89c208"><path d="M 414.910156 -487.488281 L -0.0703125 12.484375 L 150.152344 137.167969 L 565.128906 -362.804688 Z M 414.910156 -487.488281 "/></clipPath><clipPath id="085c2dc374"><path d="M 17.398438 3.234375 C 17.5 -4.613281 20.316406 -12.167969 26.140625 -17.570312 C 28.027344 -19.332031 30.695312 -20.003906 32.875 -18.195312 C 34.667969 -16.703125 35.414062 -13.230469 33.5 -11.460938 C 21.460938 -0.28125 27.898438 18.457031 38.921875 27.90625 C 53.265625 40.207031 73.882812 34.828125 88.179688 25.296875 C 108.945312 11.445312 119.210938 -11.371094 134.953125 -29.917969 C 148.664062 -46.074219 167.296875 -57.746094 187.679688 -63.46875 C 194.507812 -65.382812 201.519531 -66.644531 208.578125 -67.273438 C 199.78125 -106.257812 210.277344 -148.542969 238.824219 -177.160156 C 239.882812 -178.222656 240.964844 -179.261719 242.066406 -180.289062 C 239.527344 -188.90625 238.3125 -197.890625 238.4375 -206.757812 C 238.800781 -230.21875 248.503906 -251.613281 263.664062 -269.273438 C 280.414062 -288.769531 301.941406 -303.359375 322.46875 -318.507812 C 342.699219 -333.449219 361.367188 -349.59375 376.882812 -369.515625 C 391.941406 -388.855469 403.855469 -410.578125 412.171875 -433.648438 C 416.230469 -444.917969 419.324219 -456.460938 421.558594 -468.226562 C 422.710938 -474.28125 432.144531 -472.714844 430.996094 -466.660156 C 422.265625 -420.597656 399.824219 -377.242188 367.035156 -343.667969 C 349.898438 -326.132812 329.855469 -312.226562 310.253906 -297.652344 C 291.378906 -283.625 271.933594 -268.375 259.832031 -247.800781 C 249.382812 -230.03125 245.550781 -209.726562 249.605469 -189.460938 C 249.757812 -188.714844 249.9375 -187.945312 250.113281 -187.199219 C 263.023438 -197.363281 277.945312 -205.007812 293.84375 -209.257812 C 314.394531 -214.765625 339.023438 -216.292969 357.976562 -204.933594 C 367.269531 -199.359375 374.277344 -190.734375 375.730469 -179.761719 C 377.140625 -169.246094 372.984375 -158.730469 366.835938 -150.363281 C 354.632812 -133.800781 333.59375 -125.371094 313.398438 -125.53125 C 292.492188 -125.707031 272.773438 -134.046875 258.777344 -149.667969 C 253.292969 -155.785156 248.914062 -162.847656 245.628906 -170.421875 C 236.679688 -161.371094 229.324219 -150.800781 224.152344 -139.066406 C 216.28125 -121.167969 213.554688 -101.265625 215.722656 -81.871094 C 216.265625 -77.070312 217.097656 -72.328125 218.238281 -67.652344 C 228.820312 -67.644531 239.378906 -66.085938 249.5 -62.832031 C 264.101562 -58.144531 281.144531 -43.648438 279.761719 -26.800781 C 279.105469 -18.824219 273.0625 -11.511719 265.460938 -9.125 C 257.492188 -6.617188 248.757812 -9.121094 241.800781 -13.253906 C 225.664062 -22.824219 216.410156 -40.417969 211.019531 -57.9375 C 203.425781 -57.382812 195.898438 -55.976562 188.726562 -53.804688 C 169.441406 -47.964844 152.539062 -36.671875 139.945312 -20.929688 C 131.742188 -10.6875 125.066406 0.644531 117.011719 11.007812 C 110.945312 18.796875 103.867188 25.917969 95.832031 31.675781 C 81.007812 42.261719 60.53125 49.121094 42.84375 41.625 C 28.25 35.375 17.1875 19.210938 17.398438 3.234375 Z M 280.574219 -143.804688 C 296.757812 -134.496094 317.027344 -132.359375 334.6875 -138.578125 C 350.941406 -144.296875 369.070312 -160.238281 366.15625 -179.308594 C 362.953125 -200.207031 335.261719 -204.601562 318.242188 -203.621094 C 298.105469 -202.441406 278.53125 -195.449219 261.921875 -184.058594 C 258.871094 -181.972656 255.941406 -179.730469 253.132812 -177.363281 C 258.394531 -163.578125 267.777344 -151.167969 280.574219 -143.804688 Z M 222.621094 -53.800781 C 225.851562 -45.476562 230.003906 -36.765625 236.03125 -30.074219 C 243.027344 -22.304688 262.679688 -9.542969 269.433594 -24.539062 C 272.101562 -30.476562 268.359375 -37.015625 264.550781 -41.589844 C 259.78125 -47.339844 252.992188 -51.707031 245.90625 -54.007812 C 237.9375 -56.597656 229.515625 -57.945312 221.0625 -58.179688 C 221.574219 -56.734375 222.066406 -55.257812 222.621094 -53.800781 Z M 222.621094 -53.800781 "/></clipPath><linearGradient x1="304.888202" gradientTransform="matrix(-1.221327,1.471476,1.471476,1.221327,413.311562,-484.367371)" y1="50.450001" x2="346.965584" gradientUnits="userSpaceOnUse" y2="50.450001" id="88a522b87e"><stop style="stop-color:#2b293d;stop-opacity:1;" offset="0"/><stop style="stop-color:#2a283c;stop-opacity:1;" offset="0.0625"/><stop style="stop-color:#29273b;stop-opacity:1;" offset="0.125"/><stop style="stop-color:#28263a;stop-opacity:1;" offset="0.1875"/><stop style="stop-color:#27263a;stop-opacity:1;" offset="0.25"/><stop style="stop-color:#262539;stop-opacity:1;" offset="0.3125"/><stop style="stop-color:#252438;stop-opacity:1;" offset="0.375"/><stop style="stop-color:#242337;stop-opacity:1;" offset="0.4375"/><stop style="stop-color:#232236;stop-opacity:1;" offset="0.5"/><stop style="stop-color:#222135;stop-opacity:1;" offset="0.5625"/><stop style="stop-color:#212034;stop-opacity:1;" offset="0.625"/><stop style="stop-color:#201f34;stop-opacity:1;" offset="0.6875"/><stop style="stop-color:#201e33;stop-opacity:1;" offset="0.75"/><stop style="stop-color:#201e33;stop-opacity:1;" offset="1"/></linearGradient><clipPath id="d0a201e9c7"><rect x="0" width="84" y="0" height="135"/></clipPath><clipPath id="c27875dfe1"><path d="M 168 81 L 270.992188 81 L 270.992188 152.007812 L 168 152.007812 Z M 168 81 "/></clipPath><clipPath id="94f0bd3cb1"><path d="M 157.875 115.046875 L 348.769531 77.886719 L 361.726562 144.441406 L 170.832031 181.605469 Z M 157.875 115.046875 "/></clipPath><clipPath id="1385508076"><path d="M 157.875 115.046875 L 348.769531 77.886719 L 361.726562 144.441406 L 170.832031 181.605469 Z M 157.875 115.046875 "/></clipPath><clipPath id="2756c03fad"><path d="M 0.511719 0 L 146 0 L 146 52 L 0.511719 52 Z M 0.511719 0 "/></clipPath><clipPath id="f6baca568d"><path d="M -45.960938 -9.363281 L 144.933594 -46.527344 L 157.890625 20.03125 L -33.003906 57.195312 Z M -45.960938 -9.363281 "/></clipPath><clipPath id="0bdac0b589"><path d="M -45.960938 -9.363281 L 144.933594 -46.527344 L 157.890625 20.03125 L -33.003906 57.195312 Z M -45.960938 -9.363281 "/></clipPath><clipPath id="1ec64b206a"><path d="M 209 0 L 270.992188 0 L 270.992188 133 L 209 133 Z M 209 0 "/></clipPath><clipPath id="87637b9c85"><path d="M 294.097656 157.476562 L 205.082031 -15.4375 L 265.367188 -46.472656 L 354.382812 126.4375 Z M 294.097656 157.476562 "/></clipPath><clipPath id="5c7cfefd1f"><path d="M 294.097656 157.476562 L 205.082031 -15.4375 L 265.367188 -46.472656 L 354.382812 126.4375 Z M 294.097656 157.476562 "/></clipPath><clipPath id="1f3ab345f5"><path d="M 0.511719 71 L 76 71 L 76 152.007812 L 0.511719 152.007812 Z M 0.511719 71 "/></clipPath><clipPath id="c0eddf8c35"><path d="M -60.921875 32.402344 L 79.390625 167.066406 L 32.441406 215.988281 L -107.875 81.324219 Z M -60.921875 32.402344 "/></clipPath><clipPath id="153498e536"><path d="M -60.921875 32.402344 L 79.390625 167.066406 L 32.441406 215.988281 L -107.875 81.324219 Z M -60.921875 32.402344 "/></clipPath></defs><g id="818f21b347"><g clip-rule="nonzero" clip-path="url(#29fffd7540)"><path style=" stroke:none;fill-rule:nonzero;fill:#ffffff;fill-opacity:1;" d="M 0.511719 0 L 270.992188 0 L 270.992188 152.007812 L 0.511719 152.007812 Z M 0.511719 0 "/></g><g clip-rule="nonzero" clip-path="url(#383898eaec)"><path style=" stroke:none;fill-rule:nonzero;fill:url(#32760e7f0e);" d="M 0.511719 0 L 0.511719 152.007812 L 270.742188 152.007812 L 270.742188 0 Z M 0.511719 0 "/></g><g clip-rule="nonzero" clip-path="url(#bd485a56d0)"><g clip-rule="nonzero" clip-path="url(#2af6913ad9)"><g clip-rule="nonzero" clip-path="url(#4d7629a54d)"><path style=" stroke:none;fill-rule:nonzero;fill:#ebba0b;fill-opacity:1;" d="M -8.988281 51.398438 C -16.980469 54.417969 -25.125 53 -33.628906 51.558594 C -36.792969 51.023438 -40.054688 50.441406 -43.355469 50.121094 L -43.082031 47.609375 C -39.691406 47.953125 -36.382812 48.515625 -33.183594 49.066406 C -21.910156 51.003906 -12.148438 52.675781 -2.464844 44.636719 C 2.539062 40.476562 2.300781 35.019531 2.035156 29.28125 C 1.667969 21.332031 1.242188 12.351562 15.628906 6.917969 C 15.941406 6.800781 16.25 6.683594 16.558594 6.566406 C 28.335938 2.421875 38.101562 2.953125 46.730469 3.429688 C 56.222656 3.957031 63.730469 4.339844 69.875 -2.277344 C 74.679688 -7.472656 74.171875 -13.207031 73.589844 -19.855469 C 72.773438 -29.148438 71.835938 -39.695312 85.058594 -51.3125 C 91.511719 -56.96875 101.636719 -64.332031 113.195312 -67.183594 C 120.230469 -68.917969 124.480469 -68.167969 124.660156 -68.128906 L 124.183594 -65.648438 C 124.148438 -65.664062 120.175781 -66.328125 113.621094 -64.691406 C 107.550781 -63.128906 97.953125 -59.265625 86.730469 -49.402344 C 74.464844 -38.632812 75.3125 -29.1875 76.125 -20.054688 C 76.730469 -13.117188 77.308594 -6.546875 71.734375 -0.519531 C 64.78125 6.972656 56.351562 6.53125 46.585938 5.996094 C 38.207031 5.535156 28.722656 5.03125 17.421875 9 C 11.304688 11.148438 7.480469 14.050781 5.753906 17.894531 C 4.226562 21.339844 4.386719 25.144531 4.578125 29.183594 C 4.875 35.292969 5.15625 41.652344 -0.824219 46.613281 C -3.265625 48.644531 -6.027344 50.253906 -8.988281 51.398438 Z M -8.988281 51.398438 "/></g></g></g><g clip-rule="nonzero" clip-path="url(#4795361a12)"><g clip-rule="nonzero" clip-path="url(#61397b460d)"><g clip-rule="nonzero" clip-path="url(#b02e9be56e)"><path style=" stroke:none;fill-rule:nonzero;fill:#876ee0;fill-opacity:1;" d="M 96.75 74.667969 L -152.433594 109.121094 L -167.234375 2.085938 L 81.953125 -32.363281 Z M 96.75 74.667969 "/></g></g></g><g clip-rule="nonzero" clip-path="url(#a400906891)"><g clip-rule="nonzero" clip-path="url(#8ab3fef7d7)"><g clip-rule="nonzero" clip-path="url(#8eb6ce135f)"><path style=" stroke:none;fill-rule:nonzero;fill:#876ee0;fill-opacity:1;" d="M 175.3125 14.570312 L 47.527344 47.605469 L 18.367188 -65.199219 L 146.152344 -98.234375 Z M 175.3125 14.570312 "/></g></g></g><g clip-rule="nonzero" clip-path="url(#eb795d3c73)"><g clip-rule="nonzero" clip-path="url(#d868d376f1)"><g clip-rule="nonzero" clip-path="url(#7340eea861)"><path style=" stroke:none;fill-rule:nonzero;fill:#876ee0;fill-opacity:1;" d="M 142.035156 152.941406 L 220.5 114.648438 L 251.324219 177.816406 L 172.859375 216.105469 Z M 142.035156 152.941406 "/></g></g></g><g clip-rule="nonzero" clip-path="url(#b697bc3e95)"><g clip-rule="nonzero" clip-path="url(#37b7f79610)"><g clip-rule="nonzero" clip-path="url(#bdd171c60a)"><path style=" stroke:none;fill-rule:nonzero;fill:#876ee0;fill-opacity:1;" d="M 197.980469 106.820312 L 303.578125 101.328125 L 307.710938 180.839844 L 202.113281 186.328125 Z M 197.980469 106.820312 "/></g></g></g><g clip-rule="nonzero" clip-path="url(#d1f8e03be2)"><g mask="url(#55babe6d24)" transform="matrix(1,0,0,1,0.000000000000000111,0.000000000000009523)"><g clip-path="url(#12f96a38bb)"><g clip-rule="nonzero" clip-path="url(#375a671269)"><g clip-rule="nonzero" clip-path="url(#ff0cadc019)"><g clip-rule="nonzero" clip-path="url(#c791570d82)"><g clip-rule="nonzero" clip-path="url(#d5aec580c1)"><path style=" stroke:none;fill-rule:nonzero;fill:url(#c4c0bf7939);" d="M 45.089844 -53.710938 L 184.503906 62.003906 L 65.222656 205.714844 L -74.191406 90.003906 Z M 45.089844 -53.710938 "/></g></g></g></g></g><mask id="55babe6d24"><g filter="url(#0590ddf8c9)"><rect x="0" width="272.25" y="0" height="153.000002" style="fill:#000000;fill-opacity:0.76;stroke:none;"/></g></mask></g></g><g clip-rule="nonzero" clip-path="url(#10d8bac576)"><g mask="url(#85bffffebf)" transform="matrix(1,0,0,1,0.000000000000000111,0.000000000000009523)"><g clip-path="url(#678f4ee1c2)"><g clip-rule="nonzero" clip-path="url(#053f1c8424)"><g clip-rule="nonzero" clip-path="url(#9aa32ee1a5)"><g clip-rule="nonzero" clip-path="url(#3cdb07f8ee)"><g clip-rule="nonzero" clip-path="url(#c4b525fbdc)"><path style=" stroke:none;fill-rule:nonzero;fill:#5c5b69;fill-opacity:1;" d="M 152.507812 -46.972656 L 209.90625 138.753906 L 15.027344 198.980469 L -42.371094 13.253906 Z M 152.507812 -46.972656 "/></g></g></g></g></g><mask id="85bffffebf"><g filter="url(#0590ddf8c9)"><rect x="0" width="272.25" y="0" height="153.000002" style="fill:#000000;fill-opacity:0.76;stroke:none;"/></g></mask></g></g><g clip-rule="nonzero" clip-path="url(#d5c924df87)"><g mask="url(#694db83760)" transform="matrix(1,0,0,1,173,71)"><g clip-path="url(#01cafccc96)"><g clip-rule="nonzero" clip-path="url(#4603d0be49)"><g clip-rule="nonzero" clip-path="url(#9af5d6f184)"><g clip-rule="nonzero" clip-path="url(#49f305441b)"><g clip-rule="nonzero" clip-path="url(#d6220384ce)"><path style=" stroke:none;fill-rule:nonzero;fill:url(#bb674a7984);" d="M 97.070312 7.539062 L 104.265625 80.386719 L 3.453125 90.339844 L -3.738281 17.496094 Z M 97.070312 7.539062 "/></g></g></g></g></g><mask id="694db83760"><g filter="url(#0590ddf8c9)"><rect x="0" width="272.25" y="0" height="153.000002" style="fill:#000000;fill-opacity:0.76;stroke:none;"/></g></mask></g></g><g clip-rule="nonzero" clip-path="url(#c6d7c8452f)"><g mask="url(#9b93d7fe90)" transform="matrix(1,0,0,1,209,0.000000000000009523)"><g clip-path="url(#eb77124b3b)"><g clip-rule="nonzero" clip-path="url(#fccb3be06b)"><g clip-rule="nonzero" clip-path="url(#1afbd76e19)"><g clip-rule="nonzero" clip-path="url(#7d8c8688fa)"><g clip-rule="nonzero" clip-path="url(#3b0a3aa23b)"><path style=" stroke:none;fill-rule:nonzero;fill:url(#6342434f59);" d="M 37.050781 -22.433594 L 137.570312 67.976562 L 41.816406 174.441406 L -58.707031 84.03125 Z M 37.050781 -22.433594 "/></g></g></g></g></g><mask id="9b93d7fe90"><g filter="url(#0590ddf8c9)"><rect x="0" width="272.25" y="0" height="153.000002" style="fill:#000000;fill-opacity:0.76;stroke:none;"/></g></mask></g></g><g clip-rule="nonzero" clip-path="url(#b5aa2da422)"><g mask="url(#d19a5efe54)" transform="matrix(1,0,0,1,232,0.000000000000009523)"><g clip-path="url(#0a109bb68e)"><g clip-rule="nonzero" clip-path="url(#ab76cdb3cc)"><g clip-rule="nonzero" clip-path="url(#4e1c9ab785)"><g clip-rule="nonzero" clip-path="url(#bb47975ce7)"><g clip-rule="nonzero" clip-path="url(#d0eac521ae)"><path style=" stroke:none;fill-rule:nonzero;fill:url(#1b1aa7b09d);" d="M 30.511719 -11.714844 L 111.199219 99.726562 L 22.816406 163.71875 L -57.871094 52.28125 Z M 30.511719 -11.714844 "/></g></g></g></g></g><mask id="d19a5efe54"><g filter="url(#0590ddf8c9)"><rect x="0" width="272.25" y="0" height="153.000002" style="fill:#000000;fill-opacity:0.76;stroke:none;"/></g></mask></g></g><g clip-rule="nonzero" clip-path="url(#4571a872eb)"><g mask="url(#6757fd142a)" transform="matrix(1,0,0,1,166,0.000000000000009523)"><g clip-path="url(#eeeb790093)"><g clip-rule="nonzero" clip-path="url(#fa43ff2edd)"><g clip-rule="nonzero" clip-path="url(#3bbcbfd386)"><g clip-rule="nonzero" clip-path="url(#90d9c21abb)"><g clip-rule="nonzero" clip-path="url(#565d927d05)"><path style=" stroke:none;fill-rule:nonzero;fill:url(#1153b7ab9f);" d="M 180.996094 76.003906 L 76.851562 180.148438 L -27.292969 76.003906 L 76.851562 -28.140625 Z M 180.996094 76.003906 "/></g></g></g></g></g><mask id="6757fd142a"><g filter="url(#0590ddf8c9)"><rect x="0" width="272.25" y="0" height="153.000002" style="fill:#000000;fill-opacity:0.76;stroke:none;"/></g></mask></g></g><g clip-rule="nonzero" clip-path="url(#4d8002625b)"><g mask="url(#dab5b45992)" transform="matrix(1,0,0,1,0.000000000000000111,63)"><g clip-path="url(#5493cb6e34)"><g clip-rule="nonzero" clip-path="url(#561ea9e5a2)"><g clip-rule="nonzero" clip-path="url(#d0dac10def)"><g clip-rule="nonzero" clip-path="url(#7cfeb8b8e3)"><g clip-rule="nonzero" clip-path="url(#6651162ede)"><path style=" stroke:none;fill-rule:nonzero;fill:#5c5b69;fill-opacity:1;" d="M 161.730469 9.730469 L 133.4375 122.390625 L -19.398438 84.007812 L 8.894531 -28.652344 Z M 161.730469 9.730469 "/></g></g></g></g></g><mask id="dab5b45992"><g filter="url(#0590ddf8c9)"><rect x="0" width="272.25" y="0" height="153.000002" style="fill:#000000;fill-opacity:0.76;stroke:none;"/></g></mask></g></g><g clip-rule="nonzero" clip-path="url(#79392a0541)"><g mask="url(#72493e97c7)" transform="matrix(1,0,0,1,0.000000000000000111,0.000000000000009523)"><g clip-path="url(#70f795894b)"><g clip-rule="nonzero" clip-path="url(#5d4d1a862b)"><g clip-rule="nonzero" clip-path="url(#cb7314f472)"><g clip-rule="nonzero" clip-path="url(#2fa4442ea1)"><g clip-rule="nonzero" clip-path="url(#40e5585582)"><path style=" stroke:none;fill-rule:nonzero;fill:url(#accded305b);" d="M -69.125 52.054688 L 106.386719 -70.226562 L 227.417969 103.488281 L 51.902344 225.769531 Z M -69.125 52.054688 "/></g></g></g></g></g><mask id="72493e97c7"><g filter="url(#0590ddf8c9)"><rect x="0" width="272.25" y="0" height="153.000002" style="fill:#000000;fill-opacity:0.76;stroke:none;"/></g></mask></g></g><g clip-rule="nonzero" clip-path="url(#0fc51f9146)"><g mask="url(#44a17921ed)" transform="matrix(1,0,0,1,187,0.000000000000009523)"><g clip-path="url(#d0a201e9c7)"><g clip-rule="nonzero" clip-path="url(#273b3f1e84)"><g clip-rule="nonzero" clip-path="url(#fc5a0d90d1)"><g clip-rule="nonzero" clip-path="url(#252a89c208)"><g clip-rule="nonzero" clip-path="url(#085c2dc374)"><path style=" stroke:none;fill-rule:nonzero;fill:url(#88a522b87e);" d="M 44.4375 -32.832031 L 108.132812 20.035156 L 56.742188 81.953125 L -6.953125 29.085938 Z M 44.4375 -32.832031 "/></g></g></g></g></g><mask id="44a17921ed"><g filter="url(#0590ddf8c9)"><rect x="0" width="272.25" y="0" height="153.000002" style="fill:#000000;fill-opacity:0.76;stroke:none;"/></g></mask></g></g><g clip-rule="nonzero" clip-path="url(#c27875dfe1)"><g clip-rule="nonzero" clip-path="url(#94f0bd3cb1)"><g clip-rule="nonzero" clip-path="url(#1385508076)"><path style=" stroke:none;fill-rule:nonzero;fill:#ebba0b;fill-opacity:1;" d="M 201.125 175.625 C 192.957031 177.214844 185.367188 174.507812 177.433594 171.710938 C 174.480469 170.671875 171.441406 169.574219 168.324219 168.71875 L 168.996094 166.34375 C 172.195312 167.234375 175.285156 168.320312 178.265625 169.378906 C 188.777344 173.109375 197.882812 176.332031 208.488281 170.179688 C 213.972656 166.996094 214.632812 161.695312 215.3125 156.113281 C 216.253906 148.386719 217.304688 139.65625 232.007812 136.796875 C 232.324219 136.734375 232.640625 136.671875 232.957031 136.609375 C 244.941406 134.554688 254.234375 136.679688 262.445312 138.5625 C 271.480469 140.640625 278.628906 142.25 285.605469 136.878906 C 291.066406 132.664062 291.511719 127.054688 292.035156 120.542969 C 292.761719 111.449219 293.578125 101.121094 308.167969 92.101562 C 315.285156 87.714844 326.207031 82.285156 337.773438 81.445312 C 344.8125 80.929688 348.773438 82.355469 348.9375 82.425781 L 348.078125 84.734375 C 348.046875 84.714844 344.339844 83.421875 337.777344 83.914062 C 331.695312 84.417969 321.84375 86.5625 309.460938 94.222656 C 295.929688 102.582031 295.207031 111.828125 294.5 120.769531 C 293.957031 127.5625 293.441406 133.992188 287.105469 138.882812 C 279.207031 144.960938 271.183594 143.144531 261.890625 141.019531 C 253.917969 139.191406 244.890625 137.136719 233.390625 139.097656 C 227.164062 140.160156 223.019531 142.328125 220.734375 145.75 C 218.710938 148.820312 218.246094 152.515625 217.773438 156.441406 C 217.0625 162.382812 216.296875 168.5625 209.746094 172.359375 C 207.074219 173.914062 204.15625 175.011719 201.125 175.625 Z M 201.125 175.625 "/></g></g></g><g clip-rule="nonzero" clip-path="url(#2756c03fad)"><g clip-rule="nonzero" clip-path="url(#f6baca568d)"><g clip-rule="nonzero" clip-path="url(#0bdac0b589)"><path style=" stroke:none;fill-rule:nonzero;fill:#ebba0b;fill-opacity:1;" d="M -2.710938 51.214844 C -10.878906 52.804688 -18.46875 50.09375 -26.402344 47.300781 C -29.355469 46.261719 -32.394531 45.164062 -35.511719 44.304688 L -34.839844 41.929688 C -31.640625 42.820312 -28.550781 43.910156 -25.570312 44.96875 C -15.058594 48.699219 -5.953125 51.921875 4.652344 45.769531 C 10.136719 42.582031 10.796875 37.285156 11.476562 31.703125 C 12.417969 23.976562 13.46875 15.246094 28.171875 12.382812 C 28.488281 12.320312 28.804688 12.261719 29.121094 12.199219 C 41.105469 10.144531 50.398438 12.269531 58.609375 14.152344 C 67.640625 16.226562 74.792969 17.835938 81.769531 12.46875 C 87.226562 8.253906 87.675781 2.640625 88.199219 -3.867188 C 88.925781 -12.964844 89.738281 -23.289062 104.328125 -32.308594 C 111.445312 -36.695312 122.371094 -42.128906 133.9375 -42.96875 C 140.976562 -43.480469 144.9375 -42.054688 145.101562 -41.988281 L 144.242188 -39.675781 C 144.210938 -39.695312 140.503906 -40.992188 133.941406 -40.496094 C 127.859375 -39.992188 118.007812 -37.847656 105.625 -30.191406 C 92.09375 -21.828125 91.371094 -12.582031 90.664062 -3.640625 C 90.121094 3.148438 89.605469 9.582031 83.269531 14.472656 C 75.371094 20.550781 67.347656 18.730469 58.054688 16.605469 C 50.078125 14.777344 41.054688 12.726562 29.554688 14.6875 C 23.328125 15.75 19.183594 17.917969 16.898438 21.339844 C 14.871094 24.40625 14.40625 28.105469 13.9375 32.03125 C 13.226562 37.972656 12.460938 44.148438 5.910156 47.945312 C 3.234375 49.5 0.320312 50.597656 -2.710938 51.214844 Z M -2.710938 51.214844 "/></g></g></g><g clip-rule="nonzero" clip-path="url(#1ec64b206a)"><g clip-rule="nonzero" clip-path="url(#87637b9c85)"><g clip-rule="nonzero" clip-path="url(#5c7cfefd1f)"><path style=" stroke:none;fill-rule:nonzero;fill:#ebba0b;fill-opacity:1;" d="M 340.179688 99.023438 C 343.988281 106.421875 343.507812 114.464844 343.039062 122.863281 C 342.867188 125.988281 342.660156 129.214844 342.710938 132.449219 L 340.242188 132.464844 C 340.203125 129.144531 340.386719 125.875 340.570312 122.71875 C 341.214844 111.582031 341.765625 101.9375 332.894531 93.472656 C 328.300781 89.097656 323.03125 89.945312 317.480469 90.851562 C 309.800781 92.105469 301.125 93.535156 294.265625 80.21875 C 294.121094 79.929688 293.972656 79.644531 293.824219 79.359375 C 288.503906 68.425781 287.945312 58.90625 287.460938 50.496094 C 286.929688 41.246094 286.480469 33.929688 279.375 28.730469 C 273.800781 24.667969 268.289062 25.804688 261.890625 27.121094 C 252.953125 28.964844 242.8125 31.066406 230.078125 19.578125 C 223.875 13.96875 215.609375 4.996094 211.570312 -5.875 C 209.113281 -12.488281 209.371094 -16.6875 209.394531 -16.867188 L 211.851562 -16.683594 C 211.84375 -16.652344 211.632812 -12.730469 213.945312 -6.566406 C 216.125 -0.867188 220.9375 7.992188 231.75 17.742188 C 243.558594 28.402344 252.636719 26.511719 261.421875 24.691406 C 268.09375 23.316406 274.414062 22.011719 280.878906 26.730469 C 288.921875 32.617188 289.417969 40.828125 289.972656 50.347656 C 290.445312 58.511719 290.996094 67.753906 296.09375 78.246094 C 298.851562 83.929688 302.089844 87.300781 306.015625 88.539062 C 309.527344 89.628906 313.207031 89.042969 317.109375 88.398438 C 323.011719 87.421875 329.15625 86.429688 334.632812 91.65625 C 336.875 93.789062 338.742188 96.28125 340.179688 99.023438 Z M 340.179688 99.023438 "/></g></g></g><g clip-rule="nonzero" clip-path="url(#1f3ab345f5)"><g clip-rule="nonzero" clip-path="url(#c0eddf8c35)"><g clip-rule="nonzero" clip-path="url(#153498e536)"><path style=" stroke:none;fill-rule:nonzero;fill:#ebba0b;fill-opacity:1;" d="M -85.539062 102.644531 C -91.542969 96.886719 -93.699219 89.117188 -95.984375 81.023438 C -96.835938 78.011719 -97.6875 74.894531 -98.78125 71.851562 L -96.453125 71.03125 C -95.335938 74.164062 -94.449219 77.3125 -93.597656 80.359375 C -90.59375 91.105469 -87.984375 100.402344 -76.847656 105.53125 C -71.085938 108.179688 -66.375 105.667969 -61.417969 103.007812 C -54.558594 99.328125 -46.816406 95.160156 -36.011719 105.535156 C -35.777344 105.757812 -35.546875 105.980469 -35.3125 106.203125 C -26.730469 114.816406 -23.117188 123.636719 -19.925781 131.4375 C -16.421875 140.015625 -13.621094 146.789062 -5.214844 149.398438 C 1.375 151.433594 6.21875 148.570312 11.84375 145.25 C 19.699219 140.605469 28.609375 135.324219 44.386719 142.058594 C 52.070312 145.351562 62.804688 151.152344 70.148438 160.125 C 74.621094 165.585938 75.738281 169.644531 75.777344 169.816406 L 73.390625 170.445312 C 73.390625 170.410156 72.316406 166.632812 68.128906 161.550781 C 64.214844 156.867188 56.792969 150.050781 43.398438 144.335938 C 28.769531 138.089844 20.796875 142.824219 13.078125 147.394531 C 7.214844 150.859375 1.660156 154.144531 -5.988281 151.777344 C -15.507812 148.824219 -18.640625 141.214844 -22.253906 132.394531 C -25.351562 124.824219 -28.871094 116.261719 -37.097656 107.988281 C -41.550781 103.511719 -45.710938 101.371094 -49.824219 101.472656 C -53.496094 101.585938 -56.789062 103.332031 -60.269531 105.207031 C -65.535156 108.050781 -71.027344 110.980469 -77.90625 107.8125 C -80.714844 106.523438 -83.289062 104.769531 -85.539062 102.644531 Z M -85.539062 102.644531 "/></g></g></g></g></svg>